<svg width="25" height="28" viewBox="0 0 25 28" fill="none" xmlns="http://www.w3.org/2000/svg">
<g clip-path="url(#clip0_106_657)">
<path d="M23.5634 19.5805C22.565 18.5076 20.6967 16.8937 20.6967 11.6067C20.6967 7.59116 17.8812 4.37663 14.0847 3.58798V2.51096C14.0847 1.59776 13.3446 0.857178 12.432 0.857178C11.5193 0.857178 10.7792 1.59776 10.7792 2.51096V3.58798C6.98275 4.37663 4.1672 7.59116 4.1672 11.6067C4.1672 16.8937 2.29894 18.5076 1.30047 19.5805C0.990391 19.9139 0.85292 20.3123 0.855504 20.7025C0.861189 21.5501 1.52632 22.3563 2.51445 22.3563H22.3495C23.3376 22.3563 24.0032 21.5501 24.0084 20.7025C24.011 20.3123 23.8735 19.9134 23.5634 19.5805ZM4.34549 19.8756C5.44216 18.4301 6.64115 16.0342 6.64683 11.6367C6.64683 11.6264 6.64373 11.6171 6.64373 11.6067C6.64373 8.40978 9.23499 5.81851 12.432 5.81851C15.6289 5.81851 18.2202 8.40978 18.2202 11.6067C18.2202 11.6171 18.2171 11.6264 18.2171 11.6367C18.2228 16.0347 19.4218 18.4306 20.5184 19.8756H4.34549ZM12.432 27.3176C14.2573 27.3176 15.738 25.837 15.738 24.0101H9.12595C9.12595 25.837 10.6066 27.3176 12.432 27.3176Z" fill="#301446"/>
</g>
<defs>
<clipPath id="clip0_106_657">
<rect width="23.1529" height="26.4605" fill="white" transform="translate(0.855469 0.857178)"/>
</clipPath>
</defs>
</svg>
