<svg width="30" height="30" viewBox="0 0 30 30" fill="none" xmlns="http://www.w3.org/2000/svg">
<path d="M21.2539 22.5001C21.9169 22.5001 22.5528 22.7635 23.0217 23.2324C23.4905 23.7012 23.7539 24.3371 23.7539 25.0001C23.7539 25.6632 23.4905 26.299 23.0217 26.7679C22.5528 27.2367 21.9169 27.5001 21.2539 27.5001C20.5909 27.5001 19.955 27.2367 19.4861 26.7679C19.0173 26.299 18.7539 25.6632 18.7539 25.0001C18.7539 23.6126 19.8664 22.5001 21.2539 22.5001ZM1.25391 2.50012H5.34141L6.51641 5.00012H25.0039C25.3354 5.00012 25.6534 5.13182 25.8878 5.36624C26.1222 5.60066 26.2539 5.9186 26.2539 6.25012C26.2539 6.46262 26.1914 6.67512 26.1039 6.87512L21.6289 14.9626C21.2039 15.7251 20.3789 16.2501 19.4414 16.2501H10.1289L9.00391 18.2876L8.96641 18.4376C8.96641 18.5205 8.99933 18.6 9.05794 18.6586C9.11654 18.7172 9.19603 18.7501 9.27891 18.7501H23.7539V21.2501H8.75391C8.09087 21.2501 7.45498 20.9867 6.98614 20.5179C6.5173 20.049 6.25391 19.4132 6.25391 18.7501C6.25391 18.3126 6.36641 17.9001 6.55391 17.5501L8.25391 14.4876L3.75391 5.00012H1.25391V2.50012ZM8.75391 22.5001C9.41695 22.5001 10.0528 22.7635 10.5217 23.2324C10.9905 23.7012 11.2539 24.3371 11.2539 25.0001C11.2539 25.6632 10.9905 26.299 10.5217 26.7679C10.0528 27.2367 9.41695 27.5001 8.75391 27.5001C8.09087 27.5001 7.45498 27.2367 6.98614 26.7679C6.5173 26.299 6.25391 25.6632 6.25391 25.0001C6.25391 23.6126 7.36641 22.5001 8.75391 22.5001ZM20.0039 13.7501L23.4789 7.50012H7.67891L10.6289 13.7501H20.0039Z" fill="#301446"/>
</svg>
