<svg width="181" height="19" viewBox="0 0 181 19" fill="none" xmlns="http://www.w3.org/2000/svg">
<path d="M8.58065 1L10.5071 6.92908H16.7413L11.6977 10.5935L13.6242 16.5225L8.58065 12.8582L3.53707 16.5225L5.46354 10.5935L0.419967 6.92908H6.65417L8.58065 1Z" fill="#F6BA42"/>
<path d="M28.1939 1L30.1204 6.92908H36.3546L31.311 10.5935L33.2375 16.5225L28.1939 12.8582L23.1504 16.5225L25.0768 10.5935L20.0332 6.92908H26.2675L28.1939 1Z" fill="#F6BA42"/>
<path d="M47.8072 1L49.7337 6.92908H55.9679L50.9243 10.5935L52.8508 16.5225L47.8072 12.8582L42.7636 16.5225L44.6901 10.5935L39.6465 6.92908H45.8807L47.8072 1Z" fill="#F6BA42"/>
<path d="M67.4205 1L69.347 6.92908H75.5812L70.5376 10.5935L72.4641 16.5225L67.4205 12.8582L62.3769 16.5225L64.3034 10.5935L59.2598 6.92908H65.494L67.4205 1Z" fill="#F6BA42"/>
<path d="M89.7451 12.8193H88.3984V15H86.833V12.8193H82.2666V11.582L86.833 4.97852H88.3984V11.4863H89.7451V12.8193ZM86.833 11.4863V8.97754C86.833 8.08431 86.8558 7.35286 86.9014 6.7832H86.8467C86.7191 7.08398 86.5186 7.44857 86.2451 7.87695L83.7637 11.4863H86.833ZM90.9072 14.1455C90.9072 13.8128 90.9938 13.5576 91.167 13.3799C91.3402 13.2021 91.5908 13.1133 91.9189 13.1133C92.2516 13.1133 92.5046 13.2067 92.6777 13.3936C92.8509 13.5758 92.9375 13.8265 92.9375 14.1455C92.9375 14.4691 92.8486 14.7266 92.6709 14.918C92.4977 15.1048 92.2471 15.1982 91.9189 15.1982C91.5908 15.1982 91.3402 15.1048 91.167 14.918C90.9938 14.7311 90.9072 14.4736 90.9072 14.1455ZM101.243 10.0029C101.243 11.7393 100.963 13.029 100.402 13.8721C99.8464 14.7152 98.9941 15.1367 97.8457 15.1367C96.7337 15.1367 95.8906 14.7015 95.3164 13.8311C94.7422 12.9606 94.4551 11.6846 94.4551 10.0029C94.4551 8.23926 94.7331 6.94043 95.2891 6.10645C95.8496 5.2679 96.7018 4.84863 97.8457 4.84863C98.9622 4.84863 99.8076 5.28613 100.382 6.16113C100.956 7.03613 101.243 8.31673 101.243 10.0029ZM96.082 10.0029C96.082 11.3656 96.221 12.3385 96.499 12.9219C96.7816 13.5052 97.2305 13.7969 97.8457 13.7969C98.4609 13.7969 98.9098 13.5007 99.1924 12.9082C99.4795 12.3158 99.623 11.3473 99.623 10.0029C99.623 8.66309 99.4795 7.69466 99.1924 7.09766C98.9098 6.49609 98.4609 6.19531 97.8457 6.19531C97.2305 6.19531 96.7816 6.48926 96.499 7.07715C96.221 7.66504 96.082 8.6403 96.082 10.0029Z" fill="#C4C4C4"/>
<path d="M152.539 15H151.51V8.38574C151.51 7.83561 151.527 7.3151 151.561 6.82422C151.472 6.91309 151.373 7.00618 151.263 7.10352C151.153 7.20085 150.649 7.61344 149.752 8.34131L149.193 7.61768L151.65 5.71973H152.539V15ZM157.661 13.4893L157.756 13.6353C157.646 14.0584 157.488 14.5493 157.28 15.1079C157.073 15.6707 156.857 16.1934 156.633 16.6758H155.839C155.954 16.2357 156.078 15.6919 156.214 15.0444C156.354 14.397 156.451 13.8786 156.506 13.4893H157.661ZM165.412 10.3472C165.412 11.951 165.158 13.1486 164.65 13.9399C164.146 14.7313 163.374 15.127 162.333 15.127C161.334 15.127 160.575 14.7228 160.054 13.9146C159.534 13.1021 159.273 11.9129 159.273 10.3472C159.273 8.73063 159.525 7.53092 160.029 6.74805C160.532 5.96517 161.3 5.57373 162.333 5.57373C163.34 5.57373 164.104 5.9821 164.625 6.79883C165.149 7.61556 165.412 8.79834 165.412 10.3472ZM160.34 10.3472C160.34 11.6971 160.499 12.681 160.816 13.2988C161.133 13.9124 161.639 14.2192 162.333 14.2192C163.035 14.2192 163.543 13.9082 163.856 13.2861C164.174 12.6598 164.333 11.6802 164.333 10.3472C164.333 9.01416 164.174 8.03874 163.856 7.4209C163.543 6.79883 163.035 6.48779 162.333 6.48779C161.639 6.48779 161.133 6.7946 160.816 7.4082C160.499 8.01758 160.34 8.99723 160.34 10.3472ZM172.851 10.3472C172.851 11.951 172.597 13.1486 172.089 13.9399C171.586 14.7313 170.813 15.127 169.772 15.127C168.774 15.127 168.014 14.7228 167.494 13.9146C166.973 13.1021 166.713 11.9129 166.713 10.3472C166.713 8.73063 166.965 7.53092 167.468 6.74805C167.972 5.96517 168.74 5.57373 169.772 5.57373C170.78 5.57373 171.543 5.9821 172.064 6.79883C172.589 7.61556 172.851 8.79834 172.851 10.3472ZM167.779 10.3472C167.779 11.6971 167.938 12.681 168.255 13.2988C168.573 13.9124 169.078 14.2192 169.772 14.2192C170.475 14.2192 170.983 13.9082 171.296 13.2861C171.613 12.6598 171.772 11.6802 171.772 10.3472C171.772 9.01416 171.613 8.03874 171.296 7.4209C170.983 6.79883 170.475 6.48779 169.772 6.48779C169.078 6.48779 168.573 6.7946 168.255 7.4082C167.938 8.01758 167.779 8.99723 167.779 10.3472ZM180.291 10.3472C180.291 11.951 180.037 13.1486 179.529 13.9399C179.025 14.7313 178.253 15.127 177.212 15.127C176.213 15.127 175.454 14.7228 174.933 13.9146C174.413 13.1021 174.152 11.9129 174.152 10.3472C174.152 8.73063 174.404 7.53092 174.908 6.74805C175.411 5.96517 176.179 5.57373 177.212 5.57373C178.219 5.57373 178.983 5.9821 179.503 6.79883C180.028 7.61556 180.291 8.79834 180.291 10.3472ZM175.219 10.3472C175.219 11.6971 175.377 12.681 175.695 13.2988C176.012 13.9124 176.518 14.2192 177.212 14.2192C177.914 14.2192 178.422 13.9082 178.735 13.2861C179.053 12.6598 179.211 11.6802 179.211 10.3472C179.211 9.01416 179.053 8.03874 178.735 7.4209C178.422 6.79883 177.914 6.48779 177.212 6.48779C176.518 6.48779 176.012 6.7946 175.695 7.4082C175.377 8.01758 175.219 8.99723 175.219 10.3472Z" fill="#C4C4C4"/>
<g clip-path="url(#clip0_2355_17)">
<path d="M139.604 9.736C139.508 9.616 137.072 6.784 134 6.784C130.928 6.784 128.504 9.616 128.396 9.736C128.264 9.892 128.264 10.12 128.396 10.264C128.492 10.384 130.916 13.216 134 13.216C137.084 13.216 139.496 10.384 139.604 10.264C139.736 10.108 139.736 9.892 139.604 9.736ZM131.516 11.704C130.472 11.14 129.668 10.396 129.272 10C129.656 9.604 130.472 8.86 131.504 8.296C131.168 8.776 130.976 9.364 130.976 10C130.988 10.636 131.18 11.212 131.516 11.704ZM134 12.184C132.788 12.184 131.816 11.2 131.816 10C131.816 8.788 132.8 7.816 134 7.816C135.2 7.816 136.184 8.788 136.184 10C136.184 11.212 135.212 12.184 134 12.184ZM136.484 11.704C136.82 11.224 137.012 10.636 137.012 10C137.012 9.364 136.82 8.788 136.484 8.296C137.528 8.848 138.332 9.604 138.716 10C138.332 10.396 137.528 11.14 136.484 11.704Z" fill="#C4C4C4"/>
<path d="M134.829 9.92801C134.409 9.92801 134.073 9.59201 134.073 9.17201C134.073 8.98001 134.145 8.80001 134.277 8.66801C134.193 8.64401 134.097 8.64401 134.001 8.64401C133.245 8.64401 132.633 9.25601 132.633 10.012C132.633 10.768 133.245 11.368 134.001 11.368C134.757 11.368 135.369 10.756 135.369 10C135.369 9.90401 135.357 9.80801 135.345 9.72401C135.201 9.84401 135.033 9.92801 134.829 9.92801Z" fill="#C4C4C4"/>
</g>
<defs>
<clipPath id="clip0_2355_17">
<rect width="12" height="15" fill="white" transform="translate(128 4)"/>
</clipPath>
</defs>
</svg>
