<svg width="340" height="89" viewBox="0 0 340 89" fill="none" xmlns="http://www.w3.org/2000/svg">
<path d="M164.105 79.5107C164.105 80.6533 163.692 81.5498 162.866 82.2002C162.04 82.8506 160.9 83.1758 159.447 83.1758C157.994 83.1758 156.805 82.9502 155.879 82.499V80.5127C156.465 80.7881 157.086 81.0049 157.742 81.1631C158.404 81.3213 159.02 81.4004 159.588 81.4004C160.42 81.4004 161.032 81.2422 161.425 80.9258C161.823 80.6094 162.022 80.1846 162.022 79.6514C162.022 79.1709 161.841 78.7637 161.478 78.4297C161.114 78.0957 160.364 77.7002 159.228 77.2432C158.056 76.7686 157.229 76.2266 156.749 75.6172C156.269 75.0078 156.028 74.2754 156.028 73.4199C156.028 72.3477 156.409 71.5039 157.171 70.8887C157.933 70.2734 158.955 69.9658 160.238 69.9658C161.469 69.9658 162.693 70.2354 163.912 70.7744L163.244 72.4883C162.102 72.0078 161.082 71.7676 160.186 71.7676C159.506 71.7676 158.99 71.917 158.639 72.2158C158.287 72.5088 158.111 72.8984 158.111 73.3848C158.111 73.7188 158.182 74.0059 158.322 74.2461C158.463 74.4805 158.694 74.7031 159.017 74.9141C159.339 75.125 159.919 75.4033 160.757 75.749C161.7 76.1416 162.392 76.5078 162.831 76.8477C163.271 77.1875 163.593 77.5713 163.798 77.999C164.003 78.4268 164.105 78.9307 164.105 79.5107ZM169.994 81.5059C170.498 81.5059 171.002 81.4268 171.506 81.2686V82.8242C171.277 82.9238 170.981 83.0059 170.618 83.0703C170.261 83.1406 169.889 83.1758 169.502 83.1758C167.545 83.1758 166.566 82.1445 166.566 80.082V74.8438H165.239V73.9297L166.663 73.1738L167.366 71.1172H168.641V73.2793H171.409V74.8438H168.641V80.0469C168.641 80.5449 168.764 80.9141 169.01 81.1543C169.262 81.3887 169.59 81.5059 169.994 81.5059ZM180.312 83L180.022 81.7256H179.917C179.63 82.1768 179.22 82.5312 178.687 82.7891C178.159 83.0469 177.556 83.1758 176.876 83.1758C175.698 83.1758 174.819 82.8828 174.239 82.2969C173.659 81.7109 173.369 80.8232 173.369 79.6338V73.2793H175.452V79.2734C175.452 80.0176 175.604 80.5771 175.909 80.9521C176.214 81.3213 176.691 81.5059 177.342 81.5059C178.209 81.5059 178.845 81.248 179.249 80.7324C179.659 80.2109 179.864 79.3408 179.864 78.1221V73.2793H181.938V83H180.312ZM188.161 83.1758C186.948 83.1758 186.002 82.7363 185.322 81.8574C184.643 80.9785 184.303 79.7451 184.303 78.1572C184.303 76.5635 184.646 75.3242 185.331 74.4395C186.022 73.5488 186.978 73.1035 188.196 73.1035C189.474 73.1035 190.446 73.5752 191.114 74.5186H191.22C191.12 73.8213 191.07 73.2705 191.07 72.8662V69.3242H193.145V83H191.527L191.167 81.7256H191.07C190.408 82.6924 189.438 83.1758 188.161 83.1758ZM188.715 81.5059C189.564 81.5059 190.183 81.2686 190.569 80.7939C190.956 80.3135 191.155 79.5371 191.167 78.4648V78.1748C191.167 76.9502 190.968 76.0801 190.569 75.5645C190.171 75.0488 189.547 74.791 188.697 74.791C187.971 74.791 187.411 75.0869 187.019 75.6787C186.626 76.2646 186.43 77.1025 186.43 78.1924C186.43 79.2705 186.62 80.0938 187.001 80.6621C187.382 81.2246 187.953 81.5059 188.715 81.5059ZM200.343 83.1758C198.831 83.1758 197.647 82.7363 196.792 81.8574C195.942 80.9727 195.518 79.7568 195.518 78.21C195.518 76.6221 195.913 75.374 196.704 74.4658C197.495 73.5576 198.582 73.1035 199.965 73.1035C201.248 73.1035 202.262 73.4932 203.006 74.2725C203.75 75.0518 204.122 76.124 204.122 77.4893V78.6055H197.645C197.674 79.5488 197.929 80.2754 198.409 80.7852C198.89 81.2891 199.566 81.541 200.439 81.541C201.014 81.541 201.547 81.4883 202.039 81.3828C202.537 81.2715 203.07 81.0898 203.639 80.8379V82.5166C203.135 82.7568 202.625 82.9268 202.109 83.0264C201.594 83.126 201.005 83.1758 200.343 83.1758ZM199.965 74.668C199.309 74.668 198.781 74.876 198.383 75.292C197.99 75.708 197.756 76.3145 197.68 77.1113H202.092C202.08 76.3086 201.887 75.7021 201.512 75.292C201.137 74.876 200.621 74.668 199.965 74.668ZM215.021 83H212.946V77.0234C212.946 76.2734 212.794 75.7139 212.489 75.3447C212.19 74.9756 211.713 74.791 211.057 74.791C210.184 74.791 209.545 75.0488 209.141 75.5645C208.736 76.0801 208.534 76.9443 208.534 78.1572V83H206.469V73.2793H208.086L208.376 74.5537H208.481C208.774 74.0908 209.19 73.7334 209.729 73.4814C210.269 73.2295 210.866 73.1035 211.522 73.1035C213.854 73.1035 215.021 74.29 215.021 76.6631V83ZM221.516 81.5059C222.02 81.5059 222.523 81.4268 223.027 81.2686V82.8242C222.799 82.9238 222.503 83.0059 222.14 83.0703C221.782 83.1406 221.41 83.1758 221.023 83.1758C219.066 83.1758 218.088 82.1445 218.088 80.082V74.8438H216.761V73.9297L218.185 73.1738L218.888 71.1172H220.162V73.2793H222.931V74.8438H220.162V80.0469C220.162 80.5449 220.285 80.9141 220.531 81.1543C220.783 81.3887 221.111 81.5059 221.516 81.5059ZM231.509 80.2314C231.509 81.1807 231.163 81.9102 230.472 82.4199C229.78 82.9238 228.79 83.1758 227.501 83.1758C226.206 83.1758 225.166 82.9795 224.381 82.5869V80.8027C225.523 81.3301 226.587 81.5938 227.571 81.5938C228.843 81.5938 229.479 81.21 229.479 80.4424C229.479 80.1963 229.408 79.9912 229.268 79.8271C229.127 79.6631 228.896 79.4932 228.573 79.3174C228.251 79.1416 227.803 78.9424 227.229 78.7197C226.109 78.2861 225.351 77.8525 224.952 77.4189C224.56 76.9854 224.363 76.4229 224.363 75.7314C224.363 74.8994 224.697 74.2549 225.365 73.7979C226.039 73.335 226.953 73.1035 228.107 73.1035C229.25 73.1035 230.331 73.335 231.351 73.7979L230.683 75.3535C229.634 74.9199 228.752 74.7031 228.037 74.7031C226.947 74.7031 226.402 75.0137 226.402 75.6348C226.402 75.9395 226.543 76.1973 226.824 76.4082C227.111 76.6191 227.732 76.9092 228.688 77.2783C229.49 77.5889 230.073 77.873 230.437 78.1309C230.8 78.3887 231.069 78.6875 231.245 79.0273C231.421 79.3613 231.509 79.7627 231.509 80.2314Z" fill="#535054"/>
<path d="M162.559 38H155.51V24.3945C155.51 22.7422 155.545 21.2305 155.615 19.8594C155.182 20.3867 154.643 20.9375 153.998 21.5117L151.08 23.9199L147.477 19.4902L156.301 12.3008H162.559V38ZM175.848 32.7441L176.094 33.1484C174.957 37.6133 173.926 40.9004 173 43.0098H168.096C168.436 41.3926 168.775 39.582 169.115 37.5781C169.467 35.5625 169.707 33.9512 169.836 32.7441H175.848ZM198.066 25.1855C198.066 29.7324 197.305 33.0664 195.781 35.1875C194.258 37.2969 191.926 38.3516 188.785 38.3516C185.715 38.3516 183.4 37.25 181.842 35.0469C180.283 32.832 179.504 29.5449 179.504 25.1855C179.504 20.6152 180.266 17.2637 181.789 15.1309C183.312 12.998 185.645 11.9316 188.785 11.9316C191.844 11.9316 194.152 13.0449 195.711 15.2715C197.281 17.4863 198.066 20.791 198.066 25.1855ZM186.412 25.1855C186.412 28.0918 186.594 30.0898 186.957 31.1797C187.32 32.2695 187.93 32.8145 188.785 32.8145C189.652 32.8145 190.262 32.252 190.613 31.127C190.977 30.002 191.158 28.0215 191.158 25.1855C191.158 22.3379 190.977 20.3457 190.613 19.209C190.25 18.0605 189.641 17.4863 188.785 17.4863C187.93 17.4863 187.32 18.0371 186.957 19.1387C186.594 20.2402 186.412 22.2559 186.412 25.1855ZM219.16 25.1855C219.16 29.7324 218.398 33.0664 216.875 35.1875C215.352 37.2969 213.02 38.3516 209.879 38.3516C206.809 38.3516 204.494 37.25 202.936 35.0469C201.377 32.832 200.598 29.5449 200.598 25.1855C200.598 20.6152 201.359 17.2637 202.883 15.1309C204.406 12.998 206.738 11.9316 209.879 11.9316C212.938 11.9316 215.246 13.0449 216.805 15.2715C218.375 17.4863 219.16 20.791 219.16 25.1855ZM207.506 25.1855C207.506 28.0918 207.688 30.0898 208.051 31.1797C208.414 32.2695 209.023 32.8145 209.879 32.8145C210.746 32.8145 211.355 32.252 211.707 31.127C212.07 30.002 212.252 28.0215 212.252 25.1855C212.252 22.3379 212.07 20.3457 211.707 19.209C211.344 18.0605 210.734 17.4863 209.879 17.4863C209.023 17.4863 208.414 18.0371 208.051 19.1387C207.688 20.2402 207.506 22.2559 207.506 25.1855ZM240.254 25.1855C240.254 29.7324 239.492 33.0664 237.969 35.1875C236.445 37.2969 234.113 38.3516 230.973 38.3516C227.902 38.3516 225.588 37.25 224.029 35.0469C222.471 32.832 221.691 29.5449 221.691 25.1855C221.691 20.6152 222.453 17.2637 223.977 15.1309C225.5 12.998 227.832 11.9316 230.973 11.9316C234.031 11.9316 236.34 13.0449 237.898 15.2715C239.469 17.4863 240.254 20.791 240.254 25.1855ZM228.6 25.1855C228.6 28.0918 228.781 30.0898 229.145 31.1797C229.508 32.2695 230.117 32.8145 230.973 32.8145C231.84 32.8145 232.449 32.252 232.801 31.127C233.164 30.002 233.346 28.0215 233.346 25.1855C233.346 22.3379 233.164 20.3457 232.801 19.209C232.438 18.0605 231.828 17.4863 230.973 17.4863C230.117 17.4863 229.508 18.0371 229.145 19.1387C228.781 20.2402 228.6 22.2559 228.6 25.1855Z" fill="#411649"/>
<path d="M279.204 74.0352C279.204 75.377 278.765 76.4053 277.886 77.1201C277.007 77.835 275.756 78.1924 274.133 78.1924H272.797V83H270.696V70.1504H274.396C276.002 70.1504 277.203 70.4785 278 71.1348C278.803 71.791 279.204 72.7578 279.204 74.0352ZM272.797 76.4258H273.913C274.991 76.4258 275.782 76.2383 276.286 75.8633C276.79 75.4883 277.042 74.9023 277.042 74.1055C277.042 73.3672 276.816 72.8164 276.365 72.4531C275.914 72.0898 275.211 71.9082 274.256 71.9082H272.797V76.4258ZM286.481 73.1035C286.897 73.1035 287.24 73.1328 287.51 73.1914L287.308 75.1162C287.015 75.0459 286.71 75.0107 286.394 75.0107C285.567 75.0107 284.896 75.2803 284.381 75.8193C283.871 76.3584 283.616 77.0586 283.616 77.9199V83H281.551V73.2793H283.168L283.44 74.9932H283.546C283.868 74.4131 284.287 73.9531 284.803 73.6133C285.324 73.2734 285.884 73.1035 286.481 73.1035ZM297.942 78.1221C297.942 79.71 297.535 80.9492 296.721 81.8398C295.906 82.7305 294.772 83.1758 293.319 83.1758C292.411 83.1758 291.608 82.9707 290.911 82.5605C290.214 82.1504 289.678 81.5615 289.303 80.7939C288.928 80.0264 288.74 79.1357 288.74 78.1221C288.74 76.5459 289.145 75.3154 289.953 74.4307C290.762 73.5459 291.901 73.1035 293.372 73.1035C294.778 73.1035 295.892 73.5576 296.712 74.4658C297.532 75.3682 297.942 76.5869 297.942 78.1221ZM290.867 78.1221C290.867 80.3662 291.696 81.4883 293.354 81.4883C294.995 81.4883 295.815 80.3662 295.815 78.1221C295.815 75.9014 294.989 74.791 293.337 74.791C292.47 74.791 291.84 75.0781 291.447 75.6523C291.061 76.2266 290.867 77.0498 290.867 78.1221ZM299.331 87.3242C298.71 87.3242 298.194 87.251 297.784 87.1045V85.4697C298.183 85.5752 298.59 85.6279 299.006 85.6279C299.885 85.6279 300.324 85.1299 300.324 84.1338V73.2793H302.39V84.2744C302.39 85.2764 302.126 86.0352 301.599 86.5508C301.077 87.0664 300.321 87.3242 299.331 87.3242ZM300.201 70.7041C300.201 70.335 300.301 70.0508 300.5 69.8516C300.705 69.6523 300.995 69.5527 301.37 69.5527C301.733 69.5527 302.015 69.6523 302.214 69.8516C302.419 70.0508 302.521 70.335 302.521 70.7041C302.521 71.0557 302.419 71.334 302.214 71.5391C302.015 71.7383 301.733 71.8379 301.37 71.8379C300.995 71.8379 300.705 71.7383 300.5 71.5391C300.301 71.334 300.201 71.0557 300.201 70.7041ZM309.597 83.1758C308.085 83.1758 306.901 82.7363 306.046 81.8574C305.196 80.9727 304.771 79.7568 304.771 78.21C304.771 76.6221 305.167 75.374 305.958 74.4658C306.749 73.5576 307.836 73.1035 309.219 73.1035C310.502 73.1035 311.516 73.4932 312.26 74.2725C313.004 75.0518 313.376 76.124 313.376 77.4893V78.6055H306.898C306.928 79.5488 307.183 80.2754 307.663 80.7852C308.144 81.2891 308.82 81.541 309.693 81.541C310.268 81.541 310.801 81.4883 311.293 81.3828C311.791 81.2715 312.324 81.0898 312.893 80.8379V82.5166C312.389 82.7568 311.879 82.9268 311.363 83.0264C310.848 83.126 310.259 83.1758 309.597 83.1758ZM309.219 74.668C308.562 74.668 308.035 74.876 307.637 75.292C307.244 75.708 307.01 76.3145 306.934 77.1113H311.346C311.334 76.3086 311.141 75.7021 310.766 75.292C310.391 74.876 309.875 74.668 309.219 74.668ZM319.643 83.1758C318.172 83.1758 317.053 82.748 316.285 81.8926C315.523 81.0312 315.143 79.7979 315.143 78.1924C315.143 76.5576 315.541 75.3008 316.338 74.4219C317.141 73.543 318.298 73.1035 319.81 73.1035C320.835 73.1035 321.758 73.2939 322.578 73.6748L321.954 75.3359C321.081 74.9961 320.36 74.8262 319.792 74.8262C318.11 74.8262 317.27 75.9424 317.27 78.1748C317.27 79.2646 317.478 80.085 317.894 80.6357C318.315 81.1807 318.931 81.4531 319.739 81.4531C320.659 81.4531 321.529 81.2246 322.35 80.7676V82.5693C321.98 82.7861 321.585 82.9414 321.163 83.0352C320.747 83.1289 320.24 83.1758 319.643 83.1758ZM328.256 81.5059C328.76 81.5059 329.264 81.4268 329.768 81.2686V82.8242C329.539 82.9238 329.243 83.0059 328.88 83.0703C328.522 83.1406 328.15 83.1758 327.764 83.1758C325.807 83.1758 324.828 82.1445 324.828 80.082V74.8438H323.501V73.9297L324.925 73.1738L325.628 71.1172H326.902V73.2793H329.671V74.8438H326.902V80.0469C326.902 80.5449 327.025 80.9141 327.271 81.1543C327.523 81.3887 327.852 81.5059 328.256 81.5059ZM338.249 80.2314C338.249 81.1807 337.903 81.9102 337.212 82.4199C336.521 82.9238 335.53 83.1758 334.241 83.1758C332.946 83.1758 331.906 82.9795 331.121 82.5869V80.8027C332.264 81.3301 333.327 81.5938 334.312 81.5938C335.583 81.5938 336.219 81.21 336.219 80.4424C336.219 80.1963 336.148 79.9912 336.008 79.8271C335.867 79.6631 335.636 79.4932 335.313 79.3174C334.991 79.1416 334.543 78.9424 333.969 78.7197C332.85 78.2861 332.091 77.8525 331.692 77.4189C331.3 76.9854 331.104 76.4229 331.104 75.7314C331.104 74.8994 331.438 74.2549 332.105 73.7979C332.779 73.335 333.693 73.1035 334.848 73.1035C335.99 73.1035 337.071 73.335 338.091 73.7979L337.423 75.3535C336.374 74.9199 335.492 74.7031 334.777 74.7031C333.688 74.7031 333.143 75.0137 333.143 75.6348C333.143 75.9395 333.283 76.1973 333.564 76.4082C333.852 76.6191 334.473 76.9092 335.428 77.2783C336.23 77.5889 336.813 77.873 337.177 78.1309C337.54 78.3887 337.81 78.6875 337.985 79.0273C338.161 79.3613 338.249 79.7627 338.249 80.2314Z" fill="#535054"/>
<path d="M280.672 21.1602C282.148 21.1602 283.479 21.5059 284.662 22.1973C285.857 22.877 286.783 23.8438 287.439 25.0977C288.107 26.3516 288.441 27.7988 288.441 29.4395C288.441 32.3105 287.574 34.5137 285.84 36.0488C284.117 37.584 281.504 38.3516 278 38.3516C275 38.3516 272.551 37.8887 270.652 36.9629V31.2676C271.672 31.7363 272.82 32.123 274.098 32.4277C275.387 32.7324 276.494 32.8848 277.42 32.8848C278.709 32.8848 279.699 32.6152 280.391 32.0762C281.082 31.5254 281.428 30.7168 281.428 29.6504C281.428 28.666 281.076 27.8984 280.373 27.3477C279.67 26.7969 278.604 26.5215 277.174 26.5215C276.084 26.5215 274.906 26.7266 273.641 27.1367L271.092 25.8711L272.059 12.3008H286.719V18.084H277.965L277.648 21.4766C278.562 21.3008 279.213 21.207 279.6 21.1953C279.986 21.1719 280.344 21.1602 280.672 21.1602ZM309.922 25.1855C309.922 29.7324 309.16 33.0664 307.637 35.1875C306.113 37.2969 303.781 38.3516 300.641 38.3516C297.57 38.3516 295.256 37.25 293.697 35.0469C292.139 32.832 291.359 29.5449 291.359 25.1855C291.359 20.6152 292.121 17.2637 293.645 15.1309C295.168 12.998 297.5 11.9316 300.641 11.9316C303.699 11.9316 306.008 13.0449 307.566 15.2715C309.137 17.4863 309.922 20.791 309.922 25.1855ZM298.268 25.1855C298.268 28.0918 298.449 30.0898 298.812 31.1797C299.176 32.2695 299.785 32.8145 300.641 32.8145C301.508 32.8145 302.117 32.252 302.469 31.127C302.832 30.002 303.014 28.0215 303.014 25.1855C303.014 22.3379 302.832 20.3457 302.469 19.209C302.105 18.0605 301.496 17.4863 300.641 17.4863C299.785 17.4863 299.176 18.0371 298.812 19.1387C298.449 20.2402 298.268 22.2559 298.268 25.1855ZM331.016 25.1855C331.016 29.7324 330.254 33.0664 328.73 35.1875C327.207 37.2969 324.875 38.3516 321.734 38.3516C318.664 38.3516 316.35 37.25 314.791 35.0469C313.232 32.832 312.453 29.5449 312.453 25.1855C312.453 20.6152 313.215 17.2637 314.738 15.1309C316.262 12.998 318.594 11.9316 321.734 11.9316C324.793 11.9316 327.102 13.0449 328.66 15.2715C330.23 17.4863 331.016 20.791 331.016 25.1855ZM319.361 25.1855C319.361 28.0918 319.543 30.0898 319.906 31.1797C320.27 32.2695 320.879 32.8145 321.734 32.8145C322.602 32.8145 323.211 32.252 323.562 31.127C323.926 30.002 324.107 28.0215 324.107 25.1855C324.107 22.3379 323.926 20.3457 323.562 19.209C323.199 18.0605 322.59 17.4863 321.734 17.4863C320.879 17.4863 320.27 18.0371 319.906 19.1387C319.543 20.2402 319.361 22.2559 319.361 25.1855Z" fill="#411649"/>
<path d="M1.7666 70.1504H5.39648C7.10156 70.1504 8.33496 70.4053 9.09668 70.915C9.8584 71.4248 10.2393 72.2305 10.2393 73.332C10.2393 74.0938 10.0254 74.7236 9.59766 75.2217C9.17578 75.7139 8.55762 76.0332 7.74316 76.1797V76.2676C9.69434 76.6016 10.6699 77.627 10.6699 79.3438C10.6699 80.4922 10.2803 81.3887 9.50098 82.0332C8.72754 82.6777 7.64355 83 6.24902 83H1.7666V70.1504ZM3.26074 75.6523H5.72168C6.77637 75.6523 7.53516 75.4883 7.99805 75.1602C8.46094 74.8262 8.69238 74.2666 8.69238 73.4814C8.69238 72.7607 8.43457 72.2422 7.91895 71.9258C7.40332 71.6035 6.58301 71.4424 5.45801 71.4424H3.26074V75.6523ZM3.26074 76.918V81.7256H5.94141C6.97852 81.7256 7.75781 81.5264 8.2793 81.1279C8.80664 80.7236 9.07031 80.0938 9.07031 79.2383C9.07031 78.4414 8.80078 77.8555 8.26172 77.4805C7.72852 77.1055 6.91406 76.918 5.81836 76.918H3.26074ZM17.2881 83.1758C15.8643 83.1758 14.7393 82.7422 13.9131 81.875C13.0928 81.0078 12.6826 79.8037 12.6826 78.2627C12.6826 76.71 13.0635 75.4766 13.8252 74.5625C14.5928 73.6484 15.6211 73.1914 16.9102 73.1914C18.1172 73.1914 19.0723 73.5898 19.7754 74.3867C20.4785 75.1777 20.8301 76.2236 20.8301 77.5244V78.4473H14.1943C14.2236 79.5781 14.5078 80.4365 15.0469 81.0225C15.5918 81.6084 16.3564 81.9014 17.3408 81.9014C18.3779 81.9014 19.4033 81.6846 20.417 81.251V82.5518C19.9014 82.7744 19.4121 82.9326 18.9492 83.0264C18.4922 83.126 17.9385 83.1758 17.2881 83.1758ZM16.8926 74.4131C16.1191 74.4131 15.501 74.665 15.0381 75.1689C14.5811 75.6729 14.3115 76.3701 14.2295 77.2607H19.2656C19.2656 76.3408 19.0605 75.6377 18.6504 75.1514C18.2402 74.6592 17.6543 74.4131 16.8926 74.4131ZM31.21 73.3672V74.29L29.4258 74.501C29.5898 74.7061 29.7363 74.9756 29.8652 75.3096C29.9941 75.6377 30.0586 76.0098 30.0586 76.4258C30.0586 77.3691 29.7363 78.1221 29.0918 78.6846C28.4473 79.2471 27.5625 79.5283 26.4375 79.5283C26.1504 79.5283 25.8809 79.5049 25.6289 79.458C25.0078 79.7861 24.6973 80.1992 24.6973 80.6973C24.6973 80.9609 24.8057 81.1572 25.0225 81.2861C25.2393 81.4092 25.6113 81.4707 26.1387 81.4707H27.8438C28.8867 81.4707 29.6865 81.6904 30.2432 82.1299C30.8057 82.5693 31.0869 83.208 31.0869 84.0459C31.0869 85.1123 30.6592 85.9238 29.8037 86.4805C28.9482 87.043 27.7002 87.3242 26.0596 87.3242C24.7998 87.3242 23.8271 87.0898 23.1416 86.6211C22.4619 86.1523 22.1221 85.4902 22.1221 84.6348C22.1221 84.0488 22.3096 83.542 22.6846 83.1143C23.0596 82.6865 23.5869 82.3965 24.2666 82.2441C24.0205 82.1328 23.8125 81.96 23.6426 81.7256C23.4785 81.4912 23.3965 81.2188 23.3965 80.9082C23.3965 80.5566 23.4902 80.249 23.6777 79.9854C23.8652 79.7217 24.1611 79.4668 24.5654 79.2207C24.0674 79.0156 23.6602 78.667 23.3438 78.1748C23.0332 77.6826 22.8779 77.1201 22.8779 76.4873C22.8779 75.4326 23.1943 74.6211 23.8271 74.0527C24.46 73.4785 25.3564 73.1914 26.5166 73.1914C27.0205 73.1914 27.4746 73.25 27.8789 73.3672H31.21ZM23.5283 84.6172C23.5283 85.1387 23.748 85.5342 24.1875 85.8037C24.627 86.0732 25.2568 86.208 26.0771 86.208C27.3018 86.208 28.207 86.0234 28.793 85.6543C29.3848 85.291 29.6807 84.7959 29.6807 84.1689C29.6807 83.6475 29.5195 83.2842 29.1973 83.0791C28.875 82.8799 28.2686 82.7803 27.3779 82.7803H25.6289C24.9668 82.7803 24.4512 82.9385 24.082 83.2549C23.7129 83.5713 23.5283 84.0254 23.5283 84.6172ZM24.3193 76.4521C24.3193 77.126 24.5098 77.6357 24.8906 77.9814C25.2715 78.3271 25.8018 78.5 26.4814 78.5C27.9053 78.5 28.6172 77.8086 28.6172 76.4258C28.6172 74.9785 27.8965 74.2549 26.4551 74.2549C25.7695 74.2549 25.2422 74.4395 24.873 74.8086C24.5039 75.1777 24.3193 75.7256 24.3193 76.4521ZM34.6465 83H33.1875V73.3672H34.6465V83ZM33.0645 70.7568C33.0645 70.4229 33.1465 70.1797 33.3105 70.0273C33.4746 69.8691 33.6797 69.79 33.9258 69.79C34.1602 69.79 34.3623 69.8691 34.5322 70.0273C34.7021 70.1855 34.7871 70.4287 34.7871 70.7568C34.7871 71.085 34.7021 71.3311 34.5322 71.4951C34.3623 71.6533 34.1602 71.7324 33.9258 71.7324C33.6797 71.7324 33.4746 71.6533 33.3105 71.4951C33.1465 71.3311 33.0645 71.085 33.0645 70.7568ZM44.332 83V76.7686C44.332 75.9834 44.1533 75.3975 43.7959 75.0107C43.4385 74.624 42.8789 74.4307 42.1172 74.4307C41.1094 74.4307 40.3711 74.7031 39.9023 75.248C39.4336 75.793 39.1992 76.6924 39.1992 77.9463V83H37.7402V73.3672H38.9268L39.1641 74.6855H39.2344C39.5332 74.2109 39.9521 73.8447 40.4912 73.5869C41.0303 73.3232 41.6309 73.1914 42.293 73.1914C43.4531 73.1914 44.3262 73.4727 44.9121 74.0352C45.498 74.5918 45.791 75.4854 45.791 76.7158V83H44.332ZM55.3887 83V76.7686C55.3887 75.9834 55.21 75.3975 54.8525 75.0107C54.4951 74.624 53.9355 74.4307 53.1738 74.4307C52.166 74.4307 51.4277 74.7031 50.959 75.248C50.4902 75.793 50.2559 76.6924 50.2559 77.9463V83H48.7969V73.3672H49.9834L50.2207 74.6855H50.291C50.5898 74.2109 51.0088 73.8447 51.5479 73.5869C52.0869 73.3232 52.6875 73.1914 53.3496 73.1914C54.5098 73.1914 55.3828 73.4727 55.9688 74.0352C56.5547 74.5918 56.8477 75.4854 56.8477 76.7158V83H55.3887ZM63.9229 83.1758C62.499 83.1758 61.374 82.7422 60.5479 81.875C59.7275 81.0078 59.3174 79.8037 59.3174 78.2627C59.3174 76.71 59.6982 75.4766 60.46 74.5625C61.2275 73.6484 62.2559 73.1914 63.5449 73.1914C64.752 73.1914 65.707 73.5898 66.4102 74.3867C67.1133 75.1777 67.4648 76.2236 67.4648 77.5244V78.4473H60.8291C60.8584 79.5781 61.1426 80.4365 61.6816 81.0225C62.2266 81.6084 62.9912 81.9014 63.9756 81.9014C65.0127 81.9014 66.0381 81.6846 67.0518 81.251V82.5518C66.5361 82.7744 66.0469 82.9326 65.584 83.0264C65.127 83.126 64.5732 83.1758 63.9229 83.1758ZM63.5273 74.4131C62.7539 74.4131 62.1357 74.665 61.6729 75.1689C61.2158 75.6729 60.9463 76.3701 60.8643 77.2607H65.9004C65.9004 76.3408 65.6953 75.6377 65.2852 75.1514C64.875 74.6592 64.2891 74.4131 63.5273 74.4131ZM74.3555 73.1914C74.7832 73.1914 75.167 73.2266 75.5068 73.2969L75.3047 74.6504C74.9062 74.5625 74.5547 74.5186 74.25 74.5186C73.4707 74.5186 72.8027 74.835 72.2461 75.4678C71.6953 76.1006 71.4199 76.8887 71.4199 77.832V83H69.9609V73.3672H71.165L71.332 75.1514H71.4023C71.7598 74.5244 72.1904 74.041 72.6943 73.7012C73.1982 73.3613 73.752 73.1914 74.3555 73.1914ZM83.4434 83H81.9844V69.3242H83.4434V83ZM90.6064 83.1758C89.1826 83.1758 88.0576 82.7422 87.2314 81.875C86.4111 81.0078 86.001 79.8037 86.001 78.2627C86.001 76.71 86.3818 75.4766 87.1436 74.5625C87.9111 73.6484 88.9395 73.1914 90.2285 73.1914C91.4355 73.1914 92.3906 73.5898 93.0938 74.3867C93.7969 75.1777 94.1484 76.2236 94.1484 77.5244V78.4473H87.5127C87.542 79.5781 87.8262 80.4365 88.3652 81.0225C88.9102 81.6084 89.6748 81.9014 90.6592 81.9014C91.6963 81.9014 92.7217 81.6846 93.7354 81.251V82.5518C93.2197 82.7744 92.7305 82.9326 92.2676 83.0264C91.8105 83.126 91.2568 83.1758 90.6064 83.1758ZM90.2109 74.4131C89.4375 74.4131 88.8193 74.665 88.3564 75.1689C87.8994 75.6729 87.6299 76.3701 87.5479 77.2607H92.584C92.584 76.3408 92.3789 75.6377 91.9688 75.1514C91.5586 74.6592 90.9727 74.4131 90.2109 74.4131ZM98.7539 83L95.0977 73.3672H96.6621L98.7363 79.0801C99.2051 80.416 99.4805 81.2832 99.5625 81.6816H99.6328C99.6973 81.3711 99.8994 80.7295 100.239 79.7568C100.585 78.7783 101.355 76.6484 102.551 73.3672H104.115L100.459 83H98.7539ZM109.731 83.1758C108.308 83.1758 107.183 82.7422 106.356 81.875C105.536 81.0078 105.126 79.8037 105.126 78.2627C105.126 76.71 105.507 75.4766 106.269 74.5625C107.036 73.6484 108.064 73.1914 109.354 73.1914C110.561 73.1914 111.516 73.5898 112.219 74.3867C112.922 75.1777 113.273 76.2236 113.273 77.5244V78.4473H106.638C106.667 79.5781 106.951 80.4365 107.49 81.0225C108.035 81.6084 108.8 81.9014 109.784 81.9014C110.821 81.9014 111.847 81.6846 112.86 81.251V82.5518C112.345 82.7744 111.855 82.9326 111.393 83.0264C110.936 83.126 110.382 83.1758 109.731 83.1758ZM109.336 74.4131C108.562 74.4131 107.944 74.665 107.481 75.1689C107.024 75.6729 106.755 76.3701 106.673 77.2607H111.709C111.709 76.3408 111.504 75.6377 111.094 75.1514C110.684 74.6592 110.098 74.4131 109.336 74.4131ZM117.229 83H115.77V69.3242H117.229V83Z" fill="#535054"/>
<rect x="30" y="30.1538" width="11.3077" height="18.8462" rx="5.65385" fill="#F6BA42"/>
<rect x="50.3555" y="9.8" width="11.3077" height="39.2" rx="5.65385" fill="#C4C4C4"/>
<rect x="72.2148" width="11.3077" height="49" rx="5.65385" fill="#C4C4C4"/>
</svg>
