<svg width="71" height="89" viewBox="0 0 71 89" fill="none" xmlns="http://www.w3.org/2000/svg">
<path d="M10.2041 74.0352C10.2041 75.377 9.76465 76.4053 8.88574 77.1201C8.00684 77.835 6.75586 78.1924 5.13281 78.1924H3.79688V83H1.69629V70.1504H5.39648C7.00195 70.1504 8.20312 70.4785 9 71.1348C9.80273 71.791 10.2041 72.7578 10.2041 74.0352ZM3.79688 76.4258H4.91309C5.99121 76.4258 6.78223 76.2383 7.28613 75.8633C7.79004 75.4883 8.04199 74.9023 8.04199 74.1055C8.04199 73.3672 7.81641 72.8164 7.36523 72.4531C6.91406 72.0898 6.21094 71.9082 5.25586 71.9082H3.79688V76.4258ZM17.4814 73.1035C17.8975 73.1035 18.2402 73.1328 18.5098 73.1914L18.3076 75.1162C18.0146 75.0459 17.71 75.0107 17.3936 75.0107C16.5674 75.0107 15.8965 75.2803 15.3809 75.8193C14.8711 76.3584 14.6162 77.0586 14.6162 77.9199V83H12.5508V73.2793H14.168L14.4404 74.9932H14.5459C14.8682 74.4131 15.2871 73.9531 15.8027 73.6133C16.3242 73.2734 16.8838 73.1035 17.4814 73.1035ZM28.9424 78.1221C28.9424 79.71 28.5352 80.9492 27.7207 81.8398C26.9062 82.7305 25.7725 83.1758 24.3193 83.1758C23.4111 83.1758 22.6084 82.9707 21.9111 82.5605C21.2139 82.1504 20.6777 81.5615 20.3027 80.7939C19.9277 80.0264 19.7402 79.1357 19.7402 78.1221C19.7402 76.5459 20.1445 75.3154 20.9531 74.4307C21.7617 73.5459 22.9014 73.1035 24.3721 73.1035C25.7783 73.1035 26.8916 73.5576 27.7119 74.4658C28.5322 75.3682 28.9424 76.5869 28.9424 78.1221ZM21.8672 78.1221C21.8672 80.3662 22.6963 81.4883 24.3545 81.4883C25.9951 81.4883 26.8154 80.3662 26.8154 78.1221C26.8154 75.9014 25.9893 74.791 24.3369 74.791C23.4697 74.791 22.8398 75.0781 22.4473 75.6523C22.0605 76.2266 21.8672 77.0498 21.8672 78.1221ZM30.3311 87.3242C29.71 87.3242 29.1943 87.251 28.7842 87.1045V85.4697C29.1826 85.5752 29.5898 85.6279 30.0059 85.6279C30.8848 85.6279 31.3242 85.1299 31.3242 84.1338V73.2793H33.3896V84.2744C33.3896 85.2764 33.126 86.0352 32.5986 86.5508C32.0771 87.0664 31.3213 87.3242 30.3311 87.3242ZM31.2012 70.7041C31.2012 70.335 31.3008 70.0508 31.5 69.8516C31.7051 69.6523 31.9951 69.5527 32.3701 69.5527C32.7334 69.5527 33.0146 69.6523 33.2139 69.8516C33.4189 70.0508 33.5215 70.335 33.5215 70.7041C33.5215 71.0557 33.4189 71.334 33.2139 71.5391C33.0146 71.7383 32.7334 71.8379 32.3701 71.8379C31.9951 71.8379 31.7051 71.7383 31.5 71.5391C31.3008 71.334 31.2012 71.0557 31.2012 70.7041ZM40.5967 83.1758C39.085 83.1758 37.9014 82.7363 37.0459 81.8574C36.1963 80.9727 35.7715 79.7568 35.7715 78.21C35.7715 76.6221 36.167 75.374 36.958 74.4658C37.749 73.5576 38.8359 73.1035 40.2188 73.1035C41.502 73.1035 42.5156 73.4932 43.2598 74.2725C44.0039 75.0518 44.376 76.124 44.376 77.4893V78.6055H37.8984C37.9277 79.5488 38.1826 80.2754 38.6631 80.7852C39.1436 81.2891 39.8203 81.541 40.6934 81.541C41.2676 81.541 41.8008 81.4883 42.293 81.3828C42.791 81.2715 43.3242 81.0898 43.8926 80.8379V82.5166C43.3887 82.7568 42.8789 82.9268 42.3633 83.0264C41.8477 83.126 41.2588 83.1758 40.5967 83.1758ZM40.2188 74.668C39.5625 74.668 39.0352 74.876 38.6367 75.292C38.2441 75.708 38.0098 76.3145 37.9336 77.1113H42.3457C42.334 76.3086 42.1406 75.7021 41.7656 75.292C41.3906 74.876 40.875 74.668 40.2188 74.668ZM50.6426 83.1758C49.1719 83.1758 48.0527 82.748 47.2852 81.8926C46.5234 81.0312 46.1426 79.7979 46.1426 78.1924C46.1426 76.5576 46.541 75.3008 47.3379 74.4219C48.1406 73.543 49.2979 73.1035 50.8096 73.1035C51.835 73.1035 52.7578 73.2939 53.5781 73.6748L52.9541 75.3359C52.0811 74.9961 51.3604 74.8262 50.792 74.8262C49.1104 74.8262 48.2695 75.9424 48.2695 78.1748C48.2695 79.2646 48.4775 80.085 48.8936 80.6357C49.3154 81.1807 49.9307 81.4531 50.7393 81.4531C51.6592 81.4531 52.5293 81.2246 53.3496 80.7676V82.5693C52.9805 82.7861 52.585 82.9414 52.1631 83.0352C51.7471 83.1289 51.2402 83.1758 50.6426 83.1758ZM59.2559 81.5059C59.7598 81.5059 60.2637 81.4268 60.7676 81.2686V82.8242C60.5391 82.9238 60.2432 83.0059 59.8799 83.0703C59.5225 83.1406 59.1504 83.1758 58.7637 83.1758C56.8066 83.1758 55.8281 82.1445 55.8281 80.082V74.8438H54.501V73.9297L55.9248 73.1738L56.6279 71.1172H57.9023V73.2793H60.6709V74.8438H57.9023V80.0469C57.9023 80.5449 58.0254 80.9141 58.2715 81.1543C58.5234 81.3887 58.8516 81.5059 59.2559 81.5059ZM69.249 80.2314C69.249 81.1807 68.9033 81.9102 68.2119 82.4199C67.5205 82.9238 66.5303 83.1758 65.2412 83.1758C63.9463 83.1758 62.9062 82.9795 62.1211 82.5869V80.8027C63.2637 81.3301 64.3271 81.5938 65.3115 81.5938C66.583 81.5938 67.2188 81.21 67.2188 80.4424C67.2188 80.1963 67.1484 79.9912 67.0078 79.8271C66.8672 79.6631 66.6357 79.4932 66.3135 79.3174C65.9912 79.1416 65.543 78.9424 64.9688 78.7197C63.8496 78.2861 63.0908 77.8525 62.6924 77.4189C62.2998 76.9854 62.1035 76.4229 62.1035 75.7314C62.1035 74.8994 62.4375 74.2549 63.1055 73.7979C63.7793 73.335 64.6934 73.1035 65.8477 73.1035C66.9902 73.1035 68.0713 73.335 69.0908 73.7979L68.4229 75.3535C67.374 74.9199 66.4922 74.7031 65.7773 74.7031C64.6875 74.7031 64.1426 75.0137 64.1426 75.6348C64.1426 75.9395 64.2832 76.1973 64.5645 76.4082C64.8516 76.6191 65.4727 76.9092 66.4277 77.2783C67.2305 77.5889 67.8135 77.873 68.1768 78.1309C68.54 78.3887 68.8096 78.6875 68.9854 79.0273C69.1611 79.3613 69.249 79.7627 69.249 80.2314Z" fill="#535054"/>
<path d="M11.6719 21.1602C13.1484 21.1602 14.4785 21.5059 15.6621 22.1973C16.8574 22.877 17.7832 23.8438 18.4395 25.0977C19.1074 26.3516 19.4414 27.7988 19.4414 29.4395C19.4414 32.3105 18.5742 34.5137 16.8398 36.0488C15.1172 37.584 12.5039 38.3516 9 38.3516C6 38.3516 3.55078 37.8887 1.65234 36.9629V31.2676C2.67188 31.7363 3.82031 32.123 5.09766 32.4277C6.38672 32.7324 7.49414 32.8848 8.41992 32.8848C9.70898 32.8848 10.6992 32.6152 11.3906 32.0762C12.082 31.5254 12.4277 30.7168 12.4277 29.6504C12.4277 28.666 12.0762 27.8984 11.373 27.3477C10.6699 26.7969 9.60352 26.5215 8.17383 26.5215C7.08398 26.5215 5.90625 26.7266 4.64062 27.1367L2.0918 25.8711L3.05859 12.3008H17.7188V18.084H8.96484L8.64844 21.4766C9.5625 21.3008 10.2129 21.207 10.5996 21.1953C10.9863 21.1719 11.3438 21.1602 11.6719 21.1602ZM40.9219 25.1855C40.9219 29.7324 40.1602 33.0664 38.6367 35.1875C37.1133 37.2969 34.7812 38.3516 31.6406 38.3516C28.5703 38.3516 26.2559 37.25 24.6973 35.0469C23.1387 32.832 22.3594 29.5449 22.3594 25.1855C22.3594 20.6152 23.1211 17.2637 24.6445 15.1309C26.168 12.998 28.5 11.9316 31.6406 11.9316C34.6992 11.9316 37.0078 13.0449 38.5664 15.2715C40.1367 17.4863 40.9219 20.791 40.9219 25.1855ZM29.2676 25.1855C29.2676 28.0918 29.4492 30.0898 29.8125 31.1797C30.1758 32.2695 30.7852 32.8145 31.6406 32.8145C32.5078 32.8145 33.1172 32.252 33.4688 31.127C33.832 30.002 34.0137 28.0215 34.0137 25.1855C34.0137 22.3379 33.832 20.3457 33.4688 19.209C33.1055 18.0605 32.4961 17.4863 31.6406 17.4863C30.7852 17.4863 30.1758 18.0371 29.8125 19.1387C29.4492 20.2402 29.2676 22.2559 29.2676 25.1855ZM62.0156 25.1855C62.0156 29.7324 61.2539 33.0664 59.7305 35.1875C58.207 37.2969 55.875 38.3516 52.7344 38.3516C49.6641 38.3516 47.3496 37.25 45.791 35.0469C44.2324 32.832 43.4531 29.5449 43.4531 25.1855C43.4531 20.6152 44.2148 17.2637 45.7383 15.1309C47.2617 12.998 49.5938 11.9316 52.7344 11.9316C55.793 11.9316 58.1016 13.0449 59.6602 15.2715C61.2305 17.4863 62.0156 20.791 62.0156 25.1855ZM50.3613 25.1855C50.3613 28.0918 50.543 30.0898 50.9062 31.1797C51.2695 32.2695 51.8789 32.8145 52.7344 32.8145C53.6016 32.8145 54.2109 32.252 54.5625 31.127C54.9258 30.002 55.1074 28.0215 55.1074 25.1855C55.1074 22.3379 54.9258 20.3457 54.5625 19.209C54.1992 18.0605 53.5898 17.4863 52.7344 17.4863C51.8789 17.4863 51.2695 18.0371 50.9062 19.1387C50.543 20.2402 50.3613 22.2559 50.3613 25.1855Z" fill="#411649"/>
</svg>
