<svg width="21" height="28" viewBox="0 0 21 28" fill="none" xmlns="http://www.w3.org/2000/svg">
<path fill-rule="evenodd" clip-rule="evenodd" d="M5.06924 2.97504C3.43127 2.97504 2.09766 4.28345 2.09766 5.90273V8.27138V14.4787V16.8473C2.09766 18.4666 3.43127 19.775 5.06924 19.775H15.9261C17.564 19.775 18.8977 18.4666 18.8977 16.8473V14.4787V8.36572V8.27138C18.8977 6.6521 17.564 5.34369 15.9261 5.34369H11.9426C11.1968 5.34369 10.8004 5.20382 10.5719 5.03525C10.3433 4.86668 10.2446 4.65012 10.1453 4.36957C10.0461 4.08902 9.9652 3.74658 9.70441 3.45164C9.44363 3.15669 9.01204 2.97504 8.38207 2.97504H5.06924ZM5.06924 3.60504H8.38207C8.90409 3.60504 9.1008 3.71955 9.23273 3.86877C9.36467 4.01798 9.4412 4.2679 9.55143 4.57957C9.66165 4.89123 9.8242 5.26662 10.1978 5.5422C10.5715 5.81779 11.1176 5.97369 11.9426 5.97369H15.9261C17.2315 5.97369 18.2677 6.99595 18.2677 8.27138V8.36572V14.4787V16.8473C18.2677 18.1228 17.2315 19.145 15.9261 19.145H5.06924C3.76383 19.145 2.72766 18.1228 2.72766 16.8473V14.4787V8.27138V5.90273C2.72766 4.6273 3.76383 3.60504 5.06924 3.60504Z" fill="#301446"/>
<path fill-rule="evenodd" clip-rule="evenodd" d="M5.06924 8.65149C3.43132 8.65149 2.09766 9.9595 2.09766 11.5788V13.9478V14.4786V16.8472C2.09766 18.4665 3.43126 19.7749 5.06924 19.7749H15.9261C17.564 19.7749 18.8977 18.4665 18.8977 16.8472V13.9478V11.5788C18.8977 9.9595 17.564 8.65149 15.9261 8.65149H5.06924ZM5.06924 9.28149H15.9261C17.2315 9.28149 18.2677 10.3033 18.2677 11.5788V13.9478V16.8472C18.2677 18.1227 17.2315 19.1449 15.9261 19.1449H5.06924C3.76384 19.1449 2.72766 18.1227 2.72766 16.8472V14.4786V13.9478V11.5788C2.72766 10.3033 3.76378 9.28149 5.06924 9.28149Z" fill="#301446"/>
</svg>
