<svg width="24" height="22" viewBox="0 0 24 22" fill="none" xmlns="http://www.w3.org/2000/svg">
<g clip-path="url(#clip0_95_53)">
<path d="M12.0003 1.69299C9.06834 1.69299 6.68234 4.07899 6.68234 7.01099V10.114H5.95134C4.95934 10.114 4.15234 10.921 4.15234 11.912V20.507C4.15234 21.499 4.95934 22.306 5.95134 22.306H18.0483C19.0403 22.306 19.8473 21.499 19.8473 20.507V11.912C19.8473 10.92 19.0403 10.114 18.0483 10.114H17.3183V7.01099C17.3183 4.07899 14.9323 1.69299 12.0003 1.69299ZM7.40134 7.01099C7.40134 4.47599 9.46434 2.41199 12.0003 2.41199C14.5363 2.41199 16.5993 4.47499 16.5993 7.01099V10.114H7.40134V7.01099ZM18.0493 10.834C18.6443 10.834 19.1283 11.318 19.1283 11.913V20.508C19.1283 21.103 18.6443 21.587 18.0493 21.587H5.95134C5.35634 21.587 4.87234 21.103 4.87234 20.508V11.913C4.87234 11.318 5.35634 10.834 5.95134 10.834H7.04134H16.9583H18.0493Z" fill="white"/>
<path d="M12.0022 12.658C10.7772 12.658 9.78125 13.654 9.78125 14.879C9.78125 15.649 10.1752 16.348 10.8222 16.753V18.571C10.8222 19.222 11.3512 19.751 12.0022 19.751C12.6532 19.751 13.1823 19.222 13.1823 18.571V16.753C13.8292 16.348 14.2232 15.649 14.2232 14.879C14.2232 13.655 13.2272 12.658 12.0022 12.658ZM12.6632 16.22C12.5403 16.281 12.4633 16.406 12.4633 16.543V18.572C12.4633 18.826 12.2562 19.033 12.0022 19.033C11.7482 19.033 11.5412 18.826 11.5412 18.572V16.543C11.5412 16.406 11.4632 16.281 11.3412 16.22C10.8222 15.964 10.5002 15.45 10.5002 14.88C10.5002 14.052 11.1742 13.378 12.0022 13.378C12.8302 13.378 13.5042 14.052 13.5042 14.88C13.5042 15.45 13.1823 15.964 12.6632 16.22Z" fill="white"/>
</g>
<defs>
<clipPath id="clip0_95_53">
<rect width="24" height="22" fill="white"/>
</clipPath>
</defs>
</svg>
