<svg width="31" height="32" viewBox="0 0 31 32" fill="none" xmlns="http://www.w3.org/2000/svg">
<g clip-path="url(#clip0_95_144)">
<path d="M15.504 0.134644C20.4727 0.134644 24.547 4.20897 24.547 9.17767C24.547 14.1464 20.4727 18.1213 15.504 18.1213C10.5353 18.1213 6.46094 14.1464 6.46094 9.17767C6.46094 4.20897 10.5353 0.134644 15.504 0.134644ZM15.504 2.61899C11.9265 2.61899 9.04466 5.60021 9.04466 9.17767C9.04466 12.7551 11.9265 15.637 15.504 15.637C19.0814 15.637 22.0626 12.7551 22.0626 9.17767C22.0626 5.60021 19.0814 2.61899 15.504 2.61899Z" fill="black"/>
<path d="M15.5054 18.9164C23.5547 18.9164 30.2127 25.0776 31.0077 32.9281C31.2065 34.5181 28.7221 34.8162 28.5234 33.1268C27.8278 26.5682 22.2628 21.4007 15.5054 21.4007C8.74799 21.4007 3.18305 26.5682 2.48743 33.1268C2.38806 34.8162 -0.19566 34.5181 0.00308768 32.9281C0.798079 25.0776 7.45613 18.9164 15.5054 18.9164Z" fill="black"/>
</g>
<defs>
<clipPath id="clip0_95_144">
<rect width="31" height="32" fill="white"/>
</clipPath>
</defs>
</svg>
