<svg width="135" height="40" viewBox="0 0 135 40" fill="none" xmlns="http://www.w3.org/2000/svg">
<path d="M74.83 15.3684C72.9223 15.3684 71.3543 16.1001 70.4919 17.3807V16.1263C70.4919 15.8912 70.3351 15.7343 70.0999 15.7343H68.0092C67.774 15.7343 67.6172 15.8912 67.6172 16.1263V29.9508C67.6172 30.1859 67.774 30.3428 68.0092 30.3428H70.0999C70.3351 30.3428 70.4919 30.1859 70.4919 29.9508V21.7972C70.4919 19.5498 71.9031 18.0341 74.0199 18.0341C76.2674 18.0341 77.4434 19.393 77.4434 21.9541V29.9247C77.4434 30.1599 77.6001 30.3167 77.8354 30.3167H79.926C80.1612 30.3167 80.318 30.1599 80.318 29.9247V21.3007C80.318 17.6681 78.2274 15.3684 74.83 15.3684Z" fill="#9E9E9E"/>
<path d="M104.492 15.3423C101.409 15.3423 99.1612 16.9103 98.2726 19.602C97.9329 20.595 97.75 21.6143 97.75 23.3652C97.75 24.3583 97.9068 25.299 98.1681 26.2137L98.1943 26.2921C99.0566 29.0361 101.487 30.6564 104.649 30.6564C107.21 30.6564 109.458 29.6633 110.817 27.9384C110.973 27.7295 110.973 27.5204 110.764 27.3897L109.432 26.1875C109.249 26.0307 109.04 26.0569 108.83 26.2659C108.151 27.0499 106.923 27.9646 104.858 27.9646C102.924 27.9646 101.435 27.1284 100.86 25.3775C100.755 25.0638 100.703 24.6718 100.703 24.6195C100.703 24.5412 100.729 24.4889 100.834 24.4889H110.764C111.026 24.4889 111.209 24.3321 111.209 24.0969C111.209 21.6143 111.026 20.5689 110.712 19.602C109.824 16.9103 107.55 15.3423 104.492 15.3423ZM100.938 20.3337C101.435 18.818 102.872 17.9295 104.623 17.9295C106.348 17.9295 107.655 18.818 108.151 20.3337C108.308 20.8041 108.386 21.3267 108.386 22.0846C108.386 22.1892 108.203 22.2153 108.125 22.2153H100.781C100.703 22.2153 100.651 22.1892 100.651 22.0846C100.651 21.3267 100.808 20.778 100.938 20.3337Z" fill="#9E9E9E"/>
<path d="M118.265 27.8079H117.638C116.54 27.8079 116.148 27.3636 116.148 26.1353V9.51461C116.148 9.27941 116.148 9.09647 116.148 9.12261H113.665C113.43 9.12261 113.273 9.27941 113.273 9.51461V26.2922C113.273 29.2451 114.449 30.4996 117.167 30.4996H118.291C118.526 30.4996 118.683 30.3428 118.683 30.1076V28.1999C118.657 27.9647 118.5 27.8079 118.265 27.8079Z" fill="#9E9E9E"/>
<path d="M133.447 28.1999C132.872 28.1999 132.715 28.043 132.663 27.3374V20.7519C132.663 16.8581 130.912 15.2378 126.443 15.2378C124.274 15.2378 122.34 15.891 121.06 16.8841C120.903 17.041 120.877 17.2239 120.981 17.433L121.87 18.9487C121.974 19.1316 122.236 19.1578 122.445 19.001C123.516 18.243 124.666 17.7988 126.208 17.7988C129.266 17.7988 129.893 18.9748 129.893 20.8564C129.893 20.9348 129.867 20.987 129.762 20.987H126.182C122.131 20.987 119.988 22.6858 119.988 25.9001C119.988 28.8531 122.027 30.6825 125.346 30.6825C127.384 30.6825 129.03 30.003 129.893 28.827C129.971 30.0291 130.337 30.4734 131.905 30.4734H133.813V28.5134C133.813 28.3567 133.656 28.1999 133.447 28.1999ZM125.999 28.1999C123.934 28.1999 122.811 27.3636 122.811 25.8217C122.811 24.0708 123.961 23.339 126.626 23.339H129.762C129.841 23.339 129.893 23.3652 129.893 23.4697V25.1945C129.867 27.0761 128.429 28.1999 125.999 28.1999Z" fill="#9E9E9E"/>
<path d="M93.2528 9.07036C93.0175 9.07036 92.8608 9.22716 92.8608 9.46236V16.6751C92.129 15.8127 90.4826 15.3162 88.6011 15.3162C85.8048 15.3162 83.6096 16.7796 82.7733 19.2624C82.3813 20.4384 82.1722 21.5882 82.2507 23.13C82.3029 24.2276 82.3813 25.665 82.8517 26.8671C83.8186 29.402 85.8048 30.6825 88.4703 30.6825C90.5871 30.6825 92.2074 30.1337 92.8868 29.2191V29.9247C92.8868 30.1599 93.0437 30.3167 93.2788 30.3167H95.3695C95.6048 30.3167 95.7615 30.1599 95.7615 29.9247V9.46236C95.7615 9.22716 95.7615 9.04424 95.7615 9.07036H93.2528ZM92.8868 24.2799C92.8868 26.4751 91.1359 28.226 88.9931 28.226C86.8502 28.226 85.0991 26.6842 85.0991 23.914V23.4698C85.0991 23.3913 85.0991 23.313 85.0991 23.2345C85.0991 23.13 85.0991 23.0255 85.0991 22.921V22.2415C85.0991 19.4975 86.8502 17.7727 88.9931 17.7727C91.1359 17.7727 92.8868 19.5498 92.8868 21.7188V24.2799Z" fill="#9E9E9E"/>
<path d="M65.6845 29.5587L58.2104 11.1087C58.0536 10.6383 57.6094 9.802 56.6947 9.802C55.78 9.802 55.362 10.6121 55.1789 11.1087L47.7572 29.5587C47.7572 29.5587 47.4697 30.1859 47.522 30.2644C47.5743 30.3427 47.6788 30.395 47.7832 30.395H50.0829C50.3183 30.395 50.4749 30.2904 50.5795 30.029L52.4089 25.5342H56.7209H61.0067L62.8621 30.029C62.9667 30.2904 63.1235 30.395 63.3587 30.395H65.6584C65.789 30.395 65.8675 30.3427 65.9198 30.2644C65.972 30.1859 65.6845 29.5587 65.6845 29.5587ZM56.7209 22.6857H53.5064L56.7209 14.898L59.9352 22.6857H56.7209Z" fill="#9E9E9E"/>
<path d="M22.8508 8.18181L20.4726 5.25489L18.0945 8.18181L14.9062 6.45701C14.9062 6.45701 18.7479 1.93598 19.1399 1.46558C19.5318 0.995178 19.8977 0.550913 20.4726 0.52478C21.0737 0.550913 21.4134 0.995178 21.8054 1.46558C22.1974 1.93598 26.0389 6.45701 26.0389 6.45701L22.8508 8.18181Z" fill="#9E9E9E"/>
<path d="M14.9062 33.322C14.9062 33.322 18.7479 37.8431 19.1399 38.3134C19.5318 38.7577 19.8977 39.2281 20.4726 39.2543C21.0737 39.2281 21.4134 38.7838 21.8054 38.3134C22.1974 37.8431 26.0389 33.322 26.0389 33.322L22.8508 31.5972L20.4726 34.5242L18.0945 31.5972L14.9062 33.322Z" fill="#9E9E9E"/>
<path d="M13.8612 9.93268L10.1242 9.54068L10.5162 13.2777L7.01434 14.3231C7.01434 14.3231 6.51781 8.41696 6.46554 7.78976C6.41328 7.1887 6.36101 6.61376 6.75301 6.19564C7.17114 5.80364 7.74608 5.8559 8.34714 5.90817C8.9482 5.96044 14.8804 6.45696 14.8804 6.45696L13.8612 9.93268Z" fill="#9E9E9E"/>
<path d="M26.0391 33.3219C26.0391 33.3219 31.9453 33.8184 32.5724 33.8707C33.1735 33.923 33.7484 33.9753 34.1665 33.5833C34.5585 33.1651 34.5062 32.5902 34.454 31.9891C34.4017 31.3881 33.9053 25.4558 33.9053 25.4558L30.4295 26.5012L30.8215 30.2382L27.0844 29.8462L26.0391 33.3219Z" fill="#9E9E9E"/>
<path d="M8.7664 17.5113L5.83948 19.8895L8.7664 22.2675L7.04162 25.4558C7.04162 25.4558 2.52057 21.6143 2.05017 21.2223C1.57977 20.8303 1.13551 20.4644 1.10938 19.8895C1.13551 19.2884 1.57977 18.9486 2.05017 18.5566C2.52057 18.1646 7.04162 14.3231 7.04162 14.3231L8.7664 17.5113Z" fill="#9E9E9E"/>
<path d="M33.9045 25.4558C33.9045 25.4558 38.4517 21.6143 38.896 21.2223C39.3402 20.8303 39.8106 20.4644 39.8368 19.8895C39.8106 19.3146 39.3663 18.9486 38.896 18.5566C38.4256 18.1646 33.9045 14.3231 33.9045 14.3231L32.1797 17.5113L35.1067 19.8895L32.1797 22.2675L33.9045 25.4558Z" fill="#9E9E9E"/>
<path d="M10.5174 26.5011L10.1254 30.2382L13.8625 29.8462L14.9078 33.348C14.9078 33.348 9.00167 33.8446 8.37448 33.8968C7.77341 33.9491 7.19848 34.0014 6.78036 33.6094C6.38836 33.1913 6.44062 32.6163 6.49288 32.0153C6.54516 31.4142 7.04168 25.4819 7.04168 25.4819L10.5174 26.5011Z" fill="#9E9E9E"/>
<path d="M33.9053 14.3231C33.9053 14.3231 34.4017 8.41696 34.454 7.78976C34.5062 7.1887 34.5585 6.61376 34.1665 6.19564C33.7484 5.80364 33.1735 5.8559 32.5724 5.90817C31.9713 5.96044 26.0391 6.45696 26.0391 6.45696L27.0844 9.93268L30.8215 9.54068L30.4295 13.2777L33.9053 14.3231Z" fill="#9E9E9E"/>
</svg>
