<svg width="195" height="40" viewBox="0 0 195 40" fill="none" xmlns="http://www.w3.org/2000/svg">
<path d="M8.21903 17.71C8.3706 17.5963 8.48428 17.5205 8.52217 17.4447C11.3263 10.4724 16.9723 6.45575 23.3763 3.31061C27.5066 1.30227 31.8644 0.279158 36.4873 0.733877C39.9356 1.07491 41.5649 3.19693 40.3524 6.45575C39.4809 8.76723 38.1924 11.0029 36.7526 13.0491C35.3506 15.0196 33.5316 16.6868 31.7886 18.6195C32.0159 18.8088 32.3191 19.112 32.6601 19.4152C36.2221 22.4087 39.3673 25.7433 41.0724 30.1768C41.6029 31.5788 41.9061 33.1703 41.9818 34.6862C42.0954 37.0733 40.8071 38.627 38.4956 39.347C35.9568 40.1048 33.4938 39.7258 31.0686 38.8543C24.9299 36.6565 19.9659 32.8293 16.2145 27.5622C14.9261 25.7433 13.4483 25.516 11.4399 25.4023C12.842 30.0632 14.0546 34.6862 13.8651 39.5365C12.6146 29.7978 8.29481 21.4613 2.2698 13.8828C1.81509 13.3144 1.36037 12.6702 1.2088 11.9881C1.09512 11.4576 1.24669 10.624 1.62562 10.2829C1.89087 10.0556 2.8761 10.2072 3.21713 10.5103C4.01288 11.1924 4.65707 12.0639 5.22547 12.9355C6.32437 14.4891 7.2338 16.1185 8.21903 17.71ZM16.5555 12.746C20.7996 12.4428 24.3236 13.8828 27.6203 15.8911C28.3024 16.308 28.7571 15.9669 29.2498 15.588C31.7886 13.5039 33.9864 11.1545 35.7294 8.3504C36.2221 7.55465 36.6009 6.6831 36.8663 5.81156C37.3589 4.22005 36.5631 3.04536 34.8958 2.89378C33.9484 2.818 32.9254 2.7801 31.9781 2.96956C25.9909 4.25793 21.2164 7.66831 17.0102 12.026C16.8587 12.1397 16.8208 12.3292 16.5555 12.746ZM17.9954 25.478C19.6249 27.979 23.9068 31.5032 27.5066 33.0567C29.1361 33.7388 30.8791 34.3072 32.6223 34.5345C35.0094 34.8755 36.2221 33.322 35.6158 30.9727C34.5548 26.8802 31.8264 23.9245 28.7949 21.234C28.6056 21.0447 27.9614 21.1583 27.6583 21.3098C26.1424 22.0677 24.6646 22.9392 23.1111 23.6213C21.4438 24.3413 19.7386 24.8718 17.9954 25.478ZM24.4373 18.2783C24.4753 18.089 24.5131 17.8995 24.5509 17.71C22.6943 16.9522 20.8753 16.1185 18.9806 15.5501C17.9954 15.2469 16.7829 15.2469 15.7598 15.5501C15.0777 15.7396 14.244 16.5732 14.1304 17.2173C14.0167 17.8615 14.5851 18.8088 15.1156 19.3393C15.5324 19.7942 16.3282 20.0215 16.9723 20.0593C19.6249 20.173 22.0879 19.3393 24.4373 18.2783Z" fill="#9E9E9E"/>
<path d="M134.329 23.2044C133.798 24.9096 133.268 26.5769 132.737 28.2821C132.396 29.3431 131.979 30.2526 130.653 30.2904C129.251 30.3282 128.796 29.4189 128.417 28.3199C127.47 25.5917 126.485 22.8634 125.575 20.1351C125.045 18.5057 126.03 17.1416 127.47 17.5962C128.038 17.7857 128.645 18.4677 128.872 19.0741C129.554 20.8929 130.047 22.7876 130.691 24.9476C131.335 22.8254 131.941 21.0446 132.472 19.2256C132.775 18.2026 133.306 17.5204 134.518 17.5204C135.731 17.5204 136.261 18.1646 136.564 19.2256C137.095 21.0446 137.701 22.8254 138.383 24.9854C139.027 22.8634 139.52 21.0446 140.202 19.2636C140.429 18.6572 140.922 17.9752 141.49 17.6721C141.869 17.4826 142.855 17.6721 143.12 18.0509C143.499 18.5814 143.688 19.4531 143.499 20.0214C142.855 22.1812 142.021 24.3412 141.263 26.4632C140.96 27.2589 140.695 28.0926 140.392 28.8884C140.05 29.7977 139.406 30.3282 138.345 30.3282C137.284 30.2904 136.716 29.7221 136.413 28.7747C135.806 26.9179 135.238 25.0991 134.632 23.2422C134.518 23.2044 134.404 23.2044 134.329 23.2044Z" fill="#9E9E9E"/>
<path d="M152.895 28.9644C151.341 30.2527 149.598 30.5937 147.704 30.0632C145.998 29.5705 145.051 28.32 145.013 26.577C144.975 24.7202 145.771 23.3182 147.59 22.9014C149.295 22.5225 151.076 22.5982 152.895 22.4845C153.009 21.6889 152.592 20.931 151.455 20.7794C150.432 20.6657 149.371 20.7415 148.31 20.893C147.021 21.0825 146.264 20.8552 146.036 19.9079C145.771 18.9984 146.302 18.2027 147.552 18.0132C149.143 17.7479 150.773 17.4827 152.364 17.6722C154.979 17.9374 156.381 19.7562 156.419 22.4467C156.457 24.1897 156.419 25.9329 156.419 27.6759C156.419 28.699 156.419 29.6842 155.244 30.0632C154.183 30.48 153.463 29.9117 152.895 28.9644ZM151.076 24.6445C149.409 24.6445 148.537 25.2507 148.499 26.3117C148.499 27.2212 149.219 27.7895 150.356 27.7895C151.872 27.8275 153.084 26.8802 153.009 25.7055C152.933 24.3034 151.644 24.9855 151.076 24.6445Z" fill="#9E9E9E"/>
<path d="M175.328 25.137C175.632 27.1453 177.563 27.979 179.61 27.1453C179.952 26.9938 180.255 26.8043 180.558 26.6148C181.353 26.1602 182.073 26.236 182.603 26.9938C183.097 27.7138 182.868 28.4338 182.225 28.9263C180.217 30.48 177.943 30.6695 175.632 29.9117C173.358 29.1537 171.993 27.4865 171.615 25.0992C170.895 20.3247 174.343 16.7627 178.928 17.5205C181.618 17.9753 183.778 20.6657 183.665 23.356C183.627 24.4928 182.983 25.0992 181.77 25.0992C179.648 25.137 177.488 25.137 175.328 25.137ZM175.29 22.7118C176.92 22.7118 178.55 22.7118 180.178 22.7118C179.8 21.0447 179.003 20.3247 177.602 20.3625C176.313 20.4005 175.48 21.1962 175.29 22.7118Z" fill="#9E9E9E"/>
<path d="M164.224 25.7811C165.134 23.4317 165.892 21.3856 166.649 19.3392C166.763 19.0741 166.839 18.8087 166.953 18.5436C167.445 17.5962 168.24 17.2551 169.189 17.6719C170.135 18.0887 170.552 18.8846 170.135 19.8697C168.847 22.9391 167.52 26.0084 166.157 29.0399C165.778 29.8736 165.096 30.3282 164.111 30.2904C163.125 30.2524 162.519 29.7599 162.14 28.9262C160.852 26.0084 159.563 23.0527 158.313 20.0971C157.858 18.9604 158.199 18.0509 159.147 17.6341C160.132 17.2172 161.117 17.6341 161.572 18.8087C162.481 21.0066 163.277 23.2422 164.224 25.7811Z" fill="#9E9E9E"/>
<path d="M104.695 24.6823C104.771 28.2821 108.408 30.2905 111.516 28.6231C111.857 28.4338 112.16 28.1306 112.539 27.979C112.918 27.8275 113.334 27.8274 113.751 27.7516C113.6 28.1306 113.562 28.6231 113.259 28.8506C111.326 30.48 109.09 30.8968 106.779 29.9116C104.43 28.8885 103.293 26.918 103.255 24.3791C103.217 21.8403 104.202 19.7561 106.552 18.5815C110.189 16.8005 114.547 19.7941 114.282 23.8486C114.244 24.6445 113.827 24.7581 113.145 24.7581C110.796 24.7581 108.408 24.7581 106.059 24.7581C105.642 24.6823 105.187 24.6823 104.695 24.6823ZM112.842 23.4698C112.918 20.931 111.175 19.0741 108.787 19.112C106.514 19.15 104.657 21.1583 104.771 23.4698C107.461 23.4698 110.151 23.4698 112.842 23.4698Z" fill="#9E9E9E"/>
<path d="M52.6681 15.1334C52.6681 17.3691 52.6681 19.4153 52.6681 21.6131C55.1691 21.6131 57.5943 21.5751 60.0194 21.6509C60.6258 21.6509 61.4973 21.1963 61.6868 22.2573C61.6868 22.3709 60.5879 22.7878 59.9816 22.8256C57.5943 22.9014 55.2071 22.8636 52.5924 22.8636C52.5924 24.6824 52.5924 26.4254 52.5924 28.1686C52.5924 28.5476 52.6681 28.9264 52.5544 29.2674C52.4408 29.6086 52.1756 29.8738 51.9483 30.1769C51.7208 29.8738 51.2661 29.5706 51.2661 29.2296C51.1903 26.7666 51.2283 24.2656 51.2283 21.7646C51.2283 19.5668 51.2661 17.3691 51.2283 15.1713C51.2283 14.2997 51.5314 13.9208 52.4408 13.9208C55.5481 13.9587 58.6174 13.9208 61.7246 13.9587C62.0656 13.9587 62.4068 14.2997 62.7856 14.5271C62.4068 14.7544 62.0278 15.1334 61.6868 15.1334C58.7311 15.1334 55.7376 15.1334 52.6681 15.1334Z" fill="#9E9E9E"/>
<path d="M80.4838 28.7368C79.3091 29.2673 78.2481 30.0631 77.0735 30.2146C73.701 30.6695 71.6926 28.8885 71.579 25.4781C71.5031 23.394 71.541 21.3476 71.579 19.2636C71.579 18.9226 71.92 18.5436 72.1095 18.2026C72.3368 18.5436 72.7915 18.8846 72.7915 19.2636C72.8673 21.272 72.8295 23.2423 72.8295 25.2506C72.8295 27.6758 74.1178 29.1536 76.3156 29.2295C78.5133 29.3431 80.3323 27.6758 80.446 25.3265C80.5216 23.3181 80.446 21.3476 80.5216 19.3393C80.5216 18.9605 80.9006 18.5815 81.0901 18.2026C81.2796 18.5815 81.6585 18.9605 81.6585 19.3393C81.6963 22.5225 81.6963 25.6675 81.6585 28.8506C81.6585 29.2673 81.2796 29.6841 81.0901 30.101C80.9006 29.6841 80.6733 29.2673 80.4838 28.8506C80.446 28.7368 80.446 28.6231 80.4838 28.7368Z" fill="#9E9E9E"/>
<path d="M86.5841 19.8321C85.8641 19.3774 85.3714 19.0743 84.8789 18.7711C85.3714 18.5438 85.8641 18.2784 86.5841 17.9374C86.5841 17.2554 86.5082 16.3459 86.6219 15.4365C86.6599 15.0955 87.0387 14.7923 87.2661 14.4513C87.4556 14.7544 87.7966 15.0576 87.7966 15.3986C87.8724 16.2702 87.8346 17.1796 87.8346 18.2784C88.5544 18.2784 89.2366 18.2028 89.8807 18.3164C90.6007 18.4301 91.5481 17.7479 92.0027 18.8848C91.2827 19.0743 90.5627 19.3016 89.8429 19.3774C89.2366 19.4531 88.6302 19.3774 87.9102 19.3774C87.9102 22.1436 87.8346 24.8339 87.9482 27.4866C88.0239 28.7749 89.0471 29.1918 90.7902 29.0781C91.1691 29.0401 91.5859 29.2674 92.0027 29.3811C91.6617 29.6464 91.3586 30.0633 90.9796 30.1769C88.5166 30.8211 86.6599 29.3433 86.6599 26.8044C86.5461 24.3793 86.5841 21.9541 86.5841 19.8321Z" fill="#9E9E9E"/>
<path d="M97.1183 18.2784C98.0656 18.2784 98.9371 18.2027 99.7708 18.3164C100.301 18.3921 100.756 18.6952 101.286 18.8847C100.756 19.0742 100.263 19.3394 99.7328 19.3774C98.9371 19.4532 98.1034 19.4152 97.1939 19.4152C97.1939 22.1814 97.1183 24.8719 97.2319 27.5244C97.3076 28.8127 98.3308 29.2296 100.074 29.1159C100.453 29.0781 100.87 29.3054 101.286 29.4191C100.908 29.6842 100.566 30.1391 100.15 30.2147C97.7244 30.7452 95.9434 29.3432 95.9434 26.8424C95.9056 24.4172 95.9434 21.9921 95.9434 19.8321C95.2236 19.3774 94.7309 19.0742 94.2383 18.8089C94.7309 18.5816 95.2236 18.3164 95.9434 17.9754C95.9434 17.3311 95.8678 16.4596 95.9814 15.588C96.0193 15.2091 96.3983 14.8681 96.6256 14.4891C96.8151 14.8302 97.1561 15.1712 97.1939 15.5502C97.1561 16.3838 97.1183 17.2554 97.1183 18.2784Z" fill="#9E9E9E"/>
<path d="M118.791 20.7034C120.003 19.4909 121.14 18.3919 122.732 18.1267C123.11 18.0509 123.565 18.4677 123.982 18.6194C123.641 18.8845 123.376 19.3392 122.997 19.415C120.42 20.0214 118.904 21.7644 118.791 24.379C118.715 25.8949 118.828 27.3725 118.753 28.8884C118.715 29.2672 118.298 29.6462 118.071 30.063C117.881 29.684 117.54 29.2672 117.54 28.8884C117.502 25.7054 117.502 22.5602 117.54 19.3772C117.54 18.9982 117.881 18.6194 118.109 18.2025C118.336 18.6194 118.677 18.9604 118.791 19.415C118.866 19.8319 118.791 20.2865 118.791 20.7034Z" fill="#9E9E9E"/>
<path d="M66.3494 21.5753C66.3494 19.1501 66.3114 16.6869 66.3872 14.2618C66.3872 13.8829 66.7662 13.5039 66.9935 13.125C67.1829 13.5039 67.5619 13.8829 67.5619 14.2618C67.5997 19.1879 67.5997 24.0761 67.5619 29.0023C67.5619 29.3433 67.2209 29.6843 67.0692 30.0633C66.8419 29.7223 66.425 29.3433 66.425 29.0023C66.3114 26.5393 66.3494 24.0761 66.3494 21.5753Z" fill="#9E9E9E"/>
<path d="M193.629 17.7858C193.593 20.0215 191.811 21.8025 189.613 21.8025C187.339 21.8025 185.521 19.9835 185.559 17.6722C185.596 15.3985 187.491 13.5796 189.728 13.6175C191.924 13.6933 193.668 15.5122 193.629 17.7858ZM189.499 21.234C191.546 21.272 193.061 19.7942 193.099 17.7858C193.138 15.8153 191.508 14.148 189.576 14.1859C187.719 14.1859 186.089 15.8532 186.051 17.71C186.051 19.6047 187.604 21.1962 189.499 21.234Z" fill="#9E9E9E"/>
<path d="M191.207 19.7942C190.487 19.2257 189.767 18.6574 188.895 17.9374C188.782 18.8091 188.707 19.2637 188.594 20.0974C188.29 19.6047 188.1 19.4152 188.062 19.1879C188.024 18.4679 188.1 17.7101 188.024 16.9901C187.874 15.8154 188.442 15.3986 189.464 15.626C190.109 15.7775 190.942 16.0049 191.284 16.4975C191.51 16.8764 191.094 17.6722 190.867 18.5437C190.942 18.6952 191.207 19.1501 191.472 19.6047C191.397 19.6426 191.32 19.7184 191.207 19.7942ZM188.82 17.7481C189.502 17.5586 190.032 17.4449 190.564 17.2554C190.639 17.2174 190.639 16.6491 190.564 16.6112C190.032 16.4217 189.464 16.3081 188.82 16.1565C188.82 16.7627 188.82 17.1037 188.82 17.7481Z" fill="#9E9E9E"/>
</svg>
