<svg width="119" height="40" viewBox="0 0 119 40" fill="none" xmlns="http://www.w3.org/2000/svg">
<path d="M17.021 0.70363C17.5033 0.749561 17.9627 0.795491 18.4449 0.864388C21.1319 1.23183 23.5203 2.31122 25.5872 4.0566C25.8169 4.26329 26.0465 4.46998 26.2992 4.67666C26.414 4.76853 26.414 4.86039 26.3221 4.97522C25.4494 5.84791 24.5768 6.69763 23.7269 7.57032C23.5662 7.73108 23.4743 7.63922 23.3596 7.52439C22.0276 6.33019 20.5118 5.4575 18.7665 5.09004C15.2757 4.33219 12.0835 5.02114 9.3276 7.36363C7.23775 9.13198 6.0665 11.4056 5.69906 14.1155C5.4005 16.3661 5.72201 18.5478 6.77842 20.5688C8.54678 23.9677 11.3715 25.9198 15.2068 26.3332C17.3197 26.5629 19.3865 26.2643 21.2926 25.2767C23.9566 23.8989 25.5183 21.7401 25.9317 18.7545C25.9776 18.456 25.9317 18.41 25.5872 18.41C22.9232 18.433 20.2592 18.433 17.5952 18.456C17.2507 18.456 16.9062 18.456 16.5617 18.456C16.332 18.456 16.2403 18.3871 16.2403 18.1345C16.2403 16.9632 16.2403 15.792 16.2403 14.5978C16.2403 14.3911 16.3091 14.2992 16.5158 14.3221C16.5388 14.3221 16.5617 14.3221 16.5848 14.3221C20.9482 14.3221 25.3117 14.3221 29.6751 14.3221C29.9277 14.3221 30.0426 14.3911 30.0655 14.6437C30.5019 18.5249 29.9736 22.1764 27.5163 25.3457C25.4034 28.0785 22.5558 29.709 19.1339 30.2832C16.5158 30.7196 13.9208 30.5589 11.3945 29.6861C8.63864 28.7215 6.34209 27.114 4.50484 24.8633C2.71353 22.6817 1.65712 20.2014 1.2667 17.3996C1.1978 16.9402 1.17484 16.4809 1.12891 16.0217C1.12891 15.7231 1.12891 15.4246 1.12891 15.1489C1.15187 15.057 1.17484 14.9652 1.17484 14.8734C1.24373 12.8984 1.74897 11.0152 2.62166 9.2468C3.54029 7.36363 4.80339 5.75604 6.38801 4.37811C8.50085 2.56383 10.9352 1.41556 13.668 0.91032C14.2882 0.795492 14.9083 0.772527 15.5283 0.680664C16.0106 0.70363 16.5158 0.70363 17.021 0.70363Z" fill="#9E9E9E"/>
<path d="M91.7059 20.6378C91.7059 23.2559 91.7059 25.8969 91.7059 28.5149C91.7059 29.6862 91.66 30.8344 91.4304 31.9828C90.8562 34.7616 89.5013 36.9663 86.8373 38.2064C85.7808 38.7117 84.6326 38.9413 83.4613 39.0561C82.0145 39.1709 80.6137 39.0332 79.2817 38.505C76.9162 37.5863 75.2397 35.9558 74.1603 33.6593C74.0684 33.4755 74.1144 33.3837 74.2981 33.2918C75.3545 32.8554 76.4109 32.419 77.4674 31.9598C77.72 31.845 77.7888 31.9598 77.8807 32.1664C78.4549 33.3607 79.3276 34.2793 80.5447 34.8304C82.1523 35.5884 84.9541 35.3587 86.3321 33.7741C87.0669 32.9244 87.4113 31.9138 87.5722 30.8115C87.687 30.0766 87.641 29.3188 87.641 28.5839C87.641 28.492 87.664 28.4001 87.5492 28.3542C87.4573 28.3313 87.4114 28.423 87.3654 28.469C86.2631 29.6633 84.8623 30.3063 83.2777 30.4211C79.2586 30.6967 76.3649 28.8365 74.3899 25.4146C73.678 24.1744 73.3335 22.7965 73.2876 21.3726C73.1728 18.6857 74.0225 16.3433 75.8138 14.3452C77.2377 12.7606 78.9831 11.7501 81.0729 11.4056C83.048 11.0612 84.8852 11.3827 86.5617 12.554C86.8373 12.7606 87.0899 12.9673 87.3425 13.2199C87.4113 13.2889 87.4573 13.4496 87.5951 13.3806C87.7099 13.3347 87.6411 13.197 87.664 13.0821C87.664 12.8066 87.664 12.5309 87.664 12.2554C87.664 11.8649 87.6641 11.842 88.0544 11.842C89.1338 11.842 90.2362 11.842 91.3155 11.842C91.683 11.842 91.7059 11.8649 91.7289 12.2324C91.7289 14.0467 91.7289 15.838 91.7289 17.6523C91.7059 18.6628 91.7059 19.6503 91.7059 20.6378ZM77.5362 20.9593C77.5592 22.6129 78.1104 24.1056 79.3505 25.2998C81.5552 27.4355 85.1608 27.091 86.8832 24.5649C87.8707 23.1181 88.1233 21.5104 87.8707 19.788C87.641 18.2953 86.998 17.0321 85.7808 16.1136C83.8058 14.6209 81.0729 14.8275 79.3046 16.5729C78.0874 17.767 77.5592 19.2369 77.5362 20.9593Z" fill="#9E9E9E"/>
<path d="M31.7665 20.8905C31.7205 15.6543 35.7625 11.2909 41.389 11.2909C47.1074 11.2909 51.0575 15.7233 51.0346 20.9365C51.0116 26.2185 46.9008 30.5131 41.366 30.5131C35.8773 30.5131 31.6975 26.1955 31.7665 20.8905ZM46.7859 20.9365C46.7629 19.0762 46.1428 17.5145 44.7189 16.2973C42.6291 14.5291 39.2302 14.8046 37.4849 16.8945C35.7854 18.9155 35.5558 21.878 36.9107 24.1516C38.5413 26.8385 42.1239 27.5275 44.5813 25.6214C46.0969 24.4271 46.7399 22.8196 46.7859 20.9365Z" fill="#9E9E9E"/>
<path d="M52.5282 20.9133C52.4594 15.7231 56.4783 11.3137 62.1508 11.3137C67.8463 11.3137 71.7963 15.7231 71.7963 20.9363C71.7733 26.1954 67.6854 30.5358 62.1279 30.5129C56.6161 30.4899 52.4594 26.1954 52.5282 20.9133ZM56.7768 20.9363C56.7768 22.2224 57.1213 23.4166 57.8562 24.4729C59.7165 27.114 63.5287 27.4814 65.8253 25.1849C67.8003 23.2099 68.1218 19.7191 66.4912 17.4225C64.5162 14.6208 60.635 14.2992 58.2926 16.7795C57.2361 17.9507 56.7768 19.3516 56.7768 20.9363Z" fill="#9E9E9E"/>
<path d="M109.665 30.5358C107.047 30.4899 104.797 29.6861 102.959 27.9408C101.398 26.448 100.456 24.6108 100.135 22.475C99.8131 20.2703 100.089 18.1574 101.122 16.1595C102.546 13.4265 104.797 11.796 107.874 11.3826C110.745 10.9922 113.202 11.8419 115.2 13.9548C116.119 14.9423 116.808 16.0676 117.313 17.3308C117.428 17.6063 117.543 17.8819 117.634 18.1574C117.772 18.5249 117.772 18.5249 117.428 18.6628C116.188 19.168 114.947 19.6961 113.707 20.2014C110.883 21.3726 108.081 22.5438 105.256 23.6922C105.026 23.784 104.98 23.8529 105.095 24.0825C106.243 26.1265 108.081 26.8614 110.24 26.6317C111.87 26.471 113.087 25.6213 114.052 24.3352C114.304 24.0137 114.304 24.0137 114.626 24.2203C115.522 24.8174 116.417 25.4145 117.313 26.0117C117.543 26.1494 117.565 26.2643 117.405 26.4939C115.728 28.7446 113.524 30.0995 110.722 30.4211C110.308 30.5129 109.941 30.5589 109.665 30.5358ZM109.275 15.0801C109.137 15.0801 108.999 15.0571 108.862 15.0801C106.266 15.3556 104.245 17.6522 104.245 20.2703C104.245 20.5918 104.268 20.5918 104.567 20.454C107.162 19.3746 109.78 18.2952 112.375 17.2158C112.766 17.0551 112.789 17.0321 112.536 16.6647C112.513 16.6418 112.513 16.6188 112.49 16.5958C111.709 15.4934 110.561 15.126 109.275 15.0801Z" fill="#9E9E9E"/>
<path d="M94.1172 15.8839C94.1172 11.3597 94.1172 6.83546 94.1172 2.31126C94.1172 1.82898 94.1172 1.82898 94.5994 1.82898C95.7018 1.82898 96.8041 1.82898 97.8835 1.82898C98.2739 1.82898 98.2968 1.82898 98.2968 2.21939C98.2968 11.3367 98.2968 20.4541 98.2968 29.5943C98.2968 29.9618 98.2739 29.9618 97.9064 29.9618C96.7812 29.9618 95.6559 29.9618 94.5305 29.9618C94.1401 29.9618 94.1172 29.9618 94.1172 29.5484C94.1172 24.9783 94.1172 20.431 94.1172 15.8839Z" fill="#9E9E9E"/>
</svg>
