<svg width="136" height="40" viewBox="0 0 136 40" fill="none" xmlns="http://www.w3.org/2000/svg">
<path d="M1.81641 38.5224V11.3961H6.10225V38.5224H1.81641ZM28.4984 38.5224H24.1603V18.1123C24.1603 17.7987 24.108 17.4589 24.0297 17.0931C23.9251 16.7011 23.716 16.3352 23.4546 16.0478C23.1411 15.708 22.7229 15.4467 22.148 15.2115C21.5992 14.9763 20.8414 14.8718 19.9266 14.8718C18.986 14.8718 18.202 14.9763 17.6009 15.2115C16.9997 15.4467 16.5555 15.708 16.2157 16.0217C15.9283 16.2829 15.6931 16.6489 15.5886 17.0409C15.484 17.4067 15.4317 17.7203 15.4317 18.0078V38.5224H11.0937V17.276C11.0937 16.858 11.1721 16.3091 11.3028 15.6035C11.4334 14.924 11.7993 14.2184 12.4004 13.5129C13.0014 12.8334 13.8638 12.2323 15.0397 11.7097C16.1897 11.2131 17.7837 10.9518 19.8483 10.9518C21.9129 10.9518 23.4809 11.2131 24.6569 11.7097C25.8066 12.2062 26.6952 12.8073 27.2701 13.5129C27.8451 14.1923 28.2109 14.898 28.3415 15.6297C28.4723 16.3614 28.5506 16.884 28.5506 17.276L28.4984 38.5224ZM45.5111 34.6285V38.5224C43.4727 38.5224 41.8786 38.261 40.7026 37.7645C39.5527 37.2679 38.6642 36.6669 38.0632 35.9613C37.4621 35.2818 37.0962 34.5762 36.9655 33.8707C36.8349 33.165 36.7564 32.6162 36.7564 32.2242V14.6627H33.4898V10.9779H36.7564V4.07878H41.0946V10.9779H45.485V14.6627H41.0946V31.3358C41.0946 31.6493 41.1469 31.989 41.2253 32.3549C41.3036 32.7207 41.5127 33.0867 41.8002 33.4264C42.1138 33.7661 42.5319 34.0536 43.1069 34.2887C43.6556 34.5239 44.4135 34.6285 45.3282 34.6285H45.5111ZM57.7937 10.9779C59.8322 10.9779 61.4262 11.2393 62.6022 11.7358C63.7782 12.2323 64.6145 12.8334 65.2156 13.539C65.7905 14.2184 66.1563 14.924 66.2871 15.6558C66.4177 16.3614 66.496 16.9101 66.496 17.3021V19.7849C66.496 20.3858 66.3916 21.0392 66.1563 21.7709C65.9473 22.5027 65.4246 23.2867 64.5883 24.0969C64.2486 24.4889 63.8043 24.8286 63.3079 25.0376C62.8897 25.2206 62.4716 25.3773 62.0273 25.508C61.5831 25.6387 61.1126 25.717 60.6422 25.717H56.7745C55.886 25.717 55.102 26.0567 54.4225 26.7101C53.7431 27.3635 53.4033 28.1736 53.4033 29.1405V31.4664C53.4033 32.3027 53.5602 32.9559 53.8737 33.4525C54.0044 33.6876 54.1613 33.8967 54.3442 34.0796C54.5271 34.2627 54.7622 34.4194 55.102 34.5501C55.3633 34.6807 55.7293 34.8114 56.1473 34.9159C56.5654 35.0205 57.1142 35.0727 57.7937 35.0727C58.6822 35.0727 59.3879 34.9682 59.8844 34.7853C60.4071 34.6024 60.7468 34.4194 60.9559 34.2887C61.4002 33.949 61.7137 33.5309 61.8705 33.0344C62.0273 32.5378 62.1319 32.0413 62.1319 31.4664H66.47V32.7207C66.47 33.6616 66.2871 34.5239 65.8951 35.3079C65.5031 36.1181 64.902 36.7976 64.0919 37.3987C63.5168 37.8167 62.7068 38.1827 61.6876 38.4962C60.6684 38.8098 59.3617 38.9667 57.8199 38.9667C56.67 38.9667 55.6508 38.8621 54.8145 38.6791C54.0567 38.5224 53.2988 38.261 52.5933 37.9473C52.0182 37.6861 51.4956 37.3464 51.0253 36.9282C50.6593 36.5885 50.2935 36.1965 50.0061 35.7784C49.405 34.8898 49.1175 33.8445 49.1436 32.6685V17.276C49.1436 16.858 49.2221 16.3091 49.3527 15.6035C49.4833 14.924 49.8493 14.2184 50.4242 13.5129C50.9991 12.8334 51.8615 12.2323 53.0375 11.7097C54.2135 11.187 55.7553 10.9779 57.7937 10.9779ZM62.1319 18.5566V18.0861C62.1319 17.7726 62.0796 17.4329 62.0011 17.0669C61.8966 16.6749 61.6876 16.3091 61.4262 16.0217C61.1126 15.682 60.6945 15.4206 60.1196 15.1854C59.5708 14.9502 58.813 14.8457 57.8982 14.8457C56.9574 14.8457 56.1734 14.9502 55.5724 15.1854C54.9713 15.4206 54.5271 15.682 54.1873 15.9955C53.8999 16.2569 53.6647 16.6227 53.5602 17.0147C53.4556 17.3806 53.4033 17.6941 53.4033 17.9817V23.3912C53.4817 23.0776 53.6124 22.8163 53.8737 22.6333C54.109 22.4504 54.3964 22.2936 54.6839 22.1891C54.9974 22.0846 55.285 22.0061 55.5985 21.98C55.9122 21.9538 56.1473 21.9278 56.3042 21.9278H59.2049C59.9889 21.9278 60.6684 21.6403 61.2433 21.0654C61.8182 20.4904 62.1057 19.8109 62.1057 19.0269V18.5566H62.1319ZM71.8795 38.5224V0.838257H76.1654V38.4962H71.8795V38.5224ZM81.784 38.5224V11.3961H86.0698V38.5224H81.784ZM99.7375 10.9779C102.743 10.9779 104.938 11.579 106.323 12.7811C107.708 13.9832 108.414 15.4729 108.414 17.276V32.6685C108.414 33.2956 108.309 33.9752 108.074 34.733C107.865 35.4909 107.421 36.1704 106.767 36.7976C106.114 37.4247 105.226 37.9473 104.102 38.3656C102.978 38.7836 101.515 38.9927 99.7113 38.9927C97.9082 38.9927 96.4447 38.7836 95.321 38.3656C94.1973 37.9473 93.3087 37.4247 92.6555 36.7976C92.0021 36.1704 91.5839 35.4909 91.3487 34.7592C91.1397 34.0013 91.009 33.3218 91.009 32.6947V30.2642C91.009 28.9576 91.3487 27.7555 92.0021 26.684C92.6555 25.6126 93.6224 24.8547 94.8244 24.4104C95.4255 24.2013 96.1311 23.9661 96.9151 23.6787L99.1887 22.8686C99.9204 22.6072 100.548 22.372 101.096 22.1629C101.436 22.0323 101.776 21.9016 102.116 21.7971C102.246 21.7187 102.429 21.6403 102.664 21.5096C102.874 21.3789 103.109 21.196 103.292 20.9609C103.501 20.7256 103.684 20.4381 103.84 20.1246C103.997 19.8109 104.076 19.4451 104.076 19.0269V18.0338C104.076 17.6941 103.997 17.3283 103.867 16.9624C103.71 16.5704 103.474 16.2307 103.161 15.9432C102.821 15.6297 102.377 15.3683 101.802 15.1854C101.253 15.0024 100.522 14.898 99.6853 14.898C97.9866 14.898 96.8367 15.2638 96.2356 15.9694C95.6346 16.6749 95.3472 17.5374 95.3472 18.5304H91.009V17.276C91.009 16.4137 91.1658 15.6035 91.5055 14.8457C91.8192 14.0878 92.3418 13.4083 93.0735 12.8334C93.7792 12.2585 94.6938 11.8142 95.7913 11.4745C96.9152 11.1347 98.2218 10.9779 99.7375 10.9779ZM104.128 24.7501C104.076 25.0638 103.893 25.3512 103.605 25.5341C103.344 25.717 103.082 25.8216 102.847 25.9C102.325 26.0829 101.776 26.2658 101.201 26.501C100.6 26.7363 100.051 26.9192 99.5546 27.1021C98.9796 27.3112 98.4047 27.4941 97.8298 27.7293C97.4116 27.9123 97.0196 28.1475 96.6538 28.461C96.3141 28.7747 96.0266 29.1405 95.8175 29.5325C95.5562 29.9767 95.4255 30.4995 95.4255 31.1789C95.4255 32.4856 95.7392 33.4787 96.3402 34.1058C96.9413 34.7592 98.0911 35.0727 99.7636 35.0727C101.462 35.0727 102.612 34.733 103.239 34.0536C103.84 33.3741 104.154 32.4072 104.154 31.1789C104.128 31.1267 104.128 24.7501 104.128 24.7501Z" fill="#9E9E9E"/>
<path d="M128.771 30.6825C127.229 30.6825 125.792 30.0291 124.694 28.8793L116.959 20.569C114.712 18.1647 114.712 14.2447 116.959 11.8404C118.057 10.6644 119.494 10.0372 121.036 10.0372C122.578 10.0372 124.015 10.6906 125.113 11.8404L132.848 20.1508C135.095 22.555 135.095 26.475 132.848 28.8793C131.75 30.0553 130.313 30.6825 128.771 30.6825ZM117.926 12.7028L118.867 13.5652C117.534 14.9764 117.534 17.3807 118.867 18.8179L126.602 27.1283C127.804 28.4088 129.79 28.4088 130.993 27.1283C132.325 25.7171 132.325 23.313 130.993 21.8756L123.257 13.5652C122.656 12.938 121.872 12.5722 121.062 12.5722C120.252 12.5722 119.468 12.9119 118.867 13.5652L117.926 12.7028Z" fill="#9E9E9E"/>
<path d="M121.036 38.9405C119.494 38.9405 118.057 38.2872 116.959 37.1374C114.712 34.7331 114.712 30.8131 116.959 28.4088L124.694 20.0985C125.792 18.9225 127.229 18.2953 128.771 18.2953C130.313 18.2953 131.75 18.9487 132.848 20.0985C135.095 22.5027 135.095 26.4227 132.848 28.827L125.113 37.1374C124.015 38.2872 122.578 38.9405 121.036 38.9405ZM118.867 35.3865C119.468 36.0136 120.226 36.3794 121.062 36.3794C121.872 36.3794 122.656 36.0136 123.257 35.3865L130.993 27.076C132.325 25.6648 132.325 23.2605 130.993 21.8233C130.391 21.1699 129.607 20.8302 128.797 20.8302C127.987 20.8302 127.203 21.1961 126.602 21.8233L118.867 30.1336C117.534 31.5448 117.534 33.9491 118.867 35.3865Z" fill="#9E9E9E"/>
</svg>
