<svg width="202" height="40" viewBox="0 0 202 40" fill="none" xmlns="http://www.w3.org/2000/svg">
<g clip-path="url(#clip0_82_196)">
<path d="M0.562978 11.9959C0.681599 11.9168 0.72114 11.7587 0.760681 11.6005C0.997924 11.0865 1.39333 10.6911 1.90736 10.4934C2.10506 10.4143 2.30276 10.3748 2.54002 10.3748C2.69817 10.3748 2.8168 10.3748 2.97496 10.3748C14.3231 10.3748 25.6713 10.3748 37.0195 10.3748C37.2567 10.3748 37.4939 10.3748 37.6917 10.4143C38.6407 10.5725 39.3129 11.3633 39.4315 12.3518C39.4315 12.4309 39.4315 12.51 39.4315 12.589C39.4315 13.7357 39.4315 14.8429 39.4315 15.9895C39.4315 16.4245 39.3523 16.8594 39.0757 17.2548C38.6802 17.848 38.1266 18.1644 37.3753 18.2038C37.2567 18.2038 37.0986 18.2038 36.98 18.2038C25.6713 18.2038 14.3627 18.2038 3.0145 18.2038C2.89588 18.2038 2.73772 18.2038 2.61909 18.2038C1.7492 18.1644 1.15609 17.7689 0.760681 16.9781C0.681599 16.8199 0.681599 16.6617 0.523438 16.5431C0.562977 15.001 0.562978 13.4985 0.562978 11.9959Z" fill="#9E9E9E"/>
<path d="M0.5625 22.1185C0.681121 22.0393 0.720662 21.8812 0.760203 21.7626C0.918366 21.4066 1.11607 21.1299 1.43239 20.8927C1.78826 20.6159 2.18366 20.4972 2.61862 20.4578C2.73724 20.4578 2.8954 20.4578 3.01403 20.4578C13.69 20.4578 24.3264 20.4578 35.0024 20.4578C35.2001 20.4578 35.4373 20.4578 35.6351 20.4972C36.6631 20.6553 37.3354 21.4463 37.4144 22.5138C37.4144 22.5929 37.4144 22.6324 37.4144 22.7115C37.4144 23.8583 37.4144 24.9654 37.4144 26.112C37.4144 26.6261 37.2563 27.14 36.9004 27.5355C36.505 28.0099 36.0305 28.2472 35.4373 28.2868C35.2792 28.2868 35.121 28.2868 34.9629 28.2868C24.2869 28.2868 13.6505 28.2868 2.97448 28.2868C2.85585 28.2868 2.73724 28.2868 2.61862 28.2868C1.74872 28.2472 1.11607 27.8122 0.760203 27.0214C0.681121 26.9028 0.681121 26.7447 0.5625 26.6261C0.5625 25.1235 0.5625 23.6209 0.5625 22.1185Z" fill="#9E9E9E"/>
<path d="M35.8718 0.29184C35.951 0.331381 36.0299 0.37092 36.1091 0.410461C36.9395 0.805868 37.3745 1.43852 37.4139 2.34796C37.4139 2.62474 37.4139 2.90152 37.4139 3.1783C37.4139 4.00865 37.4139 4.87855 37.4139 5.70891C37.4139 5.90662 37.4139 6.14385 37.3348 6.34156C37.1371 7.33008 36.3068 8.00227 35.3183 8.00227C35.1997 8.00227 35.0414 8.00227 34.9228 8.00227C24.2865 8.00227 13.65 8.00227 3.05308 8.00227C2.93445 8.00227 2.81585 8.00227 2.69722 8.00227C1.78778 7.96272 1.15513 7.56731 0.799265 6.73697C0.720183 6.61834 0.720183 6.46018 0.601562 6.34156C0.601562 4.83902 0.601562 3.33648 0.601562 1.83392C0.720183 1.75484 0.759724 1.59668 0.799265 1.43852C1.03651 0.924492 1.39237 0.568624 1.86685 0.331381C1.98548 0.29184 2.10411 0.212758 2.18319 0.173218C13.4127 0.29184 24.6423 0.29184 35.8718 0.29184Z" fill="#9E9E9E"/>
<path d="M201.349 27.6934C201.191 28.0889 200.874 28.247 200.478 28.2867C200.4 28.2867 200.281 28.2867 200.201 28.2867C198.975 28.2867 197.711 28.2867 196.485 28.2867C196.407 28.2867 196.287 28.2867 196.208 28.2867C195.774 28.247 195.417 28.0889 195.181 27.7331C195.101 27.6145 195.022 27.4959 194.942 27.4167C193.994 25.9933 193.045 24.5698 192.095 23.1463C191.741 22.6322 191.384 22.0787 191.068 21.5647C191.028 21.4856 190.949 21.4065 190.871 21.2879C190.831 21.2087 190.751 21.1693 190.673 21.1693C190.474 21.1298 190.238 21.1298 190.04 21.1693C189.921 21.1693 189.881 21.2484 189.841 21.367C189.841 21.4856 189.841 21.6437 189.841 21.7623C189.841 23.5021 189.841 25.2025 189.841 26.9421C189.841 27.1004 189.841 27.2585 189.841 27.3771C189.763 27.9307 189.447 28.2867 188.854 28.2867C188.379 28.2867 187.866 28.2867 187.391 28.2867C186.678 28.2867 185.967 28.2867 185.255 28.2867C185.019 28.2867 184.781 28.247 184.582 28.0889C184.346 27.8912 184.227 27.654 184.188 27.3771C184.188 27.2585 184.188 27.1004 184.188 26.9818C184.188 19.39 184.188 11.7586 184.188 4.16677C184.188 4.04816 184.188 3.88999 184.188 3.77138C184.227 3.25735 184.622 2.90149 185.137 2.86194C185.215 2.86194 185.334 2.86194 185.414 2.86194C186.481 2.86194 187.549 2.86194 188.617 2.86194C188.695 2.86194 188.814 2.86194 188.894 2.86194C189.407 2.90149 189.723 3.2178 189.803 3.73183C189.841 3.88999 189.841 4.04816 189.841 4.20632C189.841 6.46015 189.841 8.71396 189.841 10.9678C189.841 12.6285 189.841 14.2892 189.841 15.9499C189.841 16.0685 189.841 16.2267 189.841 16.3453C189.841 16.4639 189.921 16.543 190.04 16.543C190.08 16.543 190.158 16.543 190.198 16.543C190.673 16.543 190.673 16.543 190.949 16.1872C191.937 14.8032 192.927 13.4193 193.914 12.0749C194.153 11.7586 194.389 11.4423 194.626 11.0864C194.904 10.691 195.259 10.5328 195.734 10.4933C195.814 10.4933 195.932 10.4933 196.01 10.4933C197.196 10.4933 198.344 10.4933 199.53 10.4933C199.688 10.4933 199.885 10.4933 200.043 10.5328C200.44 10.6515 200.636 10.9282 200.676 11.3236C200.676 11.6004 200.598 11.8772 200.44 12.1145C200.281 12.3517 200.123 12.5494 199.965 12.7471C198.857 14.2101 197.751 15.6336 196.603 17.0966C196.367 17.4129 196.09 17.7687 195.852 18.0851C195.814 18.1642 195.734 18.2433 195.694 18.3223C195.615 18.4014 195.655 18.4806 195.694 18.5992C195.774 18.7178 195.814 18.7969 195.892 18.9155C196.96 20.4971 198.066 22.0392 199.134 23.6207C199.807 24.5698 200.478 25.5583 201.111 26.5074C201.229 26.6654 201.309 26.8235 201.387 26.9818C201.349 27.1399 201.349 27.4167 201.349 27.6934Z" fill="#9E9E9E"/>
<path d="M0.5625 32.2012C0.681121 32.1223 0.720662 31.964 0.760203 31.8454C1.07653 31.1337 1.59056 30.7383 2.34184 30.5802C2.53954 30.5405 2.6977 30.5405 2.8954 30.5405C4.16071 30.5405 5.46554 30.5405 6.73085 30.5405C11.3966 30.5405 16.0624 30.5405 20.7678 30.5405C21.005 30.5405 21.2818 30.5405 21.5191 30.6197C22.4285 30.8569 23.1006 31.6477 23.1403 32.5967C23.1403 33.8224 23.1403 35.0877 23.1403 36.3136C23.1403 37.1438 22.7053 37.7765 21.954 38.1324C21.8354 38.2115 21.7168 38.251 21.5982 38.2904C15.1135 38.2904 8.62879 38.2904 2.10458 38.2904C2.06505 38.251 1.98596 38.2115 1.94643 38.2115C1.35331 37.9346 0.957905 37.5393 0.720662 36.9461C0.681121 36.8671 0.64158 36.788 0.5625 36.7089C0.5625 35.2063 0.5625 33.7038 0.5625 32.2012Z" fill="#9E9E9E"/>
<path d="M51.8851 23.1859C51.8851 19.3901 51.8851 15.5941 51.8851 11.7982C51.8851 11.64 51.8851 11.4819 51.8851 11.3633C51.8455 10.9283 52.3201 10.3352 52.9131 10.3748C53.7039 10.3748 54.5343 10.3748 55.3251 10.3748C55.681 10.3748 55.9973 10.3748 56.3531 10.3748C57.0253 10.3748 57.3813 10.6911 57.4999 11.3633C57.4999 11.4423 57.4999 11.5214 57.5394 11.6005C57.5394 11.64 57.6185 11.6796 57.658 11.6401C57.7371 11.6005 57.7766 11.5214 57.8557 11.4819C58.8443 10.6515 59.9514 10.1375 61.2166 9.97935C62.6797 9.78165 64.1427 9.90027 65.5662 10.4538C66.5942 10.8492 67.5432 11.4028 68.334 12.1541C69.9156 13.6171 70.8251 15.4755 71.181 17.6108C71.2996 18.3619 71.339 19.0737 71.2996 19.825C71.2204 21.2088 70.9437 22.5928 70.311 23.8581C69.4411 25.6374 68.1759 26.9819 66.4361 27.8913C65.3684 28.4449 64.2218 28.7215 63.0356 28.8007C61.6912 28.8798 60.4258 28.6821 59.2001 28.2076C58.7651 28.0494 58.3698 27.8122 57.9743 27.4958C57.9349 27.4563 57.8952 27.4169 57.8557 27.3772C57.7371 27.2982 57.658 27.3377 57.6185 27.4563C57.6185 27.5749 57.6185 27.733 57.6185 27.8518C57.6185 30.1055 57.6185 32.3593 57.6185 34.6132C57.6185 34.7713 57.6185 34.969 57.5789 35.1273C57.5394 35.6808 57.065 36.0762 56.5509 36.0367C55.5229 36.0367 54.4947 36.0367 53.4667 36.0367C53.269 36.0367 53.0712 36.0367 52.8737 36.0367C52.3596 35.997 52.0037 35.6808 51.9641 35.1668C51.9641 35.0087 51.9641 34.8504 51.9641 34.6923C51.8851 30.8568 51.8851 27.0214 51.8851 23.1859ZM57.4999 19.3109C57.4999 19.6273 57.5394 19.904 57.5789 20.1808C57.9349 21.7229 58.8048 22.7509 60.2677 23.265C60.5444 23.3836 60.8608 23.4231 61.1771 23.4628C61.889 23.5417 62.5611 23.4231 63.1937 23.1464C64.3404 22.5928 65.0521 21.6835 65.3684 20.4972C65.5267 19.9436 65.5267 19.3504 65.487 18.7968C65.3684 17.848 65.0126 16.978 64.3008 16.3454C63.2728 15.3569 62.047 15.001 60.663 15.2778C59.7537 15.4755 58.9629 15.9895 58.3698 16.7013C57.7766 17.4525 57.4999 18.3619 57.4999 19.3109Z" fill="#9E9E9E"/>
<path d="M95.9341 10.3748C96.5668 10.3748 97.16 10.3748 97.7925 10.3748C97.9111 10.3748 97.9902 10.3748 98.1088 10.3748C98.4647 10.4143 98.7415 10.5725 98.9393 10.8888C99.0182 11.0469 99.0974 11.2447 99.1368 11.4028C99.7301 13.4194 100.323 15.3964 100.877 17.4131C101.312 18.9155 101.747 20.4181 102.182 21.9207C102.182 21.9602 102.221 22.0393 102.221 22.0788C102.3 22.316 102.34 22.316 102.577 22.3557C102.893 22.3557 102.933 22.316 103.012 22.0393C103.289 21.0111 103.566 19.9831 103.842 18.9551C104.514 16.5036 105.187 14.0125 105.859 11.561C105.898 11.3633 105.978 11.1656 106.096 11.0074C106.333 10.6516 106.65 10.4539 107.045 10.4143C107.124 10.4143 107.164 10.4143 107.243 10.4143C108.508 10.4143 109.734 10.4143 110.999 10.4143C111.157 10.4143 111.315 10.4143 111.474 10.4539C111.869 10.5725 112.106 10.8493 112.146 11.2447C112.185 11.4819 112.106 11.7191 112.067 11.9564C111.83 12.6681 111.632 13.3799 111.395 14.0916C110.564 16.7013 109.773 19.3504 108.943 21.9602C108.508 23.3442 108.073 24.7675 107.638 26.1515C107.124 27.7331 106.65 29.3543 106.136 30.9358C105.898 31.7268 105.582 32.5176 105.108 33.2292C104.435 34.2969 103.605 35.1668 102.498 35.7598C101.707 36.1948 100.837 36.432 99.9278 36.5506C99.4532 36.5903 98.9788 36.6298 98.4647 36.6298C97.16 36.5506 95.8946 36.3134 94.748 35.6807C94.2734 35.404 93.7989 35.1271 93.4035 34.7318C92.9687 34.3364 92.929 33.7828 93.1662 33.3084C93.2454 33.1898 93.3245 33.0315 93.4035 32.9129C93.7595 32.399 94.0758 31.9244 94.4316 31.4104C94.5106 31.3313 94.5502 31.2522 94.6294 31.1336C95.0247 30.6197 95.4596 30.4614 96.0923 30.6591C96.2901 30.6986 96.4481 30.8172 96.6064 30.8964C96.804 31.015 97.0017 31.1732 97.2389 31.2918C97.6344 31.4894 98.0694 31.6477 98.5043 31.6477C99.2556 31.6477 99.8487 31.3313 100.244 30.7383C100.323 30.58 100.402 30.4219 100.481 30.2637C100.679 29.7498 100.877 29.1962 101.035 28.6821C101.074 28.603 101.074 28.5635 101.074 28.4844C101.074 28.4052 101.035 28.3658 100.995 28.3263C100.877 28.3263 100.798 28.3263 100.679 28.3263C100.165 28.3263 99.6904 28.3263 99.1765 28.3263C98.4647 28.3263 98.1088 28.0494 97.8716 27.4167C97.5553 26.4678 97.2389 25.5584 96.9226 24.6094C96.4876 23.2651 96.0132 21.9207 95.5782 20.5762C94.6688 17.8084 93.7595 15.0406 92.8104 12.2332C92.7709 12.075 92.7313 11.9168 92.6523 11.7191C92.6127 11.6401 92.6127 11.561 92.6127 11.4819C92.5732 10.8888 92.8895 10.4934 93.4826 10.4143C93.6012 10.3748 93.7595 10.4143 93.8781 10.4143C94.6294 10.3748 95.2619 10.3748 95.9341 10.3748Z" fill="#9E9E9E"/>
<path d="M157.498 11.561C157.577 11.5215 157.577 11.4424 157.577 11.4029C157.735 10.6516 158.051 10.3748 158.842 10.3748C159.791 10.3748 160.74 10.3748 161.729 10.3748C161.887 10.3748 162.005 10.3748 162.164 10.3748C162.757 10.3748 163.113 10.7307 163.231 11.2843C163.271 11.4029 163.271 11.5611 163.271 11.6797C163.271 16.7804 163.271 21.8812 163.271 26.9819C163.271 27.14 163.271 27.2983 163.231 27.4564C163.113 27.8913 162.757 28.2077 162.322 28.2473C162.282 28.2473 162.203 28.2473 162.164 28.2473C161.017 28.2473 159.91 28.2473 158.763 28.2473C158.091 28.2473 157.774 27.9704 157.616 27.3377C157.616 27.2983 157.616 27.2191 157.577 27.1797C157.537 27.1005 157.498 27.1005 157.458 27.14C157.34 27.2191 157.26 27.2983 157.181 27.3774C156.351 28.0891 155.362 28.4845 154.295 28.6821C153.82 28.7612 153.346 28.8009 152.832 28.8009C151.962 28.8009 151.092 28.6821 150.262 28.4054C148.799 27.931 147.533 27.1797 146.505 26.0725C145.833 25.3607 145.28 24.5304 144.845 23.6605C144.331 22.672 144.054 21.6044 143.975 20.4972C143.856 18.9946 143.935 17.4922 144.41 16.0687C144.805 14.8825 145.438 13.8149 146.268 12.8659C147.731 11.2447 149.51 10.2957 151.685 9.97942C152.713 9.82126 153.741 9.86079 154.73 10.098C155.758 10.3353 156.667 10.7702 157.419 11.5215C157.379 11.5215 157.419 11.561 157.498 11.561ZM157.537 19.2715C157.537 19.0737 157.537 18.8365 157.498 18.6388C157.181 16.4245 155.046 14.7639 152.753 15.2779C151.883 15.4756 151.132 15.9105 150.539 16.6223C149.55 17.848 149.352 19.1924 149.787 20.695C150.301 22.5534 152.199 23.7791 154.058 23.5023C154.928 23.3837 155.639 23.0278 156.272 22.4348C157.142 21.6044 157.537 20.5367 157.537 19.2715Z" fill="#9E9E9E"/>
<path d="M86.0094 27.061C85.9303 27.061 85.8908 27.1005 85.8511 27.14C84.9417 27.9704 83.8741 28.4845 82.6484 28.6821C80.1969 29.0775 77.9826 28.524 76.0056 27.061C75.0171 26.3492 74.2658 25.4398 73.6331 24.3721C73.0005 23.3047 72.6051 22.1579 72.4073 20.9321C72.1701 19.2714 72.2492 17.6108 72.8028 16.0291C73.5144 13.973 74.7798 12.3123 76.6383 11.2052C77.7058 10.533 78.8525 10.1376 80.1177 9.9794C81.2645 9.86077 82.3717 9.86077 83.4788 10.2166C84.3091 10.4539 85.0604 10.8888 85.7325 11.4424C85.8117 11.4819 85.8511 11.561 85.9303 11.6006C85.9697 11.6401 86.0094 11.6006 86.0094 11.561C86.0094 11.4819 86.0094 11.4029 86.0489 11.3238C86.128 10.8097 86.5233 10.4539 87.0374 10.4143C87.2746 10.4143 87.5118 10.4143 87.749 10.4143C88.619 10.4143 89.4889 10.4143 90.3588 10.4143C90.4774 10.4143 90.5565 10.4143 90.6751 10.4143C91.1892 10.4539 91.5845 10.8493 91.6242 11.3633C91.6242 11.4819 91.6242 11.561 91.6242 11.6796C91.6242 16.8199 91.6242 21.9601 91.6242 27.061C91.6242 27.1796 91.6242 27.2586 91.6242 27.3774C91.5845 27.8913 91.2287 28.2868 90.6751 28.2868C90.3193 28.2868 90.003 28.2868 89.6471 28.2868C88.8564 28.2868 88.0654 28.2868 87.2746 28.2868C87.156 28.2868 87.0769 28.2868 86.9583 28.2868C86.4444 28.2471 86.0884 27.8913 86.0094 27.3774C86.0489 27.2586 86.0884 27.14 86.0094 27.061ZM82.0553 15.1592C81.8181 15.1592 81.5412 15.1988 81.304 15.2383C79.9597 15.5546 79.0106 16.3059 78.4571 17.5713C78.1012 18.3224 78.0221 19.1528 78.1407 19.9831C78.2593 20.853 78.6153 21.644 79.2478 22.2765C80.1969 23.2255 81.304 23.6605 82.6484 23.4628C83.6369 23.3441 84.4673 22.8697 85.0998 22.1184C86.207 20.7344 86.3652 19.1923 85.7325 17.6108C85.0998 16.0291 83.5183 15.1592 82.0553 15.1592Z" fill="#9E9E9E"/>
<path d="M120.489 9.86072C121.28 9.86072 122.229 9.93981 123.138 10.1375C124.127 10.3352 125.076 10.7306 125.946 11.2051C126.381 11.4424 126.816 11.6796 127.211 11.9959C127.29 12.0355 127.369 12.1145 127.409 12.1936C127.923 12.7077 127.962 13.3403 127.527 13.8939C127.369 14.0916 127.211 14.2497 127.053 14.4474C126.736 14.8033 126.42 15.1592 126.104 15.515C125.708 15.9895 125.194 16.1081 124.601 15.95C124.364 15.8709 124.166 15.7918 123.969 15.6732C123.376 15.3173 122.743 15.001 122.11 14.7242C121.517 14.487 120.884 14.3684 120.212 14.3684C119.777 14.3684 119.342 14.4079 118.907 14.6056C118.71 14.6847 118.512 14.8033 118.393 14.9615C118.156 15.2382 118.117 15.5941 118.354 15.8709C118.512 16.0686 118.749 16.2268 119.026 16.3058C119.342 16.4245 119.659 16.5036 120.015 16.5826C121.082 16.7803 122.189 16.978 123.257 17.2153C124.324 17.4525 125.353 17.8085 126.262 18.4806C127.053 19.0342 127.685 19.7458 128.041 20.6949C128.358 21.5252 128.437 22.3556 128.318 23.2255C128.239 23.8582 128.041 24.4907 127.765 25.0839C127.369 25.8351 126.855 26.4678 126.223 26.9818C125.115 27.8121 123.889 28.3262 122.545 28.6031C121.833 28.7612 121.082 28.8006 120.331 28.8006C118.631 28.8006 116.97 28.5634 115.428 27.8518C114.835 27.5749 114.242 27.2982 113.728 26.9424C113.332 26.705 112.976 26.3886 112.66 26.0328C112.541 25.9142 112.423 25.7561 112.344 25.5978C112.027 25.0443 112.067 24.4512 112.462 23.9768C112.581 23.8185 112.739 23.6999 112.858 23.5813C113.332 23.2255 113.807 22.8697 114.281 22.5137C114.439 22.3951 114.637 22.2765 114.835 22.1973C115.112 22.0787 115.349 22.0787 115.625 22.1578C115.981 22.2765 116.258 22.4742 116.535 22.7114C117.009 23.1069 117.524 23.4232 118.077 23.7394C119.026 24.2535 120.054 24.3721 121.122 24.2535C121.596 24.214 121.992 24.0558 122.347 23.6605C122.506 23.5022 122.585 23.3045 122.585 23.0672C122.585 22.7905 122.466 22.5533 122.229 22.3951C121.992 22.2765 121.754 22.1578 121.517 22.0787C120.964 21.9206 120.41 21.802 119.856 21.6834C118.987 21.4857 118.077 21.3276 117.207 21.1298C116.298 20.9321 115.428 20.5763 114.677 20.0622C113.293 19.1132 112.62 17.8085 112.541 16.1477C112.502 15.5546 112.541 15.001 112.7 14.4079C112.897 13.6962 113.253 13.024 113.728 12.4704C114.4 11.6401 115.309 11.0469 116.298 10.612C117.089 10.2561 117.959 10.0584 118.828 9.93981C119.303 9.86072 119.817 9.86072 120.489 9.86072Z" fill="#9E9E9E"/>
<path d="M174.383 9.8608C175.648 9.82127 176.794 10.019 177.902 10.4144C179.088 10.8098 180.116 11.482 181.025 12.3123C181.5 12.7473 181.895 13.1822 182.251 13.6962C182.291 13.7753 182.37 13.8544 182.41 13.9335C182.844 14.6057 182.568 15.2383 182.173 15.6337C182.133 15.6733 182.053 15.7524 181.975 15.7919C181.302 16.3059 180.63 16.82 179.957 17.334C179.286 17.8481 178.811 17.7689 178.258 17.2945C178.138 17.2154 178.06 17.0967 177.982 17.0177C177.625 16.6223 177.23 16.2269 176.794 15.9105C176.201 15.436 175.49 15.2383 174.778 15.1988C173.552 15.1197 172.485 15.5547 171.615 16.4246C171.101 16.9386 170.784 17.5712 170.626 18.283C170.429 19.1133 170.468 19.9832 170.745 20.774C171.259 22.2371 172.287 23.1465 173.829 23.4232C174.462 23.5418 175.095 23.4629 175.728 23.3046C176.321 23.1465 176.794 22.7907 177.23 22.3952C177.507 22.1183 177.783 21.8416 178.06 21.5648C178.258 21.3672 178.455 21.2089 178.693 21.0903C179.01 20.9322 179.286 20.9322 179.603 21.0903C179.721 21.1695 179.879 21.2486 179.997 21.3275C180.67 21.8416 181.342 22.3161 182.015 22.8302C182.211 22.9882 182.37 23.186 182.528 23.3837C182.766 23.7792 182.766 24.214 182.528 24.6095C182.33 24.9258 182.133 25.2025 181.895 25.4794C181.065 26.4679 180.037 27.2192 178.89 27.8122C178.02 28.2472 177.11 28.4844 176.163 28.6427C175.648 28.7216 175.135 28.7216 174.62 28.7613C174.185 28.8008 173.75 28.7216 173.315 28.6822C172.089 28.5635 170.903 28.2077 169.835 27.6145C167.779 26.5074 166.277 24.8467 165.447 22.6324C165.13 21.7625 164.972 20.8926 164.893 19.9832C164.774 18.5994 164.972 17.2549 165.447 15.9501C166.277 13.7753 167.7 12.1146 169.756 11.0075C170.705 10.4935 171.734 10.1376 172.801 9.93989C173.276 9.90035 173.869 9.8608 174.383 9.8608Z" fill="#9E9E9E"/>
<path d="M131.994 19.3901C131.994 18.2039 131.994 17.0177 131.994 15.8315C131.994 15.2383 131.994 15.2383 131.361 15.2383C131.005 15.2383 130.649 15.2383 130.294 15.2383C130.135 15.2383 129.977 15.2384 129.819 15.1988C129.345 15.1197 128.989 14.7639 128.949 14.2498C128.949 14.1708 128.949 14.0521 128.949 13.9731C128.949 13.1822 128.949 12.3914 128.949 11.6006C128.949 11.5215 128.949 11.4424 128.949 11.3634C128.989 10.8098 129.384 10.4144 129.938 10.3748C130.373 10.3748 130.808 10.3748 131.282 10.3748C131.44 10.3748 131.598 10.3748 131.717 10.3748C131.875 10.3748 131.915 10.2958 131.954 10.1376C131.954 10.019 131.954 9.90036 131.954 9.78173C131.954 8.63505 131.954 7.48837 131.954 6.34169C131.954 6.18354 131.954 6.02536 131.954 5.90674C132.033 5.43225 132.35 5.11594 132.824 4.99731C132.943 4.95776 133.101 4.95776 133.219 4.95776C134.287 4.95776 135.355 4.95776 136.422 4.95776C136.581 4.95776 136.739 4.95776 136.897 4.99731C137.292 5.11594 137.53 5.35317 137.648 5.78813C137.688 5.98583 137.688 6.18354 137.688 6.38124C137.688 7.52792 137.688 8.63505 137.688 9.78173C137.688 9.90036 137.688 10.019 137.688 10.1376C137.688 10.2562 137.767 10.3353 137.885 10.3353C138.004 10.3353 138.123 10.3353 138.241 10.3353C139.506 10.3353 140.732 10.3353 141.998 10.3353C142.116 10.3353 142.235 10.3353 142.353 10.3353C142.907 10.3748 143.342 10.8098 143.342 11.3634C143.342 12.2728 143.342 13.1822 143.342 14.0521C143.342 14.6057 142.986 15.0011 142.472 15.1197C142.274 15.1593 142.037 15.1593 141.839 15.1593C140.653 15.1593 139.467 15.1593 138.281 15.1593C138.162 15.1593 138.043 15.1593 137.925 15.1593C137.767 15.1593 137.727 15.2384 137.688 15.3965C137.688 15.4756 137.688 15.5942 137.688 15.6733C137.688 17.6503 137.688 19.5879 137.688 21.5649C137.688 21.723 137.688 21.8813 137.688 21.9999C137.767 22.7115 138.281 23.2256 139.032 23.2651C139.546 23.3046 139.981 23.1465 140.416 22.9093C140.535 22.8698 140.614 22.7907 140.732 22.7115C140.89 22.6324 141.009 22.5534 141.167 22.5138C141.602 22.3952 142.037 22.5138 142.314 22.9093C142.433 23.0673 142.551 23.2651 142.67 23.4628C142.947 23.9373 143.223 24.3722 143.54 24.8467C143.579 24.9258 143.658 25.0444 143.698 25.1235C144.014 25.6771 143.935 26.1515 143.5 26.6656C143.184 27.0214 142.788 27.3378 142.353 27.575C141.483 28.0891 140.535 28.3658 139.546 28.524C138.913 28.6032 138.281 28.6427 137.648 28.6032C136.383 28.524 135.197 28.2077 134.129 27.4169C133.022 26.6261 132.35 25.519 132.073 24.1745C131.954 23.6606 131.915 23.1465 131.915 22.6324C131.994 21.6044 131.994 20.4973 131.994 19.3901Z" fill="#9E9E9E"/>
</g>
<defs>
<clipPath id="clip0_82_196">
<rect width="201.739" height="40" fill="white" transform="translate(0.0859375)"/>
</clipPath>
</defs>
</svg>
