<svg width="45" height="41" viewBox="0 0 45 41" fill="none" xmlns="http://www.w3.org/2000/svg">
<rect width="44.6607" height="41" rx="20.5" fill="white"/>
<g clip-path="url(#clip0_2240_5)">
<path d="M22.4907 7.08087C20.9325 7.08087 19.6729 7.45313 18.7676 8.05477C17.8622 8.6564 17.2783 9.53021 17.2783 10.5118C17.2783 11.6843 17.5632 12.7007 17.8057 13.6569C17.5514 13.7051 17.4409 13.88 17.3326 14.05C17.1561 14.6597 17.2546 15.3013 17.4799 15.8638C17.6445 16.2746 17.8831 16.6529 18.178 16.9628L18.2711 19.6611C18.2709 19.947 18.4958 20.3703 18.6822 20.6082C19.168 21.2049 19.7108 21.6858 20.2568 22.136L20.2566 22.8061C20.0828 22.6963 19.9474 22.8139 19.7838 22.8687C17.947 23.9109 16.1424 25.0306 14.2998 26.0584C13.5551 26.523 12.9414 27.3797 12.7795 28.1849C12.554 30.1768 12.3105 32.1772 12.0736 34.1712C12.0388 34.4905 12.2829 34.812 12.5623 34.8145H31.9229C32.2019 34.8174 32.4498 34.4997 32.4193 34.1802C32.1647 32.1647 32.0623 30.0948 31.7755 28.0955C31.4926 27.118 30.9023 26.4084 30.1932 26.0852C28.3596 25.0206 26.5314 23.9422 24.7015 22.8687C24.6321 22.8279 24.5544 22.8063 24.4765 22.8061V22.136C25.0463 21.6531 25.5983 21.183 26.0511 20.6082C26.246 20.3588 26.439 20.1436 26.4545 19.7058H26.4622V19.6611L26.6406 17.1236C27.0115 16.7875 27.3074 16.3485 27.5015 15.8638C27.7269 15.3013 27.8253 14.6597 27.6489 14.05C27.4648 13.7249 27.3037 13.6544 27.0284 13.6837C27.3445 12.8555 27.7032 11.954 27.7032 10.7977C27.7032 9.71761 27.1414 8.74584 26.2295 8.09941C24.9403 7.40136 23.9795 7.08084 22.4907 7.08087H22.4907ZM22.4907 8.22453C23.9111 8.22453 25.0006 8.57611 25.702 9.07334C26.4034 9.57057 26.7104 10.1624 26.7104 10.7978C26.7104 11.1953 26.6461 11.5677 26.5475 11.9325C25.2611 11.2266 23.8671 10.9407 22.483 10.9765C21.0866 11.0125 19.6987 11.3728 18.434 11.9414C18.336 11.4671 18.2711 10.9936 18.2711 10.5118C18.2711 10.0639 18.5559 9.51708 19.264 9.04653C19.972 8.57599 21.0704 8.22453 22.4907 8.22453V8.22453ZM22.4984 12.129C23.6853 12.0975 24.8552 12.3302 25.9346 12.8796C25.7168 15.0864 25.6341 17.2284 25.4692 19.5807C25.4598 19.5603 25.4237 19.6995 25.3141 19.8398C24.7231 20.5392 24.0322 21.1134 23.3284 21.6625C22.6879 21.6734 22.0516 21.6654 21.4048 21.6625C20.6612 21.0579 20.0326 20.5667 19.419 19.8398C19.3094 19.6995 19.2733 19.5603 19.2639 19.5807L19.0312 12.9332C20.1347 12.4672 21.3156 12.1605 22.4984 12.129V12.129ZM21.4978 13.9428L19.7604 14.2287V14.8006L21.746 14.5146L21.4978 13.9428ZM23.4835 13.9428L23.2353 14.5146L25.221 14.8006V14.2287L23.4835 13.9428ZM21.2496 22.8062C21.985 22.8062 22.7177 22.8236 23.4835 22.8062V24.2357C22.9425 24.9152 22.4907 25.6653 22.243 26.1121C21.9943 25.6653 21.6419 24.8345 21.2497 24.2357C21.2499 23.7592 21.2497 23.2824 21.2497 22.8062H21.2496ZM19.2019 24.4859C19.1325 25.1804 19.097 25.9089 19.2484 26.5498C19.3604 26.9758 19.6485 27.3712 20.0086 27.3808C20.2878 27.3808 20.3528 27.2666 20.4352 27.1932C20.7142 26.9225 20.9677 26.5874 21.2264 26.3175L21.8003 27.6399C21.883 27.8264 22.0607 27.9516 22.2425 27.9516C22.4243 27.9516 22.6019 27.8264 22.6846 27.6399L23.2586 26.3175C23.5498 26.6056 23.7859 26.9282 24.0498 27.1932C24.1322 27.2666 24.1971 27.3808 24.4764 27.3808C24.9245 27.31 25.1024 26.9633 25.2365 26.5498C25.3832 25.8399 25.3548 25.1651 25.2831 24.4948C26.794 25.3537 28.2849 26.2878 29.7974 27.1306C30.2317 27.3148 30.6049 27.7339 30.8135 28.4262L31.0307 30.5258H28.1996C27.9234 30.523 27.6773 30.8345 27.7031 31.1513L27.9126 33.6709H16.5724L16.7818 31.1513C16.8077 30.8345 16.5616 30.5245 16.2854 30.5258H13.5007L13.749 28.4262C13.9315 27.8282 14.2874 27.3067 14.7108 27.1038C16.2071 26.2403 17.7062 25.3593 19.2019 24.4859V24.4859ZM13.3689 31.6695H15.7346L15.5718 33.6709H13.1284L13.3689 31.6695ZM28.7503 31.6695H31.1471L31.3565 33.6709H28.9132L28.7503 31.6695Z" fill="#301446"/>
</g>
<defs>
<clipPath id="clip0_2240_5">
<rect width="25" height="27.9412" fill="white" transform="translate(10 7)"/>
</clipPath>
</defs>
</svg>
