<svg width="45" height="41" viewBox="0 0 45 41" fill="none" xmlns="http://www.w3.org/2000/svg">
<rect width="44.6607" height="41" rx="20.5" fill="white"/>
<path d="M28.6824 28.6288L32.9723 32.4348L32.9936 32.4489C33.1741 32.5682 33.3652 32.6314 33.5617 32.6314C33.79 32.6314 34.0183 32.5472 34.22 32.3857C34.597 32.0837 34.82 31.55 34.82 30.9672C34.82 30.3492 34.5651 29.7945 34.1616 29.5065L28.5284 24.5348H20.0016L18.8495 20.9745H21.7961C22.2581 20.9745 22.635 20.4759 22.635 19.865V19.219C22.635 18.608 22.2581 18.1094 21.7961 18.1094H18C17.9787 18.0322 17.9362 17.955 17.8832 17.8988C17.538 17.5336 17.177 17.0631 16.8319 16.6137C16.4921 16.1713 16.1417 15.7149 15.786 15.3286C16.4868 14.7177 16.954 13.6714 16.954 12.4776C16.954 10.5956 15.7966 9.07182 14.379 9.07182C12.9614 9.07182 11.804 10.5956 11.804 12.4776C11.804 12.6953 11.8199 12.8989 11.8464 13.1096H9.51562V32.161H28.6824V28.6288ZM21.897 19.219V19.858C21.897 19.9282 21.8545 19.9844 21.8015 19.9844H17.7345C17.6814 19.9844 17.6389 19.9282 17.6389 19.858V19.219C17.6389 19.1487 17.6814 19.0926 17.7345 19.0926H21.7961C21.8492 19.0926 21.897 19.1487 21.897 19.219ZM15.2603 16.0238C15.6054 16.389 15.9665 16.8595 16.3116 17.3089C16.593 17.6741 16.8797 18.0533 17.1717 18.3833C16.9965 18.587 16.885 18.8819 16.885 19.219V19.858C16.885 20.4689 17.262 20.9675 17.7239 20.9675H18.0477C18.0531 21.0026 18.0584 21.0307 18.069 21.0658L19.5078 25.5109H28.2948L33.7581 30.3352L33.7953 30.3633C33.9652 30.4826 34.0714 30.7144 34.0714 30.9672C34.0714 31.2059 33.9811 31.4236 33.8271 31.55C33.6785 31.6694 33.5033 31.6834 33.344 31.5922L28.4594 27.2594H18.2814L15.0108 15.7781C15.048 15.764 15.0851 15.75 15.1223 15.7359C15.1435 15.8483 15.186 15.9466 15.2603 16.0238ZM14.379 10.0479C15.3878 10.0479 16.2107 11.1364 16.2107 12.4706C16.2107 13.8048 15.3878 14.8933 14.379 14.8933C13.3702 14.8933 12.5473 13.8048 12.5473 12.4706C12.5473 11.1364 13.3702 10.0479 14.379 10.0479ZM27.9391 31.1778H10.2589V14.0857H12.1066C12.1066 14.0857 12.1066 14.0857 12.1119 14.0857C12.5313 15.118 13.3384 15.8272 14.2728 15.8764C14.2728 15.9326 14.2781 15.9958 14.294 16.059L17.7664 28.2355H27.9444C27.9391 28.2636 27.9391 28.2917 27.9391 28.3268V31.1778V31.1778Z" fill="#301446"/>
<path d="M24.5787 22.6598H30.6579C31.2791 22.6598 31.7835 21.9927 31.7835 21.1711V16.3328C31.7835 15.5112 31.2791 14.8441 30.6579 14.8441H29.7766V14.5562C29.7766 13.7908 29.304 13.1728 28.7253 13.1728H26.8777C26.2989 13.1728 25.8264 13.7978 25.8264 14.5562V14.8441H24.5787C23.9575 14.8441 23.4531 15.5112 23.4531 16.3328V21.1711C23.4531 21.9857 23.9575 22.6598 24.5787 22.6598ZM30.6579 21.6767H24.5787C24.3663 21.6767 24.1964 21.452 24.1964 21.1711V18.5518H26.3892V19.3313H28.8209V18.5518H31.0455V21.1711C31.0455 21.445 30.8703 21.6767 30.6579 21.6767ZM27.1325 18.3482V17.9128H28.0776V18.3482H27.1325ZM26.5644 14.5492C26.5644 14.3244 26.7024 14.1489 26.8723 14.1489H28.72C28.8899 14.1489 29.0279 14.3315 29.0279 14.5492V14.8371H26.5591V14.5492H26.5644ZM24.5787 15.8202H30.6579C30.8703 15.8202 31.0402 16.0449 31.0402 16.3258V17.5617H28.8156V16.9297H26.3839V17.5617H24.1911V16.3258C24.1964 16.0519 24.3663 15.8202 24.5787 15.8202Z" fill="#301446"/>
<path d="M19.2953 8.05357C18.6634 8.05357 18.1484 8.73473 18.1484 9.57038V13.0604C18.1484 13.8961 18.6634 14.5773 19.2953 14.5773H21.7482C22.38 14.5773 22.895 13.8961 22.895 13.0604V9.57038C22.895 8.73473 22.38 8.05357 21.7482 8.05357H19.2953ZM22.1464 9.57038V13.0604C22.1464 13.3554 21.9659 13.5941 21.7429 13.5941H19.2899C19.067 13.5941 18.8864 13.3554 18.8864 13.0604V9.57038C18.8864 9.27545 19.067 9.03669 19.2899 9.03669H21.7429C21.9659 9.03669 22.1464 9.27545 22.1464 9.57038Z" fill="#301446"/>
</svg>
