<svg width="34" height="34" viewBox="0 0 34 34" fill="none" xmlns="http://www.w3.org/2000/svg">
<circle cx="17" cy="17" r="17" fill="white"/>
<path d="M21.8066 13.2755C22.403 13.2755 22.8866 12.7919 22.8866 12.1955C22.8866 11.599 22.403 11.1155 21.8066 11.1155C21.2101 11.1155 20.7266 11.599 20.7266 12.1955C20.7266 12.7919 21.2101 13.2755 21.8066 13.2755Z" fill="#301446"/>
<path d="M17.0004 12.3784C16.0864 12.3784 15.1928 12.6495 14.4328 13.1573C13.6728 13.6651 13.0805 14.3869 12.7307 15.2313C12.3809 16.0758 12.2894 17.005 12.4677 17.9015C12.646 18.798 13.0862 19.6215 13.7325 20.2678C14.3788 20.9141 15.2023 21.3543 16.0988 21.5326C16.9953 21.7109 17.9245 21.6194 18.769 21.2696C19.6134 20.9198 20.3352 20.3275 20.843 19.5675C21.3509 18.8075 21.6219 17.914 21.6219 16.9999C21.6219 15.7742 21.135 14.5987 20.2683 13.732C19.4016 12.8653 18.2261 12.3784 17.0004 12.3784ZM17.0004 19.9999C16.4071 19.9999 15.827 19.824 15.3337 19.4943C14.8404 19.1647 14.4558 18.6961 14.2288 18.148C14.0017 17.5998 13.9423 16.9966 14.0581 16.4146C14.1738 15.8327 14.4595 15.2982 14.8791 14.8786C15.2986 14.459 15.8332 14.1733 16.4151 14.0576C16.9971 13.9418 17.6003 14.0012 18.1485 14.2283C18.6966 14.4553 19.1652 14.8399 19.4948 15.3332C19.8245 15.8266 20.0004 16.4066 20.0004 16.9999C20.0004 17.7956 19.6843 18.5586 19.1217 19.1212C18.5591 19.6838 17.7961 19.9999 17.0004 19.9999Z" fill="#301446"/>
<path d="M17 9.6215C19.403 9.6215 19.688 9.6305 20.6368 9.674C21.2074 9.68077 21.7726 9.78555 22.3077 9.98375C22.696 10.1335 23.0486 10.3629 23.3428 10.6572C23.6371 10.9514 23.8665 11.304 24.0163 11.6923C24.2145 12.2274 24.3192 12.7926 24.326 13.3632C24.3695 14.312 24.3785 14.597 24.3785 17.0007C24.3785 19.4045 24.3695 19.688 24.326 20.6368C24.3192 21.2074 24.2145 21.7726 24.0163 22.3077C23.8665 22.696 23.6371 23.0486 23.3428 23.3428C23.0486 23.6371 22.696 23.8665 22.3077 24.0163C21.7726 24.2145 21.2074 24.3192 20.6368 24.326C19.688 24.3695 19.403 24.3785 17 24.3785C14.597 24.3785 14.312 24.3695 13.3632 24.326C12.7926 24.3192 12.2274 24.2145 11.6923 24.0163C11.304 23.8665 10.9514 23.6371 10.6572 23.3428C10.3629 23.0486 10.1335 22.696 9.98375 22.3077C9.78555 21.7726 9.68077 21.2074 9.674 20.6368C9.6305 19.688 9.6215 19.403 9.6215 17C9.6215 14.597 9.6305 14.312 9.674 13.3632C9.68077 12.7926 9.78555 12.2274 9.98375 11.6923C10.1335 11.304 10.3629 10.9514 10.6572 10.6572C10.9514 10.3629 11.304 10.1335 11.6923 9.98375C12.2274 9.78555 12.7926 9.68077 13.3632 9.674C14.312 9.6305 14.597 9.6215 17 9.6215ZM17 8C14.5557 8 14.249 8.0105 13.289 8.054C12.5426 8.06907 11.8041 8.21058 11.105 8.4725C10.507 8.70372 9.96399 9.05733 9.51066 9.51066C9.05733 9.96399 8.70372 10.507 8.4725 11.105C8.21049 11.8044 8.06899 12.5431 8.054 13.2898C8.0105 14.2498 8 14.555 8 17C8 19.445 8.0105 19.751 8.054 20.711C8.06907 21.4574 8.21058 22.1959 8.4725 22.895C8.70372 23.493 9.05733 24.036 9.51066 24.4893C9.96399 24.9427 10.507 25.2963 11.105 25.5275C11.8044 25.7895 12.5431 25.931 13.2898 25.946C14.2498 25.9895 14.5557 26 17 26C19.4443 26 19.751 25.9895 20.711 25.946C21.4577 25.931 22.1964 25.7895 22.8958 25.5275C23.4937 25.2963 24.0368 24.9427 24.4901 24.4893C24.9434 24.036 25.297 23.493 25.5282 22.895C25.79 22.1956 25.9313 21.4569 25.946 20.7103C25.9895 19.7503 26 19.445 26 17C26 14.555 25.9895 14.249 25.946 13.289C25.9309 12.5426 25.7894 11.8041 25.5275 11.105C25.2963 10.507 24.9427 9.96399 24.4893 9.51066C24.036 9.05733 23.493 8.70372 22.895 8.4725C22.1956 8.21075 21.4569 8.0695 20.7103 8.05475C19.7503 8.00975 19.445 8 17 8Z" fill="#301446"/>
</svg>
