<svg width="34" height="34" viewBox="0 0 34 34" fill="none" xmlns="http://www.w3.org/2000/svg">
<circle cx="17" cy="17" r="17" fill="white"/>
<path d="M9.98487 12.197C11.1933 12.197 12.1729 11.2174 12.1729 10.009C12.1729 8.80065 11.1933 7.82104 9.98487 7.82104C8.77648 7.82104 7.79688 8.80065 7.79688 10.009C7.79688 11.2174 8.77648 12.197 9.98487 12.197Z" fill="#301446"/>
<path d="M14.2358 13.8549V25.9939H18.0047V19.9909C18.0047 18.4069 18.3027 16.8729 20.2667 16.8729C22.2037 16.8729 22.2277 18.6839 22.2277 20.0909V25.9949H25.9988V19.3379C25.9988 16.0679 25.2948 13.5549 21.4728 13.5549C19.6378 13.5549 18.4078 14.5619 17.9047 15.5149H17.8537V13.8549H14.2358ZM8.09375 13.8549H11.8687V25.9939H8.09375V13.8549Z" fill="#301446"/>
</svg>
