<svg width="15" height="15" viewBox="0 0 15 15" fill="none" xmlns="http://www.w3.org/2000/svg">
<g clip-path="url(#clip0_82_365)">
<path d="M7.59922 6.17485C7.31738 6.17485 7.04187 6.09128 6.80753 5.9347C6.57319 5.77812 6.39055 5.55556 6.28269 5.29518C6.17484 5.03479 6.14662 4.74827 6.2016 4.47185C6.25658 4.19543 6.3923 3.94152 6.59159 3.74223C6.79088 3.54294 7.04479 3.40722 7.32122 3.35223C7.59764 3.29725 7.88416 3.32547 8.14454 3.43333C8.40493 3.54118 8.62748 3.72383 8.78406 3.95817C8.94064 4.19251 9.02422 4.46802 9.02422 4.74985C9.02422 5.12779 8.87409 5.49024 8.60685 5.75748C8.33961 6.02472 7.97715 6.17485 7.59922 6.17485ZM7.59922 4.27485C7.50527 4.27485 7.41344 4.30271 7.33532 4.35491C7.25721 4.4071 7.19633 4.48128 7.16038 4.56808C7.12442 4.65487 7.11502 4.75038 7.13335 4.84252C7.15167 4.93466 7.19691 5.0193 7.26334 5.08573C7.32977 5.15216 7.41441 5.1974 7.50655 5.21573C7.59869 5.23405 7.6942 5.22465 7.78099 5.1887C7.86779 5.15274 7.94197 5.09186 7.99417 5.01375C8.04636 4.93564 8.07422 4.8438 8.07422 4.74985C8.07422 4.62388 8.02418 4.50306 7.9351 4.41398C7.84602 4.3249 7.7252 4.27485 7.59922 4.27485ZM7.59922 11.8749C7.53671 11.8752 7.47474 11.8632 7.41686 11.8396C7.35899 11.816 7.30635 11.7811 7.26197 11.7371C7.12422 11.5756 3.32422 7.76135 3.32422 4.74985C3.32422 3.61605 3.77462 2.52869 4.57634 1.72697C5.37806 0.925254 6.46542 0.474854 7.59922 0.474854C8.73302 0.474854 9.82038 0.925254 10.6221 1.72697C11.4238 2.52869 11.8742 3.61605 11.8742 4.74985C11.8742 7.76135 8.07422 11.5756 7.93647 11.7371C7.89208 11.7811 7.83945 11.816 7.78158 11.8396C7.7237 11.8632 7.66173 11.8752 7.59922 11.8749ZM7.59922 1.42485C6.71737 1.42485 5.87165 1.77517 5.24809 2.39872C4.62453 3.02228 4.27422 3.86801 4.27422 4.74985C4.27422 6.8921 6.69197 9.7231 7.59922 10.7111C8.50647 9.72785 10.9242 6.9111 10.9242 4.74985C10.9242 3.86801 10.5739 3.02228 9.95035 2.39872C9.32679 1.77517 8.48106 1.42485 7.59922 1.42485ZM7.59922 14.7249C6.41647 14.7249 5.22422 14.3591 5.22422 13.5374C5.22422 12.7156 6.41647 12.3499 7.59922 12.3499C8.78197 12.3499 9.97422 12.7156 9.97422 13.5374C9.97422 14.3591 8.78197 14.7249 7.59922 14.7249ZM6.28347 13.5374C6.70004 13.7096 7.1487 13.7906 7.59922 13.7749C8.04974 13.7906 8.4984 13.7096 8.91497 13.5374C8.4984 13.3651 8.04974 13.2841 7.59922 13.2999C7.1487 13.2841 6.70004 13.3651 6.28347 13.5374Z" fill="#7B7FDA"/>
</g>
<defs>
<clipPath id="clip0_82_365">
<rect width="15" height="15" fill="white"/>
</clipPath>
</defs>
</svg>
