<svg width="16" height="14" viewBox="0 0 16 14" fill="none" xmlns="http://www.w3.org/2000/svg">
<path d="M13.5414 3.28198H2.41356C2.02637 3.28198 1.71094 3.59642 1.71094 3.9846V11.9616C1.71094 12.3488 2.02637 12.6642 2.41356 12.6642H13.5414C13.9286 12.6642 14.2435 12.3488 14.2435 11.9616V3.9846C14.2435 3.59642 13.9286 3.28198 13.5414 3.28198ZM13.5414 3.7499C13.5992 3.7499 13.6505 3.77332 13.6914 3.8082C12.2064 5.11129 8.76008 8.12759 8.5478 8.28804C8.33702 8.4485 8.14566 8.4485 7.97723 8.4485C7.8088 8.4485 7.61795 8.4485 7.40716 8.28804C7.19488 8.12759 3.74854 5.11129 2.26307 3.8082C2.30393 3.77332 2.35576 3.7499 2.41356 3.7499H13.5414ZM13.5414 12.1963H2.41356C2.2845 12.1963 2.17935 12.0912 2.17935 11.9616V4.35834C2.97815 5.05797 4.87025 6.71536 6.07268 7.75983L3.58161 10.4158C3.49291 10.51 3.49739 10.658 3.59207 10.7467C3.63692 10.7886 3.69423 10.81 3.75153 10.81C3.81382 10.81 3.87661 10.7846 3.92245 10.7363L6.42598 8.06679C6.80271 8.39269 7.06482 8.61743 7.12262 8.66228C7.45948 8.91741 7.77043 8.91741 7.97624 8.91741C8.18204 8.91741 8.49299 8.91741 8.82985 8.66228C8.88815 8.61743 9.15026 8.39269 9.52699 8.06679L12.0305 10.7363C12.0764 10.7851 12.1387 10.81 12.2009 10.81C12.2582 10.81 12.3156 10.7886 12.3609 10.7467C12.4556 10.658 12.4601 10.51 12.3714 10.4158L9.88079 7.75983C11.0827 6.71536 12.9758 5.05797 13.7741 4.35834V11.9616C13.7751 12.0912 13.67 12.1963 13.5414 12.1963Z" fill="#7B7FDA"/>
</svg>
