<svg width="15" height="15" viewBox="0 0 15 15" fill="none" xmlns="http://www.w3.org/2000/svg">
<path fill-rule="evenodd" clip-rule="evenodd" d="M4.89958 5.98952C5.86141 7.43227 7.12928 8.70014 8.61575 9.7057L9.05295 9.22478C9.79618 8.48154 10.8017 8.65642 11.5887 9.13734L12.8128 9.88057C13.7747 10.4926 13.5998 11.848 12.944 12.5912C9.14039 16.7008 -2.1393 5.42116 2.01407 1.66127C2.75731 0.961753 4.11262 0.830594 4.68098 1.74871L5.42421 2.97286C5.94885 3.75981 6.08001 4.76537 5.38049 5.5086L4.89958 5.98952ZM2.36383 2.05475C2.88847 1.57383 3.8503 1.48639 4.20006 2.05475L4.94329 3.2789C5.33677 3.89097 5.46793 4.59049 4.94329 5.11513L4.15634 5.90208C5.29305 7.73831 6.86696 9.2685 8.65947 10.4489L9.49014 9.61826C9.97106 9.13734 10.7143 9.22478 11.2827 9.61826L12.5068 10.3615C13.1189 10.755 12.9877 11.6731 12.5068 12.1977C9.27155 15.739 -1.17746 5.33372 2.36383 2.05475Z" fill="#7B7FDA"/>
</svg>
