<svg width="34" height="34" viewBox="0 0 34 34" fill="none" xmlns="http://www.w3.org/2000/svg">
<circle cx="17" cy="17" r="17" fill="white"/>
<path d="M24.633 12.997C24.646 13.172 24.646 13.346 24.646 13.52C24.646 18.845 20.593 24.981 13.186 24.981C10.904 24.981 8.784 24.32 7 23.172C7.324 23.209 7.636 23.222 7.973 23.222C9.78599 23.2264 11.5476 22.6202 12.974 21.501C12.1334 21.4858 11.3186 21.2085 10.6432 20.7078C9.9679 20.2071 9.46578 19.5079 9.207 18.708C9.456 18.745 9.706 18.77 9.968 18.77C10.329 18.77 10.692 18.72 11.029 18.633C10.1168 18.4489 9.29647 17.9544 8.70762 17.2337C8.11876 16.5131 7.79769 15.6107 7.799 14.68V14.63C8.336 14.929 8.959 15.116 9.619 15.141C9.06609 14.7736 8.61272 14.2751 8.29934 13.6898C7.98596 13.1046 7.82231 12.4509 7.823 11.787C7.823 11.039 8.022 10.353 8.371 9.75504C9.38314 11.0001 10.6455 12.0186 12.0763 12.7447C13.5072 13.4708 15.0746 13.8883 16.677 13.97C16.615 13.67 16.577 13.359 16.577 13.047C16.5767 12.518 16.6807 11.9941 16.8831 11.5053C17.0854 11.0165 17.3821 10.5723 17.7562 10.1982C18.1303 9.82414 18.5744 9.52745 19.0632 9.32512C19.5521 9.12279 20.076 9.01878 20.605 9.01904C21.765 9.01904 22.812 9.50504 23.548 10.291C24.4498 10.1167 25.3145 9.78747 26.104 9.31804C25.8034 10.2489 25.1738 11.0381 24.333 11.538C25.1328 11.4468 25.9144 11.2365 26.652 10.914C26.1011 11.7171 25.4185 12.4214 24.633 12.997Z" fill="#301446"/>
</svg>
