<svg width="21" height="20" viewBox="0 0 21 20" fill="none" xmlns="http://www.w3.org/2000/svg">
<g clip-path="url(#clip0_39_360)">
<path d="M17.9537 9.72929C17.9595 9.86255 17.9653 10.0017 17.9653 10.1407C17.9692 11.9755 17.3293 13.7536 16.1572 15.1652C14.9851 16.5769 13.355 17.5327 11.5507 17.8662C9.74643 18.1996 7.88235 17.8897 6.28308 16.9903C4.68381 16.0909 3.45069 14.659 2.79845 12.944C2.14622 11.229 2.1162 9.3396 2.71362 7.60476C3.31104 5.86992 4.49805 4.39959 6.06794 3.44984C7.63783 2.50008 9.49112 2.13106 11.3051 2.40706C13.119 2.68305 14.7787 3.58657 15.9951 4.96026L17.5423 3.21605C15.8576 1.42819 13.5775 0.317853 11.1311 0.0940715C8.68482 -0.12971 6.24107 0.548504 4.25998 2.00103C2.27888 3.45355 0.897107 5.58018 0.374792 7.98055C-0.147522 10.3809 0.225657 12.8894 1.42407 15.0338C2.62249 17.1782 4.56346 18.8105 6.88158 19.6235C9.1997 20.4364 11.735 20.3739 14.0103 19.4477C16.2855 18.5215 18.1437 16.7955 19.235 14.5947C20.3263 12.3939 20.5754 9.87005 19.9355 7.49834L17.9537 9.72929Z" fill="#7B7FDA"/>
<path d="M20.6121 3.245C20.4984 3.14288 20.3655 3.06435 20.2212 3.01397C20.077 2.9636 19.9241 2.94238 19.7715 2.95154C19.619 2.9607 19.4698 3.00007 19.3325 3.06735C19.1953 3.13464 19.0728 3.2285 18.9722 3.3435L18.2884 4.1142L16.7065 5.89898L10.7495 12.6093L6.6932 7.41719C6.5846 7.27805 6.44567 7.16554 6.28701 7.08822C6.12835 7.01089 5.95413 6.9708 5.77763 6.97099C5.51981 6.97193 5.26943 7.05744 5.06489 7.21439C4.82303 7.40432 4.66644 7.68248 4.6295 7.98778C4.59256 8.29308 4.6783 8.60056 4.86789 8.8427L9.77599 15.1299C9.88116 15.2643 10.0146 15.3739 10.1668 15.451C10.319 15.5281 10.4863 15.5708 10.6568 15.5761H10.6916C10.8557 15.5766 11.018 15.5422 11.1678 15.4753C11.3177 15.4084 11.4516 15.3104 11.5608 15.1879L17.7263 8.24003L19.4995 6.24085L20.7106 4.87911C20.9133 4.64892 21.0167 4.3479 20.9982 4.04174C20.9798 3.73559 20.841 3.44917 20.6121 3.245Z" fill="#7B7FDA"/>
</g>
<defs>
<clipPath id="clip0_39_360">
<rect width="21" height="20" fill="white"/>
</clipPath>
</defs>
</svg>
