<svg width="179" height="48" viewBox="0 0 179 48" fill="none" xmlns="http://www.w3.org/2000/svg">
<path d="M35.4062 37.0312H29.25V47H22.0938V37.0312H1.21875V31.375L22.0938 1.1875H29.25V30.9375H35.4062V37.0312ZM22.0938 30.9375V19.4688C22.0938 15.3854 22.1979 12.0417 22.4062 9.4375H22.1562C21.5729 10.8125 20.6562 12.4792 19.4062 14.4375L8.0625 30.9375H22.0938ZM40.7188 43.0938C40.7188 41.5729 41.1146 40.4062 41.9062 39.5938C42.6979 38.7812 43.8438 38.375 45.3438 38.375C46.8646 38.375 48.0208 38.8021 48.8125 39.6562C49.6042 40.4896 50 41.6354 50 43.0938C50 44.5729 49.5938 45.75 48.7812 46.625C47.9896 47.4792 46.8438 47.9062 45.3438 47.9062C43.8438 47.9062 42.6979 47.4792 41.9062 46.625C41.1146 45.7708 40.7188 44.5938 40.7188 43.0938ZM87.9688 24.1562C87.9688 32.0938 86.6875 37.9896 84.125 41.8438C81.5833 45.6979 77.6875 47.625 72.4375 47.625C67.3542 47.625 63.5 45.6354 60.875 41.6562C58.25 37.6771 56.9375 31.8438 56.9375 24.1562C56.9375 16.0938 58.2083 10.1562 60.75 6.34375C63.3125 2.51042 67.2083 0.59375 72.4375 0.59375C77.5417 0.59375 81.4062 2.59375 84.0312 6.59375C86.6562 10.5938 87.9688 16.4479 87.9688 24.1562ZM64.375 24.1562C64.375 30.3854 65.0104 34.8333 66.2812 37.5C67.5729 40.1667 69.625 41.5 72.4375 41.5C75.25 41.5 77.3021 40.1458 78.5938 37.4375C79.9062 34.7292 80.5625 30.3021 80.5625 24.1562C80.5625 18.0312 79.9062 13.6042 78.5938 10.875C77.3021 8.125 75.25 6.75 72.4375 6.75C69.625 6.75 67.5729 8.09375 66.2812 10.7812C65.0104 13.4688 64.375 17.9271 64.375 24.1562Z" fill="#301446"/>
<path d="M106.581 1L109.022 6.22101L114.741 6.92908L110.53 10.8639L111.624 16.5225L106.581 13.7334L101.537 16.5225L102.631 10.8639L98.42 6.92908L104.14 6.22101L106.581 1Z" fill="#F6BA42"/>
<path d="M127.741 1L130.182 6.22101L135.901 6.92908L131.69 10.8639L132.784 16.5225L127.741 13.7334L122.697 16.5225L123.791 10.8639L119.58 6.92908L125.3 6.22101L127.741 1Z" fill="#F6BA42"/>
<path d="M148.905 1L151.346 6.22101L157.066 6.92908L152.854 10.8639L153.948 16.5225L148.905 13.7334L143.861 16.5225L144.955 10.8639L140.744 6.92908L146.464 6.22101L148.905 1Z" fill="#F6BA42"/>
<path d="M170.065 1L172.506 6.22101L178.226 6.92908L174.015 10.8639L175.109 16.5225L170.065 13.7334L165.021 16.5225L166.116 10.8639L161.904 6.92908L167.624 6.22101L170.065 1Z" fill="#F6BA42"/>
<path d="M106.289 39H98.7812V37.8828L101.789 34.8594C102.706 33.9323 103.31 33.2708 103.602 32.875C103.893 32.4792 104.112 32.0938 104.258 31.7188C104.404 31.3438 104.477 30.9401 104.477 30.5078C104.477 29.8984 104.292 29.4167 103.922 29.0625C103.552 28.7031 103.039 28.5234 102.383 28.5234C101.909 28.5234 101.458 28.6016 101.031 28.7578C100.609 28.9141 100.138 29.1979 99.6172 29.6094L98.9297 28.7266C99.9818 27.8516 101.128 27.4141 102.367 27.4141C103.44 27.4141 104.281 27.6901 104.891 28.2422C105.5 28.7891 105.805 29.526 105.805 30.4531C105.805 31.1771 105.602 31.8932 105.195 32.6016C104.789 33.3099 104.029 34.2057 102.914 35.2891L100.414 37.7344V37.7969H106.289V39ZM115.984 36.375H114.289V39H113.047V36.375H107.492V35.2422L112.914 27.5156H114.289V35.1953H115.984V36.375ZM113.047 35.1953V31.3984C113.047 30.6536 113.073 29.8125 113.125 28.875H113.062C112.812 29.375 112.578 29.7891 112.359 30.1172L108.789 35.1953H113.047ZM125.75 30.2812C126.13 30.2812 126.471 30.3125 126.773 30.375L126.594 31.5781C126.24 31.5 125.927 31.4609 125.656 31.4609C124.964 31.4609 124.37 31.7422 123.875 32.3047C123.385 32.8672 123.141 33.5677 123.141 34.4062V39H121.844V30.4375H122.914L123.062 32.0234H123.125C123.443 31.4661 123.826 31.0365 124.273 30.7344C124.721 30.4323 125.214 30.2812 125.75 30.2812ZM131.992 39.1562C130.727 39.1562 129.727 38.7708 128.992 38C128.263 37.2292 127.898 36.1589 127.898 34.7891C127.898 33.4089 128.237 32.3125 128.914 31.5C129.596 30.6875 130.51 30.2812 131.656 30.2812C132.729 30.2812 133.578 30.6354 134.203 31.3438C134.828 32.0469 135.141 32.9766 135.141 34.1328V34.9531H129.242C129.268 35.9583 129.521 36.7214 130 37.2422C130.484 37.763 131.164 38.0234 132.039 38.0234C132.961 38.0234 133.872 37.8307 134.773 37.4453V38.6016C134.315 38.7995 133.88 38.9401 133.469 39.0234C133.062 39.112 132.57 39.1562 131.992 39.1562ZM131.641 31.3672C130.953 31.3672 130.404 31.5911 129.992 32.0391C129.586 32.487 129.346 33.1068 129.273 33.8984H133.75C133.75 33.0807 133.568 32.4557 133.203 32.0234C132.839 31.5859 132.318 31.3672 131.641 31.3672ZM139.234 39L135.984 30.4375H137.375L139.219 35.5156C139.635 36.7031 139.88 37.474 139.953 37.8281H140.016C140.073 37.5521 140.253 36.9818 140.555 36.1172C140.862 35.2474 141.547 33.3542 142.609 30.4375H144L140.75 39H139.234ZM146.672 39H145.375V30.4375H146.672V39ZM145.266 28.1172C145.266 27.8203 145.339 27.6042 145.484 27.4688C145.63 27.3281 145.812 27.2578 146.031 27.2578C146.24 27.2578 146.419 27.3281 146.57 27.4688C146.721 27.6094 146.797 27.8255 146.797 28.1172C146.797 28.4089 146.721 28.6276 146.57 28.7734C146.419 28.9141 146.24 28.9844 146.031 28.9844C145.812 28.9844 145.63 28.9141 145.484 28.7734C145.339 28.6276 145.266 28.4089 145.266 28.1172ZM153.039 39.1562C151.773 39.1562 150.773 38.7708 150.039 38C149.31 37.2292 148.945 36.1589 148.945 34.7891C148.945 33.4089 149.284 32.3125 149.961 31.5C150.643 30.6875 151.557 30.2812 152.703 30.2812C153.776 30.2812 154.625 30.6354 155.25 31.3438C155.875 32.0469 156.188 32.9766 156.188 34.1328V34.9531H150.289C150.315 35.9583 150.568 36.7214 151.047 37.2422C151.531 37.763 152.211 38.0234 153.086 38.0234C154.008 38.0234 154.919 37.8307 155.82 37.4453V38.6016C155.362 38.7995 154.927 38.9401 154.516 39.0234C154.109 39.112 153.617 39.1562 153.039 39.1562ZM152.688 31.3672C152 31.3672 151.451 31.5911 151.039 32.0391C150.633 32.487 150.393 33.1068 150.32 33.8984H154.797C154.797 33.0807 154.615 32.4557 154.25 32.0234C153.885 31.5859 153.365 31.3672 152.688 31.3672ZM165.398 39L163.828 33.9766C163.729 33.6693 163.544 32.9714 163.273 31.8828H163.211C163.003 32.7943 162.82 33.4974 162.664 33.9922L161.047 39H159.547L157.211 30.4375H158.57C159.122 32.5885 159.542 34.2266 159.828 35.3516C160.12 36.4766 160.286 37.2344 160.328 37.625H160.391C160.448 37.3281 160.539 36.9453 160.664 36.4766C160.794 36.0026 160.906 35.6276 161 35.3516L162.57 30.4375H163.977L165.508 35.3516C165.799 36.2474 165.997 37 166.102 37.6094H166.164C166.185 37.4219 166.24 37.1328 166.328 36.7422C166.422 36.3516 166.966 34.25 167.961 30.4375H169.305L166.938 39H165.398ZM176.383 36.6641C176.383 37.4609 176.086 38.0755 175.492 38.5078C174.898 38.9401 174.065 39.1562 172.992 39.1562C171.857 39.1562 170.971 38.9766 170.336 38.6172V37.4141C170.747 37.6224 171.188 37.7865 171.656 37.9062C172.13 38.026 172.586 38.0859 173.023 38.0859C173.701 38.0859 174.221 37.9792 174.586 37.7656C174.951 37.5469 175.133 37.2161 175.133 36.7734C175.133 36.4401 174.987 36.1562 174.695 35.9219C174.409 35.6823 173.846 35.401 173.008 35.0781C172.211 34.7812 171.643 34.5234 171.305 34.3047C170.971 34.0807 170.721 33.8281 170.555 33.5469C170.393 33.2656 170.312 32.9297 170.312 32.5391C170.312 31.8411 170.596 31.2917 171.164 30.8906C171.732 30.4844 172.51 30.2812 173.5 30.2812C174.422 30.2812 175.323 30.4688 176.203 30.8438L175.742 31.8984C174.883 31.5443 174.104 31.3672 173.406 31.3672C172.792 31.3672 172.328 31.4635 172.016 31.6562C171.703 31.849 171.547 32.1146 171.547 32.4531C171.547 32.6823 171.604 32.8776 171.719 33.0391C171.839 33.2005 172.029 33.3542 172.289 33.5C172.549 33.6458 173.049 33.8568 173.789 34.1328C174.805 34.5026 175.49 34.875 175.844 35.25C176.203 35.625 176.383 36.0964 176.383 36.6641Z" fill="#23262A"/>
</svg>
