<svg width="24" height="24" viewBox="0 0 24 24" fill="none" xmlns="http://www.w3.org/2000/svg">
<g clip-path="url(#clip0_39_472)">
<path d="M20 11.7273C20 11.8705 19.9742 12.0124 19.9239 12.1448C19.8737 12.2772 19.8 12.3974 19.7072 12.4987C19.6143 12.6001 19.5041 12.6804 19.3827 12.7352C19.2614 12.79 19.1313 12.8182 19 12.8182H13V19.3636C13 19.653 12.8946 19.9304 12.7071 20.135C12.5196 20.3396 12.2652 20.4545 12 20.4545C11.7348 20.4545 11.4804 20.3396 11.2929 20.135C11.1054 19.9304 11 19.653 11 19.3636V12.8182H5C4.73478 12.8182 4.48043 12.7032 4.29289 12.4987C4.10536 12.2941 4 12.0166 4 11.7273C4 11.4379 4.10536 11.1605 4.29289 10.9559C4.48043 10.7513 4.73478 10.6364 5 10.6364H11V4.09091C11 3.80158 11.1054 3.52411 11.2929 3.31952C11.4804 3.11493 11.7348 3 12 3C12.2652 3 12.5196 3.11493 12.7071 3.31952C12.8946 3.52411 13 3.80158 13 4.09091V10.6364H19C19.1313 10.6363 19.2614 10.6645 19.3827 10.7193C19.5041 10.7741 19.6143 10.8545 19.7072 10.9558C19.8 11.0571 19.8737 11.1774 19.9239 11.3098C19.9742 11.4421 20 11.584 20 11.7273Z" fill="#7B7FDA"/>
</g>
<defs>
<clipPath id="clip0_39_472">
<rect width="24" height="24" fill="white"/>
</clipPath>
</defs>
</svg>
