<svg width="394" height="133" viewBox="0 0 394 133" fill="none" xmlns="http://www.w3.org/2000/svg">
<rect x="78" y="6" width="264" height="13" rx="1" fill="#C4C4C4"/>
<rect x="78" y="43" width="264" height="13" rx="1" fill="#C4C4C4"/>
<rect x="78" y="80" width="264" height="13" rx="1" fill="#C4C4C4"/>
<rect x="78" y="117" width="264" height="13" rx="1" fill="#C4C4C4"/>
<rect x="78" y="6" width="125" height="13" rx="1" fill="#F6BA42"/>
<rect x="78" y="43" width="182" height="13" rx="1" fill="#F6BA42"/>
<rect x="78" y="80" width="37" height="13" rx="1" fill="#F6BA42"/>
<rect x="78" y="117" width="13" height="13" rx="1" fill="#F6BA42"/>
<path d="M4.57812 9.86719C5.72917 9.86719 6.64062 10.1719 7.3125 10.7812C7.98438 11.3906 8.32031 12.2214 8.32031 13.2734C8.32031 14.4922 7.9375 15.4453 7.17188 16.1328C6.41146 16.8151 5.32812 17.1562 3.92188 17.1562C2.64583 17.1562 1.64323 16.9505 0.914062 16.5391V14.875C1.33594 15.1146 1.82031 15.2995 2.36719 15.4297C2.91406 15.5599 3.42188 15.625 3.89062 15.625C4.71875 15.625 5.34896 15.4401 5.78125 15.0703C6.21354 14.7005 6.42969 14.1589 6.42969 13.4453C6.42969 12.0807 5.5599 11.3984 3.82031 11.3984C3.57552 11.3984 3.27344 11.4245 2.91406 11.4766C2.55469 11.5234 2.23958 11.5781 1.96875 11.6406L1.14844 11.1562L1.58594 5.57812H7.52344V7.21094H3.20312L2.94531 10.0391C3.1276 10.0078 3.34896 9.97135 3.60938 9.92969C3.875 9.88802 4.19792 9.86719 4.57812 9.86719ZM20.4141 14.5391C20.4141 15.3828 20.1068 16.0312 19.4922 16.4844C18.8776 16.9323 17.9974 17.1562 16.8516 17.1562C15.7005 17.1562 14.776 16.9818 14.0781 16.6328V15.0469C15.0938 15.5156 16.0391 15.75 16.9141 15.75C18.0443 15.75 18.6094 15.4089 18.6094 14.7266C18.6094 14.5078 18.5469 14.3255 18.4219 14.1797C18.2969 14.0339 18.0911 13.8828 17.8047 13.7266C17.5182 13.5703 17.1198 13.3932 16.6094 13.1953C15.6146 12.8099 14.9401 12.4245 14.5859 12.0391C14.237 11.6536 14.0625 11.1536 14.0625 10.5391C14.0625 9.79948 14.3594 9.22656 14.9531 8.82031C15.5521 8.40885 16.3646 8.20312 17.3906 8.20312C18.4062 8.20312 19.3672 8.40885 20.2734 8.82031L19.6797 10.2031C18.7474 9.81771 17.9635 9.625 17.3281 9.625C16.3594 9.625 15.875 9.90104 15.875 10.4531C15.875 10.724 16 10.9531 16.25 11.1406C16.5052 11.3281 17.0573 11.5859 17.9062 11.9141C18.6198 12.1901 19.138 12.4427 19.4609 12.6719C19.7839 12.901 20.0234 13.1667 20.1797 13.4688C20.3359 13.7656 20.4141 14.1224 20.4141 14.5391ZM25.625 15.6719C26.0729 15.6719 26.5208 15.6016 26.9688 15.4609V16.8438C26.7656 16.9323 26.5026 17.0052 26.1797 17.0625C25.862 17.125 25.5312 17.1562 25.1875 17.1562C23.4479 17.1562 22.5781 16.2396 22.5781 14.4062V9.75H21.3984V8.9375L22.6641 8.26562L23.2891 6.4375H24.4219V8.35938H26.8828V9.75H24.4219V14.375C24.4219 14.8177 24.5312 15.1458 24.75 15.3594C24.974 15.5677 25.2656 15.6719 25.625 15.6719ZM34.1094 17L33.7422 15.7969H33.6797C33.263 16.3229 32.8438 16.6823 32.4219 16.875C32 17.0625 31.4583 17.1562 30.7969 17.1562C29.9479 17.1562 29.2839 16.9271 28.8047 16.4688C28.3307 16.0104 28.0938 15.362 28.0938 14.5234C28.0938 13.6328 28.4245 12.9609 29.0859 12.5078C29.7474 12.0547 30.7552 11.8073 32.1094 11.7656L33.6016 11.7188V11.2578C33.6016 10.7057 33.4714 10.2943 33.2109 10.0234C32.9557 9.7474 32.5573 9.60938 32.0156 9.60938C31.5729 9.60938 31.1484 9.67448 30.7422 9.80469C30.3359 9.9349 29.9453 10.0885 29.5703 10.2656L28.9766 8.95312C29.4453 8.70833 29.9583 8.52344 30.5156 8.39844C31.0729 8.26823 31.599 8.20312 32.0938 8.20312C33.1927 8.20312 34.0208 8.44271 34.5781 8.92188C35.1406 9.40104 35.4219 10.1536 35.4219 11.1797V17H34.1094ZM31.375 15.75C32.0417 15.75 32.5755 15.5651 32.9766 15.1953C33.3828 14.8203 33.5859 14.2969 33.5859 13.625V12.875L32.4766 12.9219C31.612 12.9531 30.9818 13.099 30.5859 13.3594C30.1953 13.6146 30 14.0078 30 14.5391C30 14.9245 30.1146 15.224 30.3438 15.4375C30.5729 15.6458 30.9167 15.75 31.375 15.75ZM42.3672 8.20312C42.737 8.20312 43.0417 8.22917 43.2812 8.28125L43.1016 9.99219C42.8411 9.92969 42.5703 9.89844 42.2891 9.89844C41.5547 9.89844 40.9583 10.138 40.5 10.6172C40.0469 11.0964 39.8203 11.7188 39.8203 12.4844V17H37.9844V8.35938H39.4219L39.6641 9.88281H39.7578C40.0443 9.36719 40.4167 8.95833 40.875 8.65625C41.3385 8.35417 41.8359 8.20312 42.3672 8.20312ZM50.6953 14.5391C50.6953 15.3828 50.388 16.0312 49.7734 16.4844C49.1589 16.9323 48.2786 17.1562 47.1328 17.1562C45.9818 17.1562 45.0573 16.9818 44.3594 16.6328V15.0469C45.375 15.5156 46.3203 15.75 47.1953 15.75C48.3255 15.75 48.8906 15.4089 48.8906 14.7266C48.8906 14.5078 48.8281 14.3255 48.7031 14.1797C48.5781 14.0339 48.3724 13.8828 48.0859 13.7266C47.7995 13.5703 47.401 13.3932 46.8906 13.1953C45.8958 12.8099 45.2214 12.4245 44.8672 12.0391C44.5182 11.6536 44.3438 11.1536 44.3438 10.5391C44.3438 9.79948 44.6406 9.22656 45.2344 8.82031C45.8333 8.40885 46.6458 8.20312 47.6719 8.20312C48.6875 8.20312 49.6484 8.40885 50.5547 8.82031L49.9609 10.2031C49.0286 9.81771 48.2448 9.625 47.6094 9.625C46.6406 9.625 46.1562 9.90104 46.1562 10.4531C46.1562 10.724 46.2812 10.9531 46.5312 11.1406C46.7865 11.3281 47.3385 11.5859 48.1875 11.9141C48.901 12.1901 49.4193 12.4427 49.7422 12.6719C50.0651 12.901 50.3047 13.1667 50.4609 13.4688C50.6172 13.7656 50.6953 14.1224 50.6953 14.5391Z" fill="#7B7FDA"/>
<path d="M8.85156 51.5078H7.3125V54H5.52344V51.5078H0.304688V50.0938L5.52344 42.5469H7.3125V49.9844H8.85156V51.5078ZM5.52344 49.9844V47.1172C5.52344 46.0964 5.54948 45.2604 5.60156 44.6094H5.53906C5.39323 44.9531 5.16406 45.3698 4.85156 45.8594L2.01562 49.9844H5.52344ZM20.4141 51.5391C20.4141 52.3828 20.1068 53.0312 19.4922 53.4844C18.8776 53.9323 17.9974 54.1562 16.8516 54.1562C15.7005 54.1562 14.776 53.9818 14.0781 53.6328V52.0469C15.0938 52.5156 16.0391 52.75 16.9141 52.75C18.0443 52.75 18.6094 52.4089 18.6094 51.7266C18.6094 51.5078 18.5469 51.3255 18.4219 51.1797C18.2969 51.0339 18.0911 50.8828 17.8047 50.7266C17.5182 50.5703 17.1198 50.3932 16.6094 50.1953C15.6146 49.8099 14.9401 49.4245 14.5859 49.0391C14.237 48.6536 14.0625 48.1536 14.0625 47.5391C14.0625 46.7995 14.3594 46.2266 14.9531 45.8203C15.5521 45.4089 16.3646 45.2031 17.3906 45.2031C18.4062 45.2031 19.3672 45.4089 20.2734 45.8203L19.6797 47.2031C18.7474 46.8177 17.9635 46.625 17.3281 46.625C16.3594 46.625 15.875 46.901 15.875 47.4531C15.875 47.724 16 47.9531 16.25 48.1406C16.5052 48.3281 17.0573 48.5859 17.9062 48.9141C18.6198 49.1901 19.138 49.4427 19.4609 49.6719C19.7839 49.901 20.0234 50.1667 20.1797 50.4688C20.3359 50.7656 20.4141 51.1224 20.4141 51.5391ZM25.625 52.6719C26.0729 52.6719 26.5208 52.6016 26.9688 52.4609V53.8438C26.7656 53.9323 26.5026 54.0052 26.1797 54.0625C25.862 54.125 25.5312 54.1562 25.1875 54.1562C23.4479 54.1562 22.5781 53.2396 22.5781 51.4062V46.75H21.3984V45.9375L22.6641 45.2656L23.2891 43.4375H24.4219V45.3594H26.8828V46.75H24.4219V51.375C24.4219 51.8177 24.5312 52.1458 24.75 52.3594C24.974 52.5677 25.2656 52.6719 25.625 52.6719ZM34.1094 54L33.7422 52.7969H33.6797C33.263 53.3229 32.8438 53.6823 32.4219 53.875C32 54.0625 31.4583 54.1562 30.7969 54.1562C29.9479 54.1562 29.2839 53.9271 28.8047 53.4688C28.3307 53.0104 28.0938 52.362 28.0938 51.5234C28.0938 50.6328 28.4245 49.9609 29.0859 49.5078C29.7474 49.0547 30.7552 48.8073 32.1094 48.7656L33.6016 48.7188V48.2578C33.6016 47.7057 33.4714 47.2943 33.2109 47.0234C32.9557 46.7474 32.5573 46.6094 32.0156 46.6094C31.5729 46.6094 31.1484 46.6745 30.7422 46.8047C30.3359 46.9349 29.9453 47.0885 29.5703 47.2656L28.9766 45.9531C29.4453 45.7083 29.9583 45.5234 30.5156 45.3984C31.0729 45.2682 31.599 45.2031 32.0938 45.2031C33.1927 45.2031 34.0208 45.4427 34.5781 45.9219C35.1406 46.401 35.4219 47.1536 35.4219 48.1797V54H34.1094ZM31.375 52.75C32.0417 52.75 32.5755 52.5651 32.9766 52.1953C33.3828 51.8203 33.5859 51.2969 33.5859 50.625V49.875L32.4766 49.9219C31.612 49.9531 30.9818 50.099 30.5859 50.3594C30.1953 50.6146 30 51.0078 30 51.5391C30 51.9245 30.1146 52.224 30.3438 52.4375C30.5729 52.6458 30.9167 52.75 31.375 52.75ZM42.3672 45.2031C42.737 45.2031 43.0417 45.2292 43.2812 45.2812L43.1016 46.9922C42.8411 46.9297 42.5703 46.8984 42.2891 46.8984C41.5547 46.8984 40.9583 47.138 40.5 47.6172C40.0469 48.0964 39.8203 48.7188 39.8203 49.4844V54H37.9844V45.3594H39.4219L39.6641 46.8828H39.7578C40.0443 46.3672 40.4167 45.9583 40.875 45.6562C41.3385 45.3542 41.8359 45.2031 42.3672 45.2031ZM50.6953 51.5391C50.6953 52.3828 50.388 53.0312 49.7734 53.4844C49.1589 53.9323 48.2786 54.1562 47.1328 54.1562C45.9818 54.1562 45.0573 53.9818 44.3594 53.6328V52.0469C45.375 52.5156 46.3203 52.75 47.1953 52.75C48.3255 52.75 48.8906 52.4089 48.8906 51.7266C48.8906 51.5078 48.8281 51.3255 48.7031 51.1797C48.5781 51.0339 48.3724 50.8828 48.0859 50.7266C47.7995 50.5703 47.401 50.3932 46.8906 50.1953C45.8958 49.8099 45.2214 49.4245 44.8672 49.0391C44.5182 48.6536 44.3438 48.1536 44.3438 47.5391C44.3438 46.7995 44.6406 46.2266 45.2344 45.8203C45.8333 45.4089 46.6458 45.2031 47.6719 45.2031C48.6875 45.2031 49.6484 45.4089 50.5547 45.8203L49.9609 47.2031C49.0286 46.8177 48.2448 46.625 47.6094 46.625C46.6406 46.625 46.1562 46.901 46.1562 47.4531C46.1562 47.724 46.2812 47.9531 46.5312 48.1406C46.7865 48.3281 47.3385 48.5859 48.1875 48.9141C48.901 49.1901 49.4193 49.4427 49.7422 49.6719C50.0651 49.901 50.3047 50.1667 50.4609 50.4688C50.6172 50.7656 50.6953 51.1224 50.6953 51.5391Z" fill="#7B7FDA"/>
<path d="M8.01562 82.2031C8.01562 82.9271 7.80469 83.5312 7.38281 84.0156C6.96094 84.4948 6.36719 84.8177 5.60156 84.9844V85.0469C6.51823 85.1615 7.20573 85.4479 7.66406 85.9062C8.1224 86.3594 8.35156 86.9635 8.35156 87.7188C8.35156 88.8177 7.96354 89.6667 7.1875 90.2656C6.41146 90.8594 5.30729 91.1562 3.875 91.1562C2.60938 91.1562 1.54167 90.9505 0.671875 90.5391V88.9062C1.15625 89.1458 1.66927 89.3307 2.21094 89.4609C2.7526 89.5911 3.27344 89.6562 3.77344 89.6562C4.65885 89.6562 5.32031 89.4922 5.75781 89.1641C6.19531 88.8359 6.41406 88.3281 6.41406 87.6406C6.41406 87.0312 6.17188 86.5833 5.6875 86.2969C5.20312 86.0104 4.44271 85.8672 3.40625 85.8672H2.41406V84.375H3.42188C5.24479 84.375 6.15625 83.7448 6.15625 82.4844C6.15625 81.9948 5.9974 81.6172 5.67969 81.3516C5.36198 81.0859 4.89323 80.9531 4.27344 80.9531C3.84115 80.9531 3.42448 81.0156 3.02344 81.1406C2.6224 81.2604 2.14844 81.4974 1.60156 81.8516L0.703125 80.5703C1.75 79.7995 2.96615 79.4141 4.35156 79.4141C5.5026 79.4141 6.40104 79.6615 7.04688 80.1562C7.69271 80.651 8.01562 81.3333 8.01562 82.2031ZM20.4141 88.5391C20.4141 89.3828 20.1068 90.0312 19.4922 90.4844C18.8776 90.9323 17.9974 91.1562 16.8516 91.1562C15.7005 91.1562 14.776 90.9818 14.0781 90.6328V89.0469C15.0938 89.5156 16.0391 89.75 16.9141 89.75C18.0443 89.75 18.6094 89.4089 18.6094 88.7266C18.6094 88.5078 18.5469 88.3255 18.4219 88.1797C18.2969 88.0339 18.0911 87.8828 17.8047 87.7266C17.5182 87.5703 17.1198 87.3932 16.6094 87.1953C15.6146 86.8099 14.9401 86.4245 14.5859 86.0391C14.237 85.6536 14.0625 85.1536 14.0625 84.5391C14.0625 83.7995 14.3594 83.2266 14.9531 82.8203C15.5521 82.4089 16.3646 82.2031 17.3906 82.2031C18.4062 82.2031 19.3672 82.4089 20.2734 82.8203L19.6797 84.2031C18.7474 83.8177 17.9635 83.625 17.3281 83.625C16.3594 83.625 15.875 83.901 15.875 84.4531C15.875 84.724 16 84.9531 16.25 85.1406C16.5052 85.3281 17.0573 85.5859 17.9062 85.9141C18.6198 86.1901 19.138 86.4427 19.4609 86.6719C19.7839 86.901 20.0234 87.1667 20.1797 87.4688C20.3359 87.7656 20.4141 88.1224 20.4141 88.5391ZM25.625 89.6719C26.0729 89.6719 26.5208 89.6016 26.9688 89.4609V90.8438C26.7656 90.9323 26.5026 91.0052 26.1797 91.0625C25.862 91.125 25.5312 91.1562 25.1875 91.1562C23.4479 91.1562 22.5781 90.2396 22.5781 88.4062V83.75H21.3984V82.9375L22.6641 82.2656L23.2891 80.4375H24.4219V82.3594H26.8828V83.75H24.4219V88.375C24.4219 88.8177 24.5312 89.1458 24.75 89.3594C24.974 89.5677 25.2656 89.6719 25.625 89.6719ZM34.1094 91L33.7422 89.7969H33.6797C33.263 90.3229 32.8438 90.6823 32.4219 90.875C32 91.0625 31.4583 91.1562 30.7969 91.1562C29.9479 91.1562 29.2839 90.9271 28.8047 90.4688C28.3307 90.0104 28.0938 89.362 28.0938 88.5234C28.0938 87.6328 28.4245 86.9609 29.0859 86.5078C29.7474 86.0547 30.7552 85.8073 32.1094 85.7656L33.6016 85.7188V85.2578C33.6016 84.7057 33.4714 84.2943 33.2109 84.0234C32.9557 83.7474 32.5573 83.6094 32.0156 83.6094C31.5729 83.6094 31.1484 83.6745 30.7422 83.8047C30.3359 83.9349 29.9453 84.0885 29.5703 84.2656L28.9766 82.9531C29.4453 82.7083 29.9583 82.5234 30.5156 82.3984C31.0729 82.2682 31.599 82.2031 32.0938 82.2031C33.1927 82.2031 34.0208 82.4427 34.5781 82.9219C35.1406 83.401 35.4219 84.1536 35.4219 85.1797V91H34.1094ZM31.375 89.75C32.0417 89.75 32.5755 89.5651 32.9766 89.1953C33.3828 88.8203 33.5859 88.2969 33.5859 87.625V86.875L32.4766 86.9219C31.612 86.9531 30.9818 87.099 30.5859 87.3594C30.1953 87.6146 30 88.0078 30 88.5391C30 88.9245 30.1146 89.224 30.3438 89.4375C30.5729 89.6458 30.9167 89.75 31.375 89.75ZM42.3672 82.2031C42.737 82.2031 43.0417 82.2292 43.2812 82.2812L43.1016 83.9922C42.8411 83.9297 42.5703 83.8984 42.2891 83.8984C41.5547 83.8984 40.9583 84.138 40.5 84.6172C40.0469 85.0964 39.8203 85.7188 39.8203 86.4844V91H37.9844V82.3594H39.4219L39.6641 83.8828H39.7578C40.0443 83.3672 40.4167 82.9583 40.875 82.6562C41.3385 82.3542 41.8359 82.2031 42.3672 82.2031ZM50.6953 88.5391C50.6953 89.3828 50.388 90.0312 49.7734 90.4844C49.1589 90.9323 48.2786 91.1562 47.1328 91.1562C45.9818 91.1562 45.0573 90.9818 44.3594 90.6328V89.0469C45.375 89.5156 46.3203 89.75 47.1953 89.75C48.3255 89.75 48.8906 89.4089 48.8906 88.7266C48.8906 88.5078 48.8281 88.3255 48.7031 88.1797C48.5781 88.0339 48.3724 87.8828 48.0859 87.7266C47.7995 87.5703 47.401 87.3932 46.8906 87.1953C45.8958 86.8099 45.2214 86.4245 44.8672 86.0391C44.5182 85.6536 44.3438 85.1536 44.3438 84.5391C44.3438 83.7995 44.6406 83.2266 45.2344 82.8203C45.8333 82.4089 46.6458 82.2031 47.6719 82.2031C48.6875 82.2031 49.6484 82.4089 50.5547 82.8203L49.9609 84.2031C49.0286 83.8177 48.2448 83.625 47.6094 83.625C46.6406 83.625 46.1562 83.901 46.1562 84.4531C46.1562 84.724 46.2812 84.9531 46.5312 85.1406C46.7865 85.3281 47.3385 85.5859 48.1875 85.9141C48.901 86.1901 49.4193 86.4427 49.7422 86.6719C50.0651 86.901 50.3047 87.1667 50.4609 87.4688C50.6172 87.7656 50.6953 88.1224 50.6953 88.5391Z" fill="#7B7FDA"/>
<path d="M8.44531 128H0.703125V126.609L3.64844 123.648C4.51823 122.758 5.09375 122.128 5.375 121.758C5.66146 121.383 5.86979 121.031 6 120.703C6.13021 120.375 6.19531 120.023 6.19531 119.648C6.19531 119.133 6.03906 118.727 5.72656 118.43C5.41927 118.133 4.99219 117.984 4.44531 117.984C4.00781 117.984 3.58333 118.065 3.17188 118.227C2.76562 118.388 2.29427 118.68 1.75781 119.102L0.765625 117.891C1.40104 117.354 2.01823 116.974 2.61719 116.75C3.21615 116.526 3.85417 116.414 4.53125 116.414C5.59375 116.414 6.44531 116.693 7.08594 117.25C7.72656 117.802 8.04688 118.547 8.04688 119.484C8.04688 120 7.95312 120.49 7.76562 120.953C7.58333 121.417 7.29948 121.896 6.91406 122.391C6.53385 122.88 5.89844 123.544 5.00781 124.383L3.02344 126.305V126.383H8.44531V128ZM20.4141 125.539C20.4141 126.383 20.1068 127.031 19.4922 127.484C18.8776 127.932 17.9974 128.156 16.8516 128.156C15.7005 128.156 14.776 127.982 14.0781 127.633V126.047C15.0938 126.516 16.0391 126.75 16.9141 126.75C18.0443 126.75 18.6094 126.409 18.6094 125.727C18.6094 125.508 18.5469 125.326 18.4219 125.18C18.2969 125.034 18.0911 124.883 17.8047 124.727C17.5182 124.57 17.1198 124.393 16.6094 124.195C15.6146 123.81 14.9401 123.424 14.5859 123.039C14.237 122.654 14.0625 122.154 14.0625 121.539C14.0625 120.799 14.3594 120.227 14.9531 119.82C15.5521 119.409 16.3646 119.203 17.3906 119.203C18.4062 119.203 19.3672 119.409 20.2734 119.82L19.6797 121.203C18.7474 120.818 17.9635 120.625 17.3281 120.625C16.3594 120.625 15.875 120.901 15.875 121.453C15.875 121.724 16 121.953 16.25 122.141C16.5052 122.328 17.0573 122.586 17.9062 122.914C18.6198 123.19 19.138 123.443 19.4609 123.672C19.7839 123.901 20.0234 124.167 20.1797 124.469C20.3359 124.766 20.4141 125.122 20.4141 125.539ZM25.625 126.672C26.0729 126.672 26.5208 126.602 26.9688 126.461V127.844C26.7656 127.932 26.5026 128.005 26.1797 128.062C25.862 128.125 25.5312 128.156 25.1875 128.156C23.4479 128.156 22.5781 127.24 22.5781 125.406V120.75H21.3984V119.938L22.6641 119.266L23.2891 117.438H24.4219V119.359H26.8828V120.75H24.4219V125.375C24.4219 125.818 24.5312 126.146 24.75 126.359C24.974 126.568 25.2656 126.672 25.625 126.672ZM34.1094 128L33.7422 126.797H33.6797C33.263 127.323 32.8438 127.682 32.4219 127.875C32 128.062 31.4583 128.156 30.7969 128.156C29.9479 128.156 29.2839 127.927 28.8047 127.469C28.3307 127.01 28.0938 126.362 28.0938 125.523C28.0938 124.633 28.4245 123.961 29.0859 123.508C29.7474 123.055 30.7552 122.807 32.1094 122.766L33.6016 122.719V122.258C33.6016 121.706 33.4714 121.294 33.2109 121.023C32.9557 120.747 32.5573 120.609 32.0156 120.609C31.5729 120.609 31.1484 120.674 30.7422 120.805C30.3359 120.935 29.9453 121.089 29.5703 121.266L28.9766 119.953C29.4453 119.708 29.9583 119.523 30.5156 119.398C31.0729 119.268 31.599 119.203 32.0938 119.203C33.1927 119.203 34.0208 119.443 34.5781 119.922C35.1406 120.401 35.4219 121.154 35.4219 122.18V128H34.1094ZM31.375 126.75C32.0417 126.75 32.5755 126.565 32.9766 126.195C33.3828 125.82 33.5859 125.297 33.5859 124.625V123.875L32.4766 123.922C31.612 123.953 30.9818 124.099 30.5859 124.359C30.1953 124.615 30 125.008 30 125.539C30 125.924 30.1146 126.224 30.3438 126.438C30.5729 126.646 30.9167 126.75 31.375 126.75ZM42.3672 119.203C42.737 119.203 43.0417 119.229 43.2812 119.281L43.1016 120.992C42.8411 120.93 42.5703 120.898 42.2891 120.898C41.5547 120.898 40.9583 121.138 40.5 121.617C40.0469 122.096 39.8203 122.719 39.8203 123.484V128H37.9844V119.359H39.4219L39.6641 120.883H39.7578C40.0443 120.367 40.4167 119.958 40.875 119.656C41.3385 119.354 41.8359 119.203 42.3672 119.203ZM50.6953 125.539C50.6953 126.383 50.388 127.031 49.7734 127.484C49.1589 127.932 48.2786 128.156 47.1328 128.156C45.9818 128.156 45.0573 127.982 44.3594 127.633V126.047C45.375 126.516 46.3203 126.75 47.1953 126.75C48.3255 126.75 48.8906 126.409 48.8906 125.727C48.8906 125.508 48.8281 125.326 48.7031 125.18C48.5781 125.034 48.3724 124.883 48.0859 124.727C47.7995 124.57 47.401 124.393 46.8906 124.195C45.8958 123.81 45.2214 123.424 44.8672 123.039C44.5182 122.654 44.3438 122.154 44.3438 121.539C44.3438 120.799 44.6406 120.227 45.2344 119.82C45.8333 119.409 46.6458 119.203 47.6719 119.203C48.6875 119.203 49.6484 119.409 50.5547 119.82L49.9609 121.203C49.0286 120.818 48.2448 120.625 47.6094 120.625C46.6406 120.625 46.1562 120.901 46.1562 121.453C46.1562 121.724 46.2812 121.953 46.5312 122.141C46.7865 122.328 47.3385 122.586 48.1875 122.914C48.901 123.19 49.4193 123.443 49.7422 123.672C50.0651 123.901 50.3047 124.167 50.4609 124.469C50.6172 124.766 50.6953 125.122 50.6953 125.539Z" fill="#7B7FDA"/>
<path d="M365.578 9.86719C366.729 9.86719 367.641 10.1719 368.312 10.7812C368.984 11.3906 369.32 12.2214 369.32 13.2734C369.32 14.4922 368.938 15.4453 368.172 16.1328C367.411 16.8151 366.328 17.1562 364.922 17.1562C363.646 17.1562 362.643 16.9505 361.914 16.5391V14.875C362.336 15.1146 362.82 15.2995 363.367 15.4297C363.914 15.5599 364.422 15.625 364.891 15.625C365.719 15.625 366.349 15.4401 366.781 15.0703C367.214 14.7005 367.43 14.1589 367.43 13.4453C367.43 12.0807 366.56 11.3984 364.82 11.3984C364.576 11.3984 364.273 11.4245 363.914 11.4766C363.555 11.5234 363.24 11.5781 362.969 11.6406L362.148 11.1562L362.586 5.57812H368.523V7.21094H364.203L363.945 10.0391C364.128 10.0078 364.349 9.97135 364.609 9.92969C364.875 9.88802 365.198 9.86719 365.578 9.86719ZM378.586 11.2891C378.586 13.2734 378.266 14.7474 377.625 15.7109C376.99 16.6745 376.016 17.1562 374.703 17.1562C373.432 17.1562 372.469 16.6589 371.812 15.6641C371.156 14.6693 370.828 13.2109 370.828 11.2891C370.828 9.27344 371.146 7.78906 371.781 6.83594C372.422 5.8776 373.396 5.39844 374.703 5.39844C375.979 5.39844 376.945 5.89844 377.602 6.89844C378.258 7.89844 378.586 9.36198 378.586 11.2891ZM372.688 11.2891C372.688 12.8464 372.846 13.9583 373.164 14.625C373.487 15.2917 374 15.625 374.703 15.625C375.406 15.625 375.919 15.2865 376.242 14.6094C376.57 13.9323 376.734 12.8255 376.734 11.2891C376.734 9.75781 376.57 8.65104 376.242 7.96875C375.919 7.28125 375.406 6.9375 374.703 6.9375C374 6.9375 373.487 7.27344 373.164 7.94531C372.846 8.61719 372.688 9.73177 372.688 11.2891ZM381.461 9C381.461 9.77604 381.536 10.3542 381.688 10.7344C381.839 11.1146 382.086 11.3047 382.43 11.3047C383.117 11.3047 383.461 10.5365 383.461 9C383.461 7.46354 383.117 6.69531 382.43 6.69531C382.086 6.69531 381.839 6.88542 381.688 7.26562C381.536 7.64583 381.461 8.22396 381.461 9ZM384.977 8.98438C384.977 10.1823 384.76 11.0833 384.328 11.6875C383.901 12.2865 383.268 12.5859 382.43 12.5859C381.638 12.5859 381.023 12.276 380.586 11.6562C380.154 11.0312 379.938 10.1406 379.938 8.98438C379.938 6.60417 380.768 5.41406 382.43 5.41406C383.247 5.41406 383.875 5.72396 384.312 6.34375C384.755 6.95833 384.977 7.83854 384.977 8.98438ZM388.898 13.5625C388.898 14.3385 388.974 14.9193 389.125 15.3047C389.281 15.6901 389.531 15.8828 389.875 15.8828C390.557 15.8828 390.898 15.1094 390.898 13.5625C390.898 12.0365 390.557 11.2734 389.875 11.2734C389.531 11.2734 389.281 11.4609 389.125 11.8359C388.974 12.2109 388.898 12.7865 388.898 13.5625ZM392.414 13.5625C392.414 14.7604 392.198 15.6589 391.766 16.2578C391.333 16.8568 390.703 17.1562 389.875 17.1562C389.083 17.1562 388.469 16.849 388.031 16.2344C387.594 15.6146 387.375 14.724 387.375 13.5625C387.375 11.1823 388.208 9.99219 389.875 9.99219C390.677 9.99219 391.299 10.2995 391.742 10.9141C392.19 11.5286 392.414 12.4115 392.414 13.5625ZM390.094 5.57812L383.758 17H382.242L388.578 5.57812H390.094Z" fill="#7B7FDA"/>
<path d="M363 54L367.516 44.2109H361.578V42.5938H369.477V43.875L364.984 54H363ZM378.586 54H370.844V52.6094L373.789 49.6484C374.659 48.7578 375.234 48.1276 375.516 47.7578C375.802 47.3828 376.01 47.0312 376.141 46.7031C376.271 46.375 376.336 46.0234 376.336 45.6484C376.336 45.1328 376.18 44.7266 375.867 44.4297C375.56 44.1328 375.133 43.9844 374.586 43.9844C374.148 43.9844 373.724 44.0651 373.312 44.2266C372.906 44.388 372.435 44.6797 371.898 45.1016L370.906 43.8906C371.542 43.3542 372.159 42.974 372.758 42.75C373.357 42.526 373.995 42.4141 374.672 42.4141C375.734 42.4141 376.586 42.6927 377.227 43.25C377.867 43.8021 378.188 44.5469 378.188 45.4844C378.188 46 378.094 46.4896 377.906 46.9531C377.724 47.4167 377.44 47.8958 377.055 48.3906C376.674 48.8802 376.039 49.5443 375.148 50.3828L373.164 52.3047V52.3828H378.586V54ZM381.461 46C381.461 46.776 381.536 47.3542 381.688 47.7344C381.839 48.1146 382.086 48.3047 382.43 48.3047C383.117 48.3047 383.461 47.5365 383.461 46C383.461 44.4635 383.117 43.6953 382.43 43.6953C382.086 43.6953 381.839 43.8854 381.688 44.2656C381.536 44.6458 381.461 45.224 381.461 46ZM384.977 45.9844C384.977 47.1823 384.76 48.0833 384.328 48.6875C383.901 49.2865 383.268 49.5859 382.43 49.5859C381.638 49.5859 381.023 49.276 380.586 48.6562C380.154 48.0312 379.938 47.1406 379.938 45.9844C379.938 43.6042 380.768 42.4141 382.43 42.4141C383.247 42.4141 383.875 42.724 384.312 43.3438C384.755 43.9583 384.977 44.8385 384.977 45.9844ZM388.898 50.5625C388.898 51.3385 388.974 51.9193 389.125 52.3047C389.281 52.6901 389.531 52.8828 389.875 52.8828C390.557 52.8828 390.898 52.1094 390.898 50.5625C390.898 49.0365 390.557 48.2734 389.875 48.2734C389.531 48.2734 389.281 48.4609 389.125 48.8359C388.974 49.2109 388.898 49.7865 388.898 50.5625ZM392.414 50.5625C392.414 51.7604 392.198 52.6589 391.766 53.2578C391.333 53.8568 390.703 54.1562 389.875 54.1562C389.083 54.1562 388.469 53.849 388.031 53.2344C387.594 52.6146 387.375 51.724 387.375 50.5625C387.375 48.1823 388.208 46.9922 389.875 46.9922C390.677 46.9922 391.299 47.2995 391.742 47.9141C392.19 48.5286 392.414 49.4115 392.414 50.5625ZM390.094 42.5781L383.758 54H382.242L388.578 42.5781H390.094Z" fill="#7B7FDA"/>
<path d="M367.094 91H365.258V83.625C365.258 82.7448 365.279 82.0469 365.32 81.5312C365.201 81.6562 365.052 81.7943 364.875 81.9453C364.703 82.0964 364.12 82.5755 363.125 83.3828L362.203 82.2188L365.562 79.5781H367.094V91ZM378.586 91H370.844V89.6094L373.789 86.6484C374.659 85.7578 375.234 85.1276 375.516 84.7578C375.802 84.3828 376.01 84.0312 376.141 83.7031C376.271 83.375 376.336 83.0234 376.336 82.6484C376.336 82.1328 376.18 81.7266 375.867 81.4297C375.56 81.1328 375.133 80.9844 374.586 80.9844C374.148 80.9844 373.724 81.0651 373.312 81.2266C372.906 81.388 372.435 81.6797 371.898 82.1016L370.906 80.8906C371.542 80.3542 372.159 79.974 372.758 79.75C373.357 79.526 373.995 79.4141 374.672 79.4141C375.734 79.4141 376.586 79.6927 377.227 80.25C377.867 80.8021 378.188 81.5469 378.188 82.4844C378.188 83 378.094 83.4896 377.906 83.9531C377.724 84.4167 377.44 84.8958 377.055 85.3906C376.674 85.8802 376.039 86.5443 375.148 87.3828L373.164 89.3047V89.3828H378.586V91ZM381.461 83C381.461 83.776 381.536 84.3542 381.688 84.7344C381.839 85.1146 382.086 85.3047 382.43 85.3047C383.117 85.3047 383.461 84.5365 383.461 83C383.461 81.4635 383.117 80.6953 382.43 80.6953C382.086 80.6953 381.839 80.8854 381.688 81.2656C381.536 81.6458 381.461 82.224 381.461 83ZM384.977 82.9844C384.977 84.1823 384.76 85.0833 384.328 85.6875C383.901 86.2865 383.268 86.5859 382.43 86.5859C381.638 86.5859 381.023 86.276 380.586 85.6562C380.154 85.0312 379.938 84.1406 379.938 82.9844C379.938 80.6042 380.768 79.4141 382.43 79.4141C383.247 79.4141 383.875 79.724 384.312 80.3438C384.755 80.9583 384.977 81.8385 384.977 82.9844ZM388.898 87.5625C388.898 88.3385 388.974 88.9193 389.125 89.3047C389.281 89.6901 389.531 89.8828 389.875 89.8828C390.557 89.8828 390.898 89.1094 390.898 87.5625C390.898 86.0365 390.557 85.2734 389.875 85.2734C389.531 85.2734 389.281 85.4609 389.125 85.8359C388.974 86.2109 388.898 86.7865 388.898 87.5625ZM392.414 87.5625C392.414 88.7604 392.198 89.6589 391.766 90.2578C391.333 90.8568 390.703 91.1562 389.875 91.1562C389.083 91.1562 388.469 90.849 388.031 90.2344C387.594 89.6146 387.375 88.724 387.375 87.5625C387.375 85.1823 388.208 83.9922 389.875 83.9922C390.677 83.9922 391.299 84.2995 391.742 84.9141C392.19 85.5286 392.414 86.4115 392.414 87.5625ZM390.094 79.5781L383.758 91H382.242L388.578 79.5781H390.094Z" fill="#7B7FDA"/>
<path d="M369.445 128H361.703V126.609L364.648 123.648C365.518 122.758 366.094 122.128 366.375 121.758C366.661 121.383 366.87 121.031 367 120.703C367.13 120.375 367.195 120.023 367.195 119.648C367.195 119.133 367.039 118.727 366.727 118.43C366.419 118.133 365.992 117.984 365.445 117.984C365.008 117.984 364.583 118.065 364.172 118.227C363.766 118.388 363.294 118.68 362.758 119.102L361.766 117.891C362.401 117.354 363.018 116.974 363.617 116.75C364.216 116.526 364.854 116.414 365.531 116.414C366.594 116.414 367.445 116.693 368.086 117.25C368.727 117.802 369.047 118.547 369.047 119.484C369.047 120 368.953 120.49 368.766 120.953C368.583 121.417 368.299 121.896 367.914 122.391C367.534 122.88 366.898 123.544 366.008 124.383L364.023 126.305V126.383H369.445V128ZM372.32 120C372.32 120.776 372.396 121.354 372.547 121.734C372.698 122.115 372.945 122.305 373.289 122.305C373.977 122.305 374.32 121.536 374.32 120C374.32 118.464 373.977 117.695 373.289 117.695C372.945 117.695 372.698 117.885 372.547 118.266C372.396 118.646 372.32 119.224 372.32 120ZM375.836 119.984C375.836 121.182 375.62 122.083 375.188 122.688C374.76 123.286 374.128 123.586 373.289 123.586C372.497 123.586 371.883 123.276 371.445 122.656C371.013 122.031 370.797 121.141 370.797 119.984C370.797 117.604 371.628 116.414 373.289 116.414C374.107 116.414 374.734 116.724 375.172 117.344C375.615 117.958 375.836 118.839 375.836 119.984ZM379.758 124.562C379.758 125.339 379.833 125.919 379.984 126.305C380.141 126.69 380.391 126.883 380.734 126.883C381.417 126.883 381.758 126.109 381.758 124.562C381.758 123.036 381.417 122.273 380.734 122.273C380.391 122.273 380.141 122.461 379.984 122.836C379.833 123.211 379.758 123.786 379.758 124.562ZM383.273 124.562C383.273 125.76 383.057 126.659 382.625 127.258C382.193 127.857 381.562 128.156 380.734 128.156C379.943 128.156 379.328 127.849 378.891 127.234C378.453 126.615 378.234 125.724 378.234 124.562C378.234 122.182 379.068 120.992 380.734 120.992C381.536 120.992 382.159 121.299 382.602 121.914C383.049 122.529 383.273 123.411 383.273 124.562ZM380.953 116.578L374.617 128H373.102L379.438 116.578H380.953Z" fill="#7B7FDA"/>
</svg>
