<svg width="178" height="22" viewBox="0 0 178 22" fill="none" xmlns="http://www.w3.org/2000/svg">
<path d="M8.58065 1L10.5071 6.92908H16.7413L11.6977 10.5935L13.6242 16.5225L8.58065 12.8582L3.53707 16.5225L5.46354 10.5935L0.419967 6.92908H6.65417L8.58065 1Z" fill="#F6BA42"/>
<path d="M28.1939 1L30.1204 6.92908H36.3546L31.311 10.5935L33.2375 16.5225L28.1939 12.8582L23.1504 16.5225L25.0768 10.5935L20.0332 6.92908H26.2675L28.1939 1Z" fill="#F6BA42"/>
<path d="M47.8072 1L49.7337 6.92908H55.9679L50.9243 10.5935L52.8508 16.5225L47.8072 12.8582L42.7636 16.5225L44.6901 10.5935L39.6465 6.92908H45.8807L47.8072 1Z" fill="#F6BA42"/>
<path d="M67.4205 1L69.347 6.92908H75.5812L70.5376 10.5935L72.4641 16.5225L67.4205 12.8582L62.3769 16.5225L64.3034 10.5935L59.2598 6.92908H65.494L67.4205 1Z" fill="#F6BA42"/>
<path d="M89.7451 12.8193H88.3984V15H86.833V12.8193H82.2666V11.582L86.833 4.97852H88.3984V11.4863H89.7451V12.8193ZM86.833 11.4863V8.97754C86.833 8.08431 86.8558 7.35286 86.9014 6.7832H86.8467C86.7191 7.08398 86.5186 7.44857 86.2451 7.87695L83.7637 11.4863H86.833ZM90.9072 14.1455C90.9072 13.8128 90.9938 13.5576 91.167 13.3799C91.3402 13.2021 91.5908 13.1133 91.9189 13.1133C92.2516 13.1133 92.5046 13.2067 92.6777 13.3936C92.8509 13.5758 92.9375 13.8265 92.9375 14.1455C92.9375 14.4691 92.8486 14.7266 92.6709 14.918C92.4977 15.1048 92.2471 15.1982 91.9189 15.1982C91.5908 15.1982 91.3402 15.1048 91.167 14.918C90.9938 14.7311 90.9072 14.4736 90.9072 14.1455ZM101.243 10.0029C101.243 11.7393 100.963 13.029 100.402 13.8721C99.8464 14.7152 98.9941 15.1367 97.8457 15.1367C96.7337 15.1367 95.8906 14.7015 95.3164 13.8311C94.7422 12.9606 94.4551 11.6846 94.4551 10.0029C94.4551 8.23926 94.7331 6.94043 95.2891 6.10645C95.8496 5.2679 96.7018 4.84863 97.8457 4.84863C98.9622 4.84863 99.8076 5.28613 100.382 6.16113C100.956 7.03613 101.243 8.31673 101.243 10.0029ZM96.082 10.0029C96.082 11.3656 96.221 12.3385 96.499 12.9219C96.7816 13.5052 97.2305 13.7969 97.8457 13.7969C98.4609 13.7969 98.9098 13.5007 99.1924 12.9082C99.4795 12.3158 99.623 11.3473 99.623 10.0029C99.623 8.66309 99.4795 7.69466 99.1924 7.09766C98.9098 6.49609 98.4609 6.19531 97.8457 6.19531C97.2305 6.19531 96.7816 6.48926 96.499 7.07715C96.221 7.66504 96.082 8.6403 96.082 10.0029Z" fill="#C4C4C4"/>
<path d="M146.082 12.2861C146.082 13.1748 145.761 13.8721 145.118 14.3779C144.476 14.8838 143.589 15.1367 142.459 15.1367C141.329 15.1367 140.404 14.9613 139.684 14.6104V13.0654C140.139 13.2796 140.622 13.4482 141.133 13.5713C141.648 13.6943 142.126 13.7559 142.568 13.7559C143.215 13.7559 143.692 13.6328 143.997 13.3867C144.307 13.1406 144.462 12.8102 144.462 12.3955C144.462 12.0218 144.321 11.7051 144.038 11.4453C143.756 11.1855 143.172 10.8779 142.288 10.5225C141.377 10.1533 140.734 9.73177 140.36 9.25781C139.987 8.78385 139.8 8.21419 139.8 7.54883C139.8 6.71484 140.096 6.05859 140.688 5.58008C141.281 5.10156 142.076 4.8623 143.074 4.8623C144.031 4.8623 144.984 5.07194 145.932 5.49121L145.412 6.82422C144.523 6.45052 143.73 6.26367 143.033 6.26367C142.505 6.26367 142.104 6.37988 141.83 6.6123C141.557 6.84017 141.42 7.14323 141.42 7.52148C141.42 7.78125 141.475 8.00456 141.584 8.19141C141.693 8.3737 141.873 8.54688 142.124 8.71094C142.375 8.875 142.826 9.09147 143.478 9.36035C144.211 9.66569 144.749 9.95052 145.091 10.2148C145.433 10.4792 145.683 10.7777 145.843 11.1104C146.002 11.443 146.082 11.835 146.082 12.2861ZM154.497 15H152.884V10.3516C152.884 9.76823 152.765 9.33301 152.528 9.0459C152.296 8.75879 151.924 8.61523 151.414 8.61523C150.74 8.61523 150.243 8.81803 149.924 9.22363C149.609 9.62467 149.452 10.2992 149.452 11.2471V15H147.846V4.36328H149.452V7.06348C149.452 7.49642 149.425 7.95898 149.37 8.45117H149.473C149.691 8.08659 149.994 7.80404 150.382 7.60352C150.774 7.40299 151.229 7.30273 151.749 7.30273C153.581 7.30273 154.497 8.22559 154.497 10.0713V15ZM161.463 15L161.142 13.9473H161.087C160.722 14.4076 160.355 14.722 159.986 14.8906C159.617 15.0547 159.143 15.1367 158.564 15.1367C157.822 15.1367 157.241 14.9362 156.821 14.5352C156.407 14.1341 156.199 13.5667 156.199 12.833C156.199 12.0537 156.489 11.4658 157.067 11.0693C157.646 10.6729 158.528 10.4564 159.713 10.4199L161.019 10.3789V9.97559C161.019 9.49251 160.905 9.13249 160.677 8.89551C160.453 8.65397 160.105 8.5332 159.631 8.5332C159.243 8.5332 158.872 8.59017 158.517 8.7041C158.161 8.81803 157.819 8.95247 157.491 9.10742L156.972 7.95898C157.382 7.74479 157.831 7.58301 158.318 7.47363C158.806 7.3597 159.266 7.30273 159.699 7.30273C160.661 7.30273 161.385 7.51237 161.873 7.93164C162.365 8.35091 162.611 9.00944 162.611 9.90723V15H161.463ZM159.07 13.9062C159.654 13.9062 160.121 13.7445 160.472 13.4209C160.827 13.0928 161.005 12.6348 161.005 12.0469V11.3906L160.034 11.4316C159.278 11.459 158.726 11.5866 158.38 11.8145C158.038 12.0378 157.867 12.3818 157.867 12.8467C157.867 13.1839 157.967 13.446 158.168 13.6328C158.368 13.8151 158.669 13.9062 159.07 13.9062ZM168.688 7.30273C169.012 7.30273 169.279 7.32552 169.488 7.37109L169.331 8.86816C169.103 8.81348 168.866 8.78613 168.62 8.78613C167.978 8.78613 167.456 8.99577 167.055 9.41504C166.658 9.83431 166.46 10.3789 166.46 11.0488V15H164.854V7.43945H166.111L166.323 8.77246H166.405C166.656 8.32129 166.982 7.96354 167.383 7.69922C167.788 7.4349 168.224 7.30273 168.688 7.30273ZM174.198 15.1367C173.022 15.1367 172.102 14.7949 171.437 14.1113C170.776 13.4232 170.445 12.4775 170.445 11.2744C170.445 10.0394 170.753 9.06868 171.368 8.3623C171.983 7.65592 172.829 7.30273 173.904 7.30273C174.902 7.30273 175.691 7.60579 176.27 8.21191C176.848 8.81803 177.138 9.65202 177.138 10.7139V11.582H172.1C172.122 12.3158 172.321 12.8809 172.694 13.2773C173.068 13.6693 173.594 13.8652 174.273 13.8652C174.72 13.8652 175.135 13.8242 175.518 13.7422C175.905 13.6556 176.32 13.5143 176.762 13.3184V14.624C176.37 14.8109 175.973 14.943 175.572 15.0205C175.171 15.098 174.713 15.1367 174.198 15.1367ZM173.904 8.51953C173.394 8.51953 172.984 8.68132 172.674 9.00488C172.368 9.32845 172.186 9.80013 172.127 10.4199H175.559C175.549 9.79557 175.399 9.32389 175.107 9.00488C174.816 8.68132 174.415 8.51953 173.904 8.51953Z" fill="white"/>
<path d="M128.47 3.495C124.6 3.495 121.465 6.63 121.465 10.5C121.465 14.37 124.6 17.505 128.47 17.505C132.34 17.505 135.475 14.37 135.475 10.5C135.475 6.63 132.34 3.495 128.47 3.495ZM129.34 13.125V11.37C129.34 11.37 125.83 10.5 124.09 13.125C124.09 10.23 126.445 7.875 129.34 7.875V6.12L132.85 9.63L129.34 13.125Z" fill="white"/>
</svg>
